STARTFONT 2.1
COMMENT
COMMENT Converted from OpenType font "BeVietnam-Italic.ttf" by "otf2bdf 3.0".
COMMENT
FONT -FreeType-Be Vietnam-Medium-I-Normal--77-560-100-100-P-393-ISO10646-1
SIZE 56 100 100
FONTBOUNDINGBOX 112 105 -20 -20
STARTPROPERTIES 19
FOUNDRY "FreeType"
FAMILY_NAME "Be Vietnam"
WEIGHT_NAME "Medium"
SLANT "I"
SETWIDTH_NAME "Normal"
ADD_STYLE_NAME ""
PIXEL_SIZE 77
POINT_SIZE 560
RESOLUTION_X 100
RESOLUTION_Y 100
SPACING "P"
AVERAGE_WIDTH 393
CHARSET_REGISTRY "ISO10646"
CHARSET_ENCODING "1"
FONT_ASCENT 93
FONT_DESCENT 20
COPYRIGHT "Copyright 2019 The Bevietnam Project Authors (https://github.com/bettergui/beVietnam)"
_OTF_FONTFILE "BeVietnam-Italic.ttf"
_OTF_PSNAME "BeVietnam-Italic"
ENDPROPERTIES
CHARS 445
STARTCHAR 000D
ENCODING 13
SWIDTH 591 0
DWIDTH 46 0
BBX 0 0 0 0
BITMAP
ENDCHAR
STARTCHAR 0020
ENCODING 32
SWIDTH 218 0
DWIDTH 17 0
BBX 0 0 0 0
BITMAP
ENDCHAR
STARTCHAR 0021
ENCODING 33
SWIDTH 231 0
DWIDTH 18 0
BBX 17 60 6 -1
BITMAP
007F80
007F80
007F00
007F00
007F00
007F00
007F00
00FF00
00FE00
00FE00
00FE00
00FE00
00FE00
00FE00
01FC00
01FC00
01FC00
01FC00
01FC00
01F800
01F800
01F800
03F800
03F800
03F000
03F000
03F000
03F000
03F000
03E000
07E000
07E000
07E000
07C000
07C000
07C000
07C000
07C000
0F8000
0F8000
0F8000
0F8000
0F8000
0F0000
0F0000
000000
000000
000000
000000
000000
000000
1E0000
7F0000
7F0000
FF8000
FF0000
FF0000
FF0000
7E0000
300000
ENDCHAR
STARTCHAR 0022
ENCODING 34
SWIDTH 552 0
DWIDTH 43 0
BBX 26 20 13 38
BITMAP
00200040
01E001C0
03C003C0
07800F80
0E001E00
1C001C00
3C003800
38007800
78007000
78007000
7800F000
F800F800
FF80FF80
FFC0FFC0
FFC0FFC0
FFC0FFC0
FFC0FFC0
FF80FF80
7F80FF00
3E007E00
ENDCHAR
STARTCHAR 0023
ENCODING 35
SWIDTH 874 0
DWIDTH 68 0
BBX 59 54 9 0
BITMAP
0000001F8001F800
0000001F8001F800
0000003F0001F000
0000003F0003F000
0000003F0003F000
0000007E0007E000
0000007E0007E000
000000FC0007E000
000000FC000FC000
000000FC000FC000
000001F8001F8000
000001F8001F8000
000001F0001F8000
000003F0003F0000
000003F0003F0000
00FFFFFFFFFFFFE0
00FFFFFFFFFFFFE0
01FFFFFFFFFFFFE0
01FFFFFFFFFFFFC0
03FFFFFFFFFFFFC0
00001F8000F80000
00001F8001F80000
00001F8001F80000
00003F0003F00000
00003F0003F00000
00007E0003F00000
00007E0007E00000
00007E0007E00000
0000FC0007C00000
0000FC000FC00000
0000F8000FC00000
0001F8001F800000
0001F8001F800000
0003F0001F000000
3FFFFFFFFFFFF800
7FFFFFFFFFFFF800
7FFFFFFFFFFFF000
7FFFFFFFFFFFF000
FFFFFFFFFFFFE000
000FC000FC000000
000FC000FC000000
001F8001F8000000
001F8001F8000000
001F0001F8000000
003F0003F0000000
003F0003F0000000
007E0003E0000000
007E0007E0000000
007E0007E0000000
00FC000FC0000000
00FC000FC0000000
01F8000FC0000000
01F8001F80000000
01F8001F80000000
ENDCHAR
STARTCHAR 0024
ENCODING 36
SWIDTH 565 0
DWIDTH 44 0
BBX 41 65 6 -6
BITMAP
000000700000
000000700000
000000E00000
000000E00000
000000E00000
00000FFE0000
00007FFFC000
0001FFFFE000
0007FFFFF800
000FFFFFFC00
001FFFFFFC00
003FE1C7FE00
007F81C1FE00
00FF01C0FF00
01FE03807F00
01FC03807F00
03F803807F80
03F803803F80
03F003803F80
07F003803F80
07F007003F80
07F007003F80
07F007000000
07F007000000
07F807000000
07F807000000
03FE0E000000
03FF0E000000
01FFFE000000
00FFFF800000
007FFFF80000
003FFFFE0000
000FFFFF8000
0003FFFFE000
00001FFFF000
00001CFFF000
00001C1FF800
00001C07F800
00003803FC00
00003801FC00
00003801FC00
00003801FC00
FE003801FC00
FE007801FC00
FE007001FC00
FE007001F800
FF007003F800
7F007003F800
7F807007F000
7F80F007F000
3FC0E01FE000
3FE0E03FC000
1FF0E0FFC000
1FFEEFFF8000
0FFFFFFF0000
07FFFFFC0000
03FFFFF80000
00FFFFE00000
003FFF000000
0003E0000000
0001C0000000
0003C0000000
000380000000
000380000000
000380000000
ENDCHAR
STARTCHAR 0025
ENCODING 37
SWIDTH 822 0
DWIDTH 64 0
BBX 54 56 10 -1
BITMAP
00FF8000000000
03FFC000003F00
07FFE000007E00
0FFFF00000FC00
1F81F00000FC00
3F00F80001F800
7E00F80003F000
7C00F80003F000
7C00F80007E000
F800F8000FC000
F800F8000FC000
F800F8001F8000
F800F8003F0000
F801F0003F0000
F801F0007E0000
F803E000FC0000
FC03E000F80000
7C0FC001F80000
7FFF8003F00000
3FFF0007E00000
1FFE0007E00000
0FF8000FC00000
0000001F800000
0000001F800000
0000003F000000
0000007E000000
0000007E000000
000000FC000000
000001F8000000
000001F8000000
000003F0000000
000007E0000000
000007E0000000
00000FC0000F00
00001F8000FFC0
00001F0003FFE0
00003F0007FFF0
00007E000FE3F8
0000FC001F80F8
0000FC003F00FC
0001F8003E007C
0003F0003E007C
0003F0007C007C
0007E0007C007C
000FC0007C007C
000FC0007C0078
001F80007C00F8
003F00007C00F8
003F00007C01F0
007E00007C01F0
00FC00007E03E0
00F800003F0FE0
01F800003FFFC0
03F000001FFF00
03E000000FFE00
0000000003E000
ENDCHAR
STARTCHAR 0026
ENCODING 38
SWIDTH 630 0
DWIDTH 49 0
BBX 45 56 6 -1
BITMAP
000000FFF000
000007FFFC00
00000FFFFE00
00003FFFFF00
00007FFFFF80
0000FFF7FFC0
0000FF007FC0
0001FE003FC0
0003FC001FE0
0003F8001FE0
0007F0000FE0
0007F0000FE0
0007F0000FE0
0007E0000FE0
0007E0000FE0
0007E0000FE0
0007E0000000
0007F0000000
0007F0000000
0007F0000000
0003F8000000
0003FC000000
0001FC000000
0001FE000000
0000FF000000
00007F000000
0000FF800000
0007FFC003F8
001FFFE007F0
007FFFE00FE0
01FFCFF00FC0
03FE07F81FC0
07F803F83F80
0FF003FC7F00
0FE001FE7E00
1FC000FFFC00
3F8000FFFC00
3F00007FF800
7F00003FF000
7E00001FE000
7E00001FE000
7E00000FF000
7E00001FF000
FE00003FF800
FE00007FFC00
FF0000FFFE00
7F0001FCFE00
7F8003F8FF00
7FC00FF07F80
7FFC7FE03F80
3FFFFFC03FC0
1FFFFF801FE0
0FFFFE000FE0
07FFF8000FF0
01FFE00007F8
000C00000000
ENDCHAR
STARTCHAR 0027
ENCODING 39
SWIDTH 295 0
DWIDTH 23 0
BBX 11 20 11 38
BITMAP
0F80
3FC0
7FE0
7FE0
7FE0
7FE0
7FE0
7FC0
07C0
03C0
03C0
03C0
0380
0780
0F00
1E00
3C00
F800
F000
8000
ENDCHAR
STARTCHAR 0028
ENCODING 40
SWIDTH 450 0
DWIDTH 35 0
BBX 28 78 12 -17
BITMAP
00000020
000000E0
000001F0
000003E0
000007C0
00001F80
00003F00
00007E00
0000FC00
0001F800
0003F800
0003F000
0007E000
000FC000
001FC000
001F8000
003F8000
007F0000
007E0000
00FE0000
01FC0000
01FC0000
03F80000
03F80000
07F00000
07F00000
0FE00000
0FE00000
1FE00000
1FC00000
1FC00000
3F800000
3F800000
3F800000
7F800000
7F000000
7F000000
7F000000
7F000000
FE000000
FE000000
FE000000
FE000000
FE000000
FE000000
FE000000
FE000000
FE000000
FC000000
FC000000
FC000000
FC000000
FC000000
FC000000
FE000000
FE000000
FE000000
FE000000
7E000000
7E000000
7E000000
7E000000
3F000000
3F000000
3F000000
1F800000
1F800000
0F800000
0FC00000
07C00000
07E00000
03F00000
01F00000
01F80000
00F80000
007C0000
003E0000
001C0000
ENDCHAR
STARTCHAR 0029
ENCODING 41
SWIDTH 462 0
DWIDTH 36 0
BBX 27 78 5 -17
BITMAP
00040000
000E0000
001F0000
000F8000
0007C000
0007E000
0003F000
0001F000
0001F800
0000FC00
0000FC00
00007E00
00007E00
00003F00
00003F00
00003F00
00001F80
00001F80
00001F80
00001FC0
00000FC0
00000FC0
00000FC0
00000FE0
00000FE0
00000FE0
00000FE0
00000FE0
00000FE0
00000FE0
00000FE0
00000FE0
00000FE0
00000FE0
00000FE0
00000FE0
00000FE0
00000FE0
00000FE0
00000FE0
00001FC0
00001FC0
00001FC0
00001FC0
00001FC0
00003F80
00003F80
00003F80
00007F00
00007F00
00007F00
0000FE00
0000FE00
0001FC00
0001FC00
0001F800
0003F800
0003F000
0007F000
0007E000
000FE000
000FC000
001F8000
003F8000
003F0000
007E0000
00FE0000
00FC0000
01F80000
03F00000
07E00000
07C00000
0F800000
1F000000
3E000000
7C000000
F8000000
E0000000
ENDCHAR
STARTCHAR 002A
ENCODING 42
SWIDTH 475 0
DWIDTH 37 0
BBX 29 28 13 32
BITMAP
0001F000
0001F000
0001F000
0001E000
0001E000
0201E010
0701E070
0F83C0F0
1FC3C3F8
1FE3C7F8
0FFB9FE0
03FFFF80
00FFFC00
003FF000
001FC000
00FFF000
03FFFC00
0FFFFF00
7FCE7FC0
FF0E3FE0
7E1E0FC0
781E0780
601E0300
003E0100
003E0000
003C0000
003C0000
007C0000
ENDCHAR
STARTCHAR 002B
ENCODING 43
SWIDTH 578 0
DWIDTH 45 0
BBX 31 31 11 9
BITMAP
0001F800
0001F800
0001F800
0001F800
0003F000
0003F000
0003F000
0003F000
0003F000
0003F000
0007E000
0007E000
0007E000
7FFFFFFE
FFFFFFFE
FFFFFFFE
FFFFFFFE
FFFFFFFE
FFFFFFFC
000FC000
000FC000
000FC000
001F8000
001F8000
001F8000
001F8000
001F8000
001F8000
003F0000
003F0000
003F0000
ENDCHAR
STARTCHAR 002C
ENCODING 44
SWIDTH 282 0
DWIDTH 22 0
BBX 11 20 6 -13
BITMAP
0F80
3FC0
7FE0
7FE0
FFE0
FFE0
FFE0
7FC0
0FC0
03C0
03C0
0380
0380
0780
0F00
0E00
3C00
F800
F000
C000
ENDCHAR
STARTCHAR 002D
ENCODING 45
SWIDTH 591 0
DWIDTH 46 0
BBX 29 5 17 22
BITMAP
7FFFFFF8
7FFFFFF8
FFFFFFF8
FFFFFFF0
FFFFFFF0
ENDCHAR
STARTCHAR 002E
ENCODING 46
SWIDTH 270 0
DWIDTH 21 0
BBX 9 9 7 -1
BITMAP
3F00
7F80
FF80
FF80
FF80
FF00
FF00
7E00
1000
ENDCHAR
STARTCHAR 002F
ENCODING 47
SWIDTH 501 0
DWIDTH 39 0
BBX 50 74 1 -12
BITMAP
00000000000FC0
00000000001FC0
00000000003F80
00000000003F00
00000000007F00
00000000007E00
0000000000FE00
0000000000FC00
0000000001FC00
0000000003F800
0000000003F000
0000000007F000
0000000007E000
000000000FE000
000000001FC000
000000001F8000
000000003F8000
000000003F0000
000000007F0000
00000000FE0000
00000000FC0000
00000001FC0000
00000001F80000
00000003F80000
00000007F00000
00000007E00000
0000000FE00000
0000000FC00000
0000001FC00000
0000001F800000
0000003F000000
0000007F000000
0000007E000000
000000FE000000
000000FC000000
000001FC000000
000003F8000000
000003F0000000
000007F0000000
000007E0000000
00000FE0000000
00001FC0000000
00001F80000000
00003F80000000
00003F00000000
00007F00000000
0000FE00000000
0000FC00000000
0001FC00000000
0001F800000000
0003F800000000
0007F000000000
0007E000000000
000FE000000000
000FC000000000
001FC000000000
001F8000000000
003F0000000000
007F0000000000
007E0000000000
00FE0000000000
00FC0000000000
01FC0000000000
03F80000000000
03F00000000000
07F00000000000
07E00000000000
0FE00000000000
1FC00000000000
1F800000000000
3F800000000000
3F000000000000
7F000000000000
FE000000000000
ENDCHAR
STARTCHAR 0030
ENCODING 48
SWIDTH 604 0
DWIDTH 47 0
BBX 42 56 7 0
BITMAP
00001FFF8000
0000FFFFE000
0003FFFFF000
0007FFFFF800
000FFFFFFC00
001FFF3FFE00
003FF003FF00
007FC001FF00
00FF8000FF80
00FE00007F80
01FE00007F80
03FC00003F80
03F800003FC0
07F800003FC0
07F000003FC0
0FF000001FC0
0FE000001FC0
0FE000001FC0
1FE000001FC0
1FC000001FC0
1FC000003FC0
1FC000003FC0
3FC000003F80
3FC000003F80
3F8000003F80
3F8000003F80
3F8000003F80
3F8000007F80
7F8000007F00
7F8000007F00
7F0000007F00
7F0000007F00
7F0000007F00
7F000000FF00
7F000000FE00
FF000000FE00
FF000000FE00
FF000001FC00
FF000001FC00
FF000003FC00
FF000003F800
FF000003F800
7F000007F000
7F00000FF000
7F80000FE000
7F80001FE000
3FC0003FC000
3FE0007F8000
1FF001FF8000
1FFC0FFF0000
0FFFFFFE0000
07FFFFF80000
03FFFFF00000
01FFFFC00000
007FFF000000
0007E0000000
ENDCHAR
STARTCHAR 0031
ENCODING 49
SWIDTH 488 0
DWIDTH 38 0
BBX 28 54 8 0
BITMAP
00003FC0
00007FC0
0000FFC0
0001FF80
0007FF80
000FFF80
001FFF80
003FFF80
00FFBF80
01FF3F00
01FE3F00
01F83F00
03F03F00
03E07F00
03C07F00
03007E00
02007E00
00007E00
00007E00
0000FE00
0000FE00
0000FC00
0000FC00
0000FC00
0000FC00
0001FC00
0001FC00
0001F800
0001F800
0001F800
0001F800
0003F800
0003F000
0003F000
0003F000
0003F000
0007F000
0007F000
0007E000
0007E000
0007E000
0007E000
000FE000
000FE000
000FC000
000FC000
000FC000
000FC000
FFFFFFF0
FFFFFFF0
FFFFFFF0
FFFFFFE0
FFFFFFE0
FFFFFFE0
ENDCHAR
STARTCHAR 0032
ENCODING 50
SWIDTH 578 0
DWIDTH 45 0
BBX 42 56 6 0
BITMAP
0000007C0000
00000FFFC000
00007FFFF000
0000FFFFFC00
0003FFFFFE00
0007FFFFFE00
000FFF0FFF00
001FF000FF80
003FC0007F80
003F80003F80
007F00003FC0
007E00001FC0
00FE00001FC0
00FC00001FC0
01FC00001FC0
01FC00001FC0
01F800001FC0
01F800001F80
000000001F80
000000003F80
000000003F80
000000003F00
000000007F00
00000000FE00
00000000FC00
00000001FC00
00000003F800
00000007F000
0000000FF000
0000001FE000
0000003FC000
0000007F8000
000001FF0000
000003FE0000
000007F80000
00001FF00000
00003FE00000
00007FC00000
0001FF000000
0003FE000000
0007FC000000
000FF0000000
003FE0000000
007FC0000000
00FF80000000
03FE00000000
07FC00000000
0FF800000000
1FE000000000
7FC000000000
FFFFFFFFF000
FFFFFFFFF000
FFFFFFFFF000
FFFFFFFFF000
FFFFFFFFF000
FFFFFFFFF000
ENDCHAR
STARTCHAR 0033
ENCODING 51
SWIDTH 578 0
DWIDTH 45 0
BBX 41 57 7 -1
BITMAP
000001F80000
00003FFF8000
0000FFFFE000
0003FFFFF800
0007FFFFFC00
001FFFFFFE00
001FF80FFE00
003FC001FF00
007F8000FF00
00FF00007F80
00FE00003F80
01FC00003F80
01F800003F80
03F800003F80
000000003F80
000000003F80
000000003F80
000000003F00
000000007F00
000000007F00
00000000FE00
00000001FE00
00000003FC00
00000007F800
0000003FF000
0000FFFFE000
0000FFFF8000
0000FFFC0000
0000FFFE0000
0000FFFF8000
000007FFC000
0000003FE000
0000000FF000
00000007F000
00000003F800
00000003F800
00000001F800
00000001F800
00000001F800
00000001F800
00000001F800
00000003F800
00000003F800
FE000003F800
FE000007F000
FF000007F000
7F00000FE000
7F80001FE000
7FC0007FC000
3FF001FF8000
3FFF3FFF0000
1FFFFFFE0000
0FFFFFFC0000
07FFFFF00000
01FFFFE00000
007FFF000000
0001E0000000
ENDCHAR
STARTCHAR 0034
ENCODING 52
SWIDTH 591 0
DWIDTH 46 0
BBX 40 54 6 0
BITMAP
00000007FC
0000000FFC
0000000FFC
0000001FFC
0000003FFC
0000007FF8
000000FFF8
000001FFF8
000001FFF8
000003FBF8
000007F3F8
00000FE3F0
00001FC3F0
00003FC3F0
00007F87F0
00007F07F0
0000FE07F0
0001FC07E0
0003F807E0
0007F007E0
000FF00FE0
000FE00FE0
001FC00FE0
003F800FC0
007F000FC0
00FE000FC0
01FE001FC0
01FC001FC0
03F8001FC0
07F0001F80
0FE0001F80
1FC0003F80
3F80003F80
3F80003F80
7F00003F80
7FFFFFFFFF
FFFFFFFFFF
FFFFFFFFFF
FFFFFFFFFF
FFFFFFFFFF
0FBFFFFFFE
0000007E00
0000007E00
000000FE00
000000FE00
000000FE00
000000FE00
000000FC00
000000FC00
000001FC00
000001FC00
000001FC00
000001FC00
000001F800
ENDCHAR
STARTCHAR 0035
ENCODING 53
SWIDTH 591 0
DWIDTH 46 0
BBX 40 54 8 0
BITMAP
007FFFFFFF
007FFFFFFF
007FFFFFFF
007FFFFFFF
00FFFFFFFF
00FFFFFFFE
00FC000000
00FC000000
01F8000000
01F8000000
01F8000000
01F8000000
01F0000000
03F0000000
03F0000000
03F0000000
03F0000000
07E007E000
07E07FFE00
07E1FFFF80
07E7FFFFC0
07CFFFFFE0
0FDFF1FFF0
0FFF001FF0
0FFC000FF8
0FF80007F8
1FF00003FC
1FE00001FC
1FC00001FC
00000001FC
00000000FC
00000000FC
00000000FC
00000000FC
00000001FC
00000001FC
00000001FC
00000001FC
00000003F8
00000003F8
FE000003F8
FE000007F0
FE00000FF0
7F00000FE0
7F80001FC0
7F80007FC0
3FE000FF80
3FF803FF00
1FFFFFFE00
0FFFFFFC00
07FFFFF800
03FFFFE000
00FFFF8000
003FFC0000
ENDCHAR
STARTCHAR 0036
ENCODING 54
SWIDTH 578 0
DWIDTH 45 0
BBX 38 55 7 -1
BITMAP
000000FE00
000001FC00
000003F800
000007F000
00000FE000
00001FC000
00001F8000
00003F8000
00007F0000
0000FE0000
0001FC0000
0003F80000
0007F00000
0007F00000
000FE00000
001FC00000
003F800000
007F000000
007E000000
00FC0FE000
01FC7FFC00
01F9FFFF00
03F7FFFF80
07EFFFFFC0
07DFE1FFE0
0FFE003FF0
0FF8000FF0
1FF00007F8
1FE00007F8
3FC00003F8
3F800003FC
7F800001FC
7F000001FC
7F000001FC
7E000001FC
FE000001FC
FE000001F8
FE000001F8
FE000001F8
FE000003F8
FE000003F0
FE000007F0
FE000007F0
FE00000FE0
7F00001FE0
7F80003FC0
7FC0007F80
3FE001FF00
1FF807FE00
1FFFFFFC00
0FFFFFF800
07FFFFF000
01FFFFC000
007FFE0000
0001C00000
ENDCHAR
STARTCHAR 0037
ENCODING 55
SWIDTH 501 0
DWIDTH 39 0
BBX 37 54 9 0
BITMAP
3FFFFFFFF8
3FFFFFFFF8
3FFFFFFFF0
3FFFFFFFF0
3FFFFFFFF0
7FFFFFFFF0
00000007F0
0000000FE0
0000000FC0
0000001FC0
0000003F80
0000003F80
0000007F00
0000007E00
000000FE00
000001FC00
000001FC00
000003F800
000003F000
000007F000
00000FE000
00000FE000
00001FC000
00003F8000
00003F8000
00007F0000
00007F0000
0000FE0000
0001FC0000
0001FC0000
0003F80000
0003F80000
0007F00000
000FE00000
000FE00000
001FC00000
003FC00000
003F800000
007F000000
007F000000
00FE000000
01FE000000
01FC000000
03F8000000
03F8000000
07F0000000
0FE0000000
0FE0000000
1FC0000000
3FC0000000
3F80000000
7F00000000
7F00000000
FE00000000
ENDCHAR
STARTCHAR 0038
ENCODING 56
SWIDTH 604 0
DWIDTH 47 0
BBX 41 57 7 -1
BITMAP
000000600000
00001FFF8000
00007FFFF000
0001FFFFF800
0007FFFFFC00
000FFFFFFE00
001FFC07FF00
003FE001FF00
007FC0007F80
007F00003F80
00FE00003F80
00FE00001F80
01FC00001F80
01F800001F80
01F800001F80
03F800001F80
03F800001F80
03F800003F80
03F800003F00
03F800007F00
01F800007E00
01FC0000FE00
01FC0001FC00
00FE0007F800
00FF801FF000
007FFFFFE000
003FFFFF8000
000FFFFF0000
003FFFFFC000
00FFFFFFE000
01FF001FF000
07F80007F800
0FF00003FC00
0FE00001FC00
1FC00000FE00
3F800000FE00
3F000000FE00
7F000000FE00
7E000000FE00
FE000000FE00
FE000000FE00
FE000000FE00
FE000000FE00
FE000001FC00
FE000001FC00
FE000003FC00
FF000007F800
FF00000FF800
7F80001FF000
7FE0007FE000
3FF803FFC000
3FFFFFFF8000
1FFFFFFF0000
07FFFFFC0000
03FFFFF00000
00FFFFC00000
000FF8000000
ENDCHAR
STARTCHAR 0039
ENCODING 57
SWIDTH 578 0
DWIDTH 45 0
BBX 38 56 10 0
BITMAP
0000020000
0001FFF800
0007FFFE00
001FFFFF80
007FFFFFC0
00FFFFFFE0
01FFC07FF0
03FE001FF0
07FC0007F8
0FF00007F8
0FE00003F8
1FC00001FC
1FC00001FC
3F800001FC
3F000000FC
7F000000FC
7F000000FC
7E000000FC
7E000001FC
7E000001FC
7E000001FC
FE000001F8
FE000003F8
7E000003F8
7F000007F0
7F00000FF0
7F80001FF0
7F80003FE0
3FC0007FE0
3FE001FFC0
1FFC07FFC0
0FFFFFFF80
07FFFFDF80
03FFFF3F00
01FFFC7E00
003FF0FE00
000001FC00
000003F800
000007F000
000007F000
00000FE000
00001FC000
00003F8000
00007F0000
0000FE0000
0001FE0000
0001FC0000
0003F80000
0007F00000
000FE00000
001FC00000
003FC00000
007F800000
007F000000
00FE000000
01FC000000
ENDCHAR
STARTCHAR 003A
ENCODING 58
SWIDTH 282 0
DWIDTH 22 0
BBX 9 41 6 -1
BITMAP
0E00
3F00
7F80
7F80
FF80
FF80
FF80
7F00
7E00
0000
0000
0000
0000
0000
0000
0000
0000
0000
0000
0000
0000
0000
0000
0000
0000
0000
0000
0000
0000
0000
0000
0000
0000
3F00
7F80
7F80
FF80
FF80
FF80
7F00
7E00
ENDCHAR
STARTCHAR 003B
ENCODING 59
SWIDTH 308 0
DWIDTH 24 0
BBX 15 53 7 -12
BITMAP
0010
00FC
01FE
03FE
03FE
03FE
03FC
03FC
01F8
0000
0000
0000
0000
0000
0000
0000
0000
0000
0000
0000
0000
0000
0000
0000
0000
0000
0000
0000
0000
0000
0000
0000
0000
1F80
3FC0
7FC0
7FE0
FFE0
FFE0
FFC0
7FC0
0FC0
03C0
03C0
0380
0780
0780
0F00
1E00
3C00
F800
F000
C000
ENDCHAR
STARTCHAR 003C
ENCODING 60
SWIDTH 565 0
DWIDTH 44 0
BBX 32 35 12 8
BITMAP
00000003
0000000E
0000003E
000000FE
000003FE
00000FFE
00003FFC
0000FFF0
0003FFC0
000FFF00
003FFC00
00FFF000
03FF8000
0FFE0000
3FF80000
FFE00000
FF800000
FE000000
FF800000
FFC00000
7FF00000
1FFC0000
0FFF0000
03FF8000
00FFE000
007FF800
001FFE00
0007FF00
0003FFC0
0000FFE0
00003FC0
00001FC0
000007C0
000001C0
000000C0
ENDCHAR
STARTCHAR 003D
ENCODING 61
SWIDTH 707 0
DWIDTH 55 0
BBX 40 23 12 13
BITMAP
1FFFFFFFFF
1FFFFFFFFF
1FFFFFFFFF
1FFFFFFFFE
1FFFFFFFFE
1FFFFFFFFE
0000000000
0000000000
0000000000
0000000000
0000000000
0000000000
0000000000
0000000000
0000000000
0000000000
0000000000
FFFFFFFFF8
FFFFFFFFF8
FFFFFFFFF8
FFFFFFFFF0
FFFFFFFFF0
FFFFFFFFF0
ENDCHAR
STARTCHAR 003E
ENCODING 62
SWIDTH 565 0
DWIDTH 44 0
BBX 32 35 9 8
BITMAP
02000000
03800000
03E00000
03F00000
07FC0000
07FF0000
03FF8000
01FFE000
007FF800
001FFC00
0007FF00
0003FFC0
0000FFE0
00003FF8
00000FFE
000007FF
000001FF
0000007F
000001FF
000007FE
00001FFC
00007FF0
0003FFC0
000FFF00
003FFC00
00FFF000
03FFC000
0FFF0000
3FFC0000
7FF00000
7FC00000
7F000000
7C000000
70000000
C0000000
ENDCHAR
STARTCHAR 003F
ENCODING 63
SWIDTH 565 0
DWIDTH 44 0
BBX 35 57 12 -1
BITMAP
00007E0000
000FFFE000
003FFFF800
00FFFFFE00
01FFFFFF00
07FFFFFF80
0FFFFFFFC0
1FFC00FFC0
1FF0003FE0
3FC0001FE0
7F80000FE0
7F00000FE0
7F00000FE0
FE00000FE0
FE00000FE0
FC00000FE0
FC00000FE0
FC00000FE0
0000000FE0
0000001FC0
0000001FC0
0000003F80
0000007F80
000000FF00
000001FE00
000003FC00
000007F800
00000FF000
00001FE000
00007FC000
0000FF0000
0001FE0000
0003FC0000
0007F80000
000FF00000
000FE00000
001FC00000
001F800000
003F800000
003F800000
003F000000
003F000000
0000000000
0000000000
0000000000
0000000000
0000000000
0000000000
0078000000
00FC000000
01FE000000
01FE000000
03FE000000
03FE000000
01FC000000
01F8000000
0060000000
ENDCHAR
STARTCHAR 0040
ENCODING 64
SWIDTH 1002 0
DWIDTH 78 0
BBX 70 68 8 -13
BITMAP
000000007FFF800000
00000007FFFFF80000
0000003FFFFFFE0000
000000FFFFFFFF8000
000003FFFFFFFFE000
00000FFF8003FFF000
00003FF800003FF800
00007FE0000007FE00
0000FF00000001FF00
0003FE00000000FF00
0007F8000000007F80
000FF0000000003FC0
001FC0000000001FC0
003F80000000000FE0
003F000000000007E0
007E000000000003F0
00FC000000000003F0
01F8000070000001F8
01F80007FE0F8001F8
03F0001FFF8F8001F8
03E0003FFFDF8000F8
07E000FFFFDF8000FC
0FC001FF07FF0000FC
0FC001FC01FF0000FC
0F8003F800FF0000FC
1F8007E0007F0000FC
1F0007E0007F0000FC
3F000FC0007F0000FC
3F000F80007E0000FC
3E001F80003E0000FC
3E001F80003E0000F8
7E001F00003E0000F8
7E003F00007E0000F8
7C003F00007E0000F8
7C003F00007C0001F8
7C003F00007C0001F0
7C003F00007C0001F0
7C003F0000FC0003E0
7C003F0000FC0003E0
FC003F0001FC0007C0
FC003F0001FC000FC0
FC003F8003FE000F80
7C001F8007FE001F00
7C001FC00F3F003F00
7C001FF07E3F80FE00
7E000FFFFC1FFFFC00
7E0007FFF81FFFF000
7E0003FFF007FFE000
7E0001FFE003FF8000
3F00007F0000300000
3F0000000000000000
3F8000000000000000
1F8000000000000000
1FC000000000000000
0FE000000000000000
0FF000000000000000
07F800000000000000
03FC00000000000000
03FE00000000000000
01FF80000000000000
00FFE0000000000000
007FFC000000000000
001FFFF80000000000
000FFFFFFFFFF00000
0003FFFFFFFFF00000
0000FFFFFFFFF00000
00001FFFFFFFE00000
000000FFFFFFE00000
ENDCHAR
STARTCHAR 0041
ENCODING 65
SWIDTH 668 0
DWIDTH 52 0
BBX 47 54 3 0
BITMAP
00000007F000
0000000FF000
0000000FF800
0000001FF800
0000001FF800
0000003FF800
0000003FF800
0000007FFC00
0000007EFC00
000000FCFC00
000000FCFC00
000001F8FC00
000003F8FE00
000003F07E00
000007F07E00
000007E07E00
00000FE07E00
00000FC07F00
00001FC07F00
00001F803F00
00003F803F00
00003F003F00
00007E003F80
0000FE003F80
0000FC001F80
0001FC001F80
0001F8001FC0
0003F8001FC0
0003F0001FC0
0007F0000FC0
0007E0000FC0
000FE0000FE0
000FC0000FE0
001FFFFFFFE0
003FFFFFFFE0
003FFFFFFFE0
007FFFFFFFF0
007FFFFFFFF0
00FE000007F0
00FC000003F0
01FC000003F0
01F8000003F8
03F8000003F8
03F0000003F8
07F0000001F8
0FE0000001F8
0FE0000001FC
1FC0000001FC
1FC0000001FC
3F80000000FC
3F80000000FE
7F00000000FE
7E00000000FE
FE00000000FE
ENDCHAR
STARTCHAR 0042
ENCODING 66
SWIDTH 617 0
DWIDTH 48 0
BBX 44 54 6 0
BITMAP
007FFFFFF800
007FFFFFFE00
007FFFFFFF80
00FFFFFFFFC0
00FFFFFFFFC0
00FE0003FFE0
00FC00003FE0
00FC00000FF0
00FC00000FF0
01FC000007F0
01FC000007F0
01FC000007F0
01F8000007F0
01F8000007F0
01F8000007F0
03F8000007E0
03F8000007E0
03F800000FE0
03F000001FC0
03F000001F80
03F000003F00
07F00000FE00
07F00003FC00
07FFFFFFF800
07FFFFFFE000
07FFFFFF8000
0FFFFFFFF000
0FFFFFFFFC00
0FFFFFFFFE00
0FE00001FF00
0FC000007F80
0FC000003F80
1FC000001FC0
1FC000001FC0
1FC000000FC0
1F8000000FC0
1F8000000FC0
1F8000000FC0
3F8000000FC0
3F8000001FC0
3F8000001FC0
3F0000001F80
3F0000003F80
3F0000007F80
7F0000007F00
7F000001FE00
7F000003FE00
7E00000FFC00
7FFFFFFFF800
7FFFFFFFF000
FFFFFFFFE000
FFFFFFFF8000
FFFFFFFE0000
FFFFFFE00000
ENDCHAR
STARTCHAR 0043
ENCODING 67
SWIDTH 707 0
DWIDTH 55 0
BBX 50 57 8 -1
BITMAP
00000007000000
000003FFFC0000
00000FFFFF0000
00003FFFFFC000
0000FFFFFFE000
0003FFFFFFF000
0007FFFBFFF800
000FFE001FFC00
001FF80007FE00
003FE00001FF00
007FC00000FF00
00FF0000007F00
01FE0000007F80
01FC0000003F80
03FC0000003F80
07F80000001FC0
07F00000001FC0
0FF00000001FC0
0FE00000001FC0
1FE00000000FC0
1FC00000000000
1FC00000000000
3F800000000000
3F800000000000
3F800000000000
7F000000000000
7F000000000000
7F000000000000
7F000000000000
7F000000000000
7F000000000000
FF000000000000
FE000000000000
FE000000000000
FE000000000000
FE000000000000
FE000000000000
FF000000000000
FF000000000000
7F00000001FC00
7F00000001FC00
7F00000003F800
7F80000007F800
3F80000007F000
3FC000000FE000
3FC000001FE000
1FE000007FC000
1FF00000FF8000
0FFC0003FF0000
07FF000FFE0000
07FFFFFFFC0000
03FFFFFFF00000
01FFFFFFE00000
007FFFFF800000
001FFFFE000000
0007FFF0000000
00002A00000000
ENDCHAR
STARTCHAR 0044
ENCODING 68
SWIDTH 681 0
DWIDTH 53 0
BBX 49 54 6 0
BITMAP
007FFFFFF00000
007FFFFFFE0000
007FFFFFFF8000
00FFFFFFFFC000
00FFFFFFFFE000
00FFFFFFFFF000
00FC00007FF800
00FC00001FFC00
00FC000007FE00
01FC000003FE00
01FC000001FF00
01FC000000FF00
01F8000000FF00
01F80000007F80
01F80000007F80
03F80000007F80
03F80000003F80
03F80000003F80
03F00000003F80
03F00000003F80
03F00000003F80
07F00000003F80
07F00000003F80
07F00000003F80
07E00000003F80
07E00000003F80
0FE00000003F80
0FE00000003F80
0FE00000007F00
0FE00000007F00
0FC00000007F00
0FC00000007F00
1FC0000000FE00
1FC0000000FE00
1FC0000001FE00
1F80000001FC00
1F80000003FC00
1F80000003F800
3F80000007F800
3F8000000FF000
3F8000000FF000
3F0000001FE000
3F0000003FC000
3F000000FF8000
7F000001FF8000
7F000007FF0000
7F00001FFE0000
7E0001FFFC0000
7FFFFFFFF00000
7FFFFFFFE00000
FFFFFFFF800000
FFFFFFFE000000
FFFFFFF8000000
FFFFFF80000000
ENDCHAR
STARTCHAR 0045
ENCODING 69
SWIDTH 565 0
DWIDTH 44 0
BBX 42 54 6 0
BITMAP
007FFFFFFFC0
007FFFFFFFC0
007FFFFFFFC0
00FFFFFFFFC0
00FFFFFFFFC0
00FFFFFFFFC0
00FE00000000
00FE00000000
00FC00000000
01FC00000000
01FC00000000
01FC00000000
01FC00000000
01FC00000000
01F800000000
03F800000000
03F800000000
03F800000000
03F800000000
03F800000000
03F000000000
07F000000000
07F000000000
07F000000000
07FFFFFFE000
07FFFFFFE000
0FFFFFFFE000
0FFFFFFFE000
0FFFFFFFC000
0FE000000000
0FE000000000
0FC000000000
1FC000000000
1FC000000000
1FC000000000
1FC000000000
1FC000000000
1F8000000000
3F8000000000
3F8000000000
3F8000000000
3F8000000000
3F8000000000
3F0000000000
7F0000000000
7F0000000000
7F0000000000
7F0000000000
7FFFFFFFC000
7FFFFFFFC000
FFFFFFFFC000
FFFFFFFFC000
FFFFFFFFC000
FFFFFFFF8000
ENDCHAR
STARTCHAR 0046
ENCODING 70
SWIDTH 514 0
DWIDTH 40 0
BBX 41 54 6 0
BITMAP
007FFFFFFF80
007FFFFFFF80
007FFFFFFF80
00FFFFFFFF80
00FFFFFFFF80
00FFFFFFFF80
00FE00000000
00FE00000000
00FC00000000
01FC00000000
01FC00000000
01FC00000000
01FC00000000
01FC00000000
01F800000000
03F800000000
03F800000000
03F800000000
03F800000000
03F800000000
03F000000000
07F000000000
07F000000000
07F0007FE000
07FFFFFFC000
07FFFFFFC000
0FFFFFFFC000
0FFFFFFFC000
0FFFFFFFC000
0FE000000000
0FE000000000
0FC000000000
1FC000000000
1FC000000000
1FC000000000
1FC000000000
1FC000000000
1F8000000000
3F8000000000
3F8000000000
3F8000000000
3F8000000000
3F8000000000
3F0000000000
7F0000000000
7F0000000000
7F0000000000
7F0000000000
7F0000000000
7E0000000000
FE0000000000
FE0000000000
FE0000000000
FE0000000000
ENDCHAR
STARTCHAR 0047
ENCODING 71
SWIDTH 707 0
DWIDTH 55 0
BBX 49 57 8 -1
BITMAP
0000000E000000
000003FFF80000
00001FFFFF0000
00007FFFFFC000
0000FFFFFFE000
0003FFFFFFF000
0007FFFFFFF800
000FFE001FFC00
001FF80007FC00
003FE00003FE00
007F800001FE00
00FF000000FF00
01FE0000007F00
01FC0000007F00
03F80000003F80
07F80000003F80
07F00000003F80
0FE00000003F80
0FE00000000000
1FC00000000000
1FC00000000000
1F800000000000
3F800000000000
3F800000000000
3F800000000000
7F000000000000
7F000000000000
7F000000000000
7F00003FFFFF00
7E00003FFFFE00
FE00003FFFFE00
FE00003FFFFE00
FE00007FFFFE00
FE00000000FE00
FE00000000FE00
FE00000000FC00
FE00000000FC00
FE00000001FC00
FE00000001FC00
7E00000001FC00
7F00000003F800
7F00000003F800
7F00000007F800
7F8000000FF800
3F8000000FF800
3FC000001FF800
1FE000003FF000
1FF00000FDF000
0FF80001F9F000
0FFE0007F1F000
07FFC07FE3F000
03FFFFFFC3F000
01FFFFFF83E000
00FFFFFF03E000
003FFFFC03E000
000FFFF003E000
00005C00000000
ENDCHAR
STARTCHAR 0048
ENCODING 72
SWIDTH 668 0
DWIDTH 52 0
BBX 50 54 6 0
BITMAP
007F0000001FC0
007E0000001FC0
007E0000001FC0
00FE0000001FC0
00FE0000001F80
00FE0000003F80
00FE0000003F80
00FC0000003F80
00FC0000003F80
01FC0000003F80
01FC0000003F00
01FC0000007F00
01FC0000007F00
01F80000007F00
01F80000007F00
03F80000007F00
03F80000007E00
03F8000000FE00
03F8000000FE00
03F0000000FE00
03F0000000FE00
07F0000000FE00
07F0000000FC00
07F0000001FC00
07FFFFFFFFFC00
07FFFFFFFFFC00
0FFFFFFFFFFC00
0FFFFFFFFFFC00
0FFFFFFFFFF800
0FE0000003F800
0FE0000003F800
0FC0000003F800
1FC0000003F800
1FC0000003F000
1FC0000003F000
1FC0000007F000
1FC0000007F000
1F80000007F000
3F80000007F000
3F80000007E000
3F8000000FE000
3F8000000FE000
3F0000000FE000
3F0000000FE000
7F0000000FE000
7F0000000FC000
7F0000001FC000
7F0000001FC000
7E0000001FC000
7E0000001FC000
FE0000001FC000
FE0000001F8000
FE0000003F8000
FE0000003F8000
ENDCHAR
STARTCHAR 0049
ENCODING 73
SWIDTH 231 0
DWIDTH 18 0
BBX 16 54 6 0
BITMAP
007F
007F
007F
007E
00FE
00FE
00FE
00FE
00FE
00FC
01FC
01FC
01FC
01FC
01FC
01F8
03F8
03F8
03F8
03F8
03F8
03F0
07F0
07F0
07F0
07F0
07F0
07E0
0FE0
0FE0
0FE0
0FE0
0FE0
0FC0
1FC0
1FC0
1FC0
1FC0
1F80
1F80
3F80
3F80
3F80
3F80
3F00
7F00
7F00
7F00
7F00
7F00
7E00
FE00
FE00
FE00
ENDCHAR
STARTCHAR 004A
ENCODING 74
SWIDTH 334 0
DWIDTH 26 0
BBX 25 54 4 0
BITMAP
00001F80
00001F80
00003F80
00003F80
00003F80
00003F80
00003F00
00003F00
00007F00
00007F00
00007F00
00007F00
00007E00
00007E00
0000FE00
0000FE00
0000FE00
0000FE00
0000FC00
0000FC00
0001FC00
0001FC00
0001FC00
0001FC00
0001F800
0003F800
0003F800
0003F800
0003F800
0003F000
0003F000
0007F000
0007F000
0007F000
0007F000
0007E000
0007E000
000FE000
000FE000
000FE000
000FE000
000FC000
000FC000
001FC000
001FC000
001FC000
003F8000
007F8000
00FF0000
7FFF0000
FFFE0000
FFFC0000
FFF80000
FFE00000
ENDCHAR
STARTCHAR 004B
ENCODING 75
SWIDTH 617 0
DWIDTH 48 0
BBX 45 54 6 0
BITMAP
007E000007F8
007E00000FF0
00FE00003FE0
00FE00007FC0
00FE0000FF00
00FE0001FE00
00FC0003FC00
00FC0007F800
01FC000FF000
01FC001FE000
01FC003FC000
01FC007F8000
01F800FF0000
01F801FE0000
03F803FC0000
03F807F80000
03F80FE00000
03F83FC00000
03F07F800000
03F0FF000000
07F1FE000000
07F3FC000000
07F7F8000000
07FFF8000000
07FFF8000000
0FFFFC000000
0FFFFC000000
0FFFFE000000
0FFEFF000000
0FFCFF000000
0FF87F800000
1FE07F800000
1FC03FC00000
1FC01FC00000
1FC01FE00000
1FC00FF00000
1F800FF00000
3F8007F80000
3F8007F80000
3F8003FC0000
3F8001FC0000
3F8001FE0000
3F0000FF0000
7F0000FF0000
7F00007F8000
7F00007F8000
7F00003FC000
7F00001FC000
7E00001FE000
FE00000FF000
FE00000FF000
FE000007F800
FE000007F800
FC000003FC00
ENDCHAR
STARTCHAR 004C
ENCODING 76
SWIDTH 527 0
DWIDTH 41 0
BBX 33 54 6 0
BITMAP
007F000000
007F000000
007E000000
00FE000000
00FE000000
00FE000000
00FE000000
00FE000000
00FC000000
01FC000000
01FC000000
01FC000000
01FC000000
01F8000000
01F8000000
03F8000000
03F8000000
03F8000000
03F8000000
03F0000000
03F0000000
07F0000000
07F0000000
07F0000000
07F0000000
07E0000000
0FE0000000
0FE0000000
0FE0000000
0FE0000000
0FE0000000
0FC0000000
1FC0000000
1FC0000000
1FC0000000
1FC0000000
1FC0000000
1F80000000
3F80000000
3F80000000
3F80000000
3F80000000
3F00000000
3F00000000
7F00000000
7F00000000
7F00000000
7F00000000
7FFFFFFF80
7FFFFFFF80
FFFFFFFF80
FFFFFFFF00
FFFFFFFF00
FFFFFFFF00
ENDCHAR
STARTCHAR 004D
ENCODING 77
SWIDTH 822 0
DWIDTH 64 0
BBX 61 54 6 0
BITMAP
007FE00000001FF8
007FE00000003FF8
007FF00000003FF8
00FFF00000007FF8
00FFF00000007FF8
00FFF0000000FFF0
00FFF0000000FFF0
00FFF8000001FFF0
00FFF8000001FFF0
01FFF8000003FFF0
01FFF8000007F7F0
01FDFC000007F7E0
01FDFC00000FE7E0
01F9FC00000FEFE0
01F9FC00001FCFE0
03F9FC00001FCFE0
03F8FE00003F8FE0
03F8FE00007F8FC0
03F8FE00007F0FC0
03F0FE0000FE1FC0
03F07F0000FE1FC0
07F07F0001FC1FC0
07F07F0001FC1FC0
07F07F0003F81F80
07E07F0003F81F80
07E03F8007F03F80
0FE03F800FF03F80
0FE03F800FE03F80
0FE03F801FE03F80
0FE03F801FC03F00
0FC01FC03F803F00
0FC01FC03F807F00
1FC01FC07F007F00
1FC01FC07F007F00
1FC01FE0FE007F00
1FC00FE1FE007E00
1F800FE1FC007E00
1F800FE3FC00FE00
3F800FE3F800FE00
3F8007F7F000FE00
3F8007F7F000FE00
3F8007FFE000FC00
3F0007FFE000FC00
3F0007FFC001FC00
7F0003FFC001FC00
7F0003FF8001FC00
7F0003FF8001F800
7F0003FF0001F800
7E0003FE0003F800
7E0001FE0003F800
FE0001FC0003F800
FE0001FC0003F800
FE0001F80003F000
FE0001F80003F000
ENDCHAR
STARTCHAR 004E
ENCODING 78
SWIDTH 707 0
DWIDTH 55 0
BBX 53 54 6 0
BITMAP
007F80000003F8
007FC0000003F0
007FC0000003F0
00FFE0000007F0
00FFE0000007F0
00FFF0000007F0
00FFF0000007F0
00FFF8000007E0
00FFF8000007E0
01FFFC00000FE0
01FFFC00000FE0
01FFFE00000FE0
01FDFE00000FE0
01F9FF00000FC0
01F8FF00000FC0
03F8FF80001FC0
03F87F80001FC0
03F87FC0001FC0
03F83FC0001FC0
03F03FE0001F80
03F01FE0003F80
07F01FF0003F80
07F00FF0003F80
07F00FF8003F80
07F007F8003F80
07E007FC003F00
0FE003FC007F00
0FE003FE007F00
0FE001FE007F00
0FE001FF007F00
0FC000FF007E00
0FC0007F007E00
1FC0007F80FE00
1FC0003F80FE00
1FC0003FC0FE00
1FC0001FC0FE00
1F80001FE0FC00
1F80000FE0FC00
3F80000FF1FC00
3F800007F1FC00
3F800007F9FC00
3F800003F9FC00
3F000003FDF800
3F000001FFF800
7F000001FFF800
7F000000FFF800
7F000000FFF800
7F0000007FF800
7E0000007FF000
7E0000003FF000
FE0000003FF000
FE0000001FF000
FE0000001FF000
FE0000000FF000
ENDCHAR
STARTCHAR 004F
ENCODING 79
SWIDTH 732 0
DWIDTH 57 0
BBX 50 57 8 -1
BITMAP
00000006000000
000003FFFC0000
00001FFFFF0000
00007FFFFFC000
0000FFFFFFE000
0003FFFFFFF000
0007FFFFFFF800
000FFE001FFC00
001FF80007FE00
003FE00003FE00
007FC00001FF00
00FF000000FF00
01FE0000007F80
03FC0000007F80
03FC0000003F80
07F80000003FC0
07F00000003FC0
0FF00000001FC0
0FE00000001FC0
1FE00000001FC0
1FC00000001FC0
3FC00000001FC0
3F800000001FC0
3F800000001FC0
7F800000001FC0
7F000000001FC0
7F000000001FC0
7F000000001FC0
7F000000001FC0
FF000000001FC0
FE000000003F80
FE000000003F80
FE000000003F80
FE000000003F80
FE000000007F00
FE000000007F00
FE00000000FF00
FE00000000FE00
FF00000001FE00
FF00000001FC00
7F00000003FC00
7F00000007F800
7F80000007F800
7F8000000FF000
3FC000001FE000
3FE000003FE000
3FE000007FC000
1FF80001FF8000
0FFC0007FF0000
0FFF001FFE0000
07FFFFFFFC0000
03FFFFFFF00000
01FFFFFFE00000
007FFFFF800000
003FFFFE000000
0007FFF0000000
00000800000000
ENDCHAR
STARTCHAR 0050
ENCODING 80
SWIDTH 578 0
DWIDTH 45 0
BBX 44 54 6 0
BITMAP
007FFFFFE000
007FFFFFF800
007FFFFFFE00
00FFFFFFFF00
00FFFFFFFF80
00FFFFFFFF80
00FC0001FFC0
00FC00003FC0
00FC00001FE0
01FC00000FE0
01FC00000FE0
01FC000007F0
01F8000007F0
01F8000007F0
01F8000007F0
03F8000007F0
03F8000007F0
03F8000007E0
03F0000007E0
03F000000FE0
03F000000FE0
07F000000FC0
07F000001FC0
07F000001FC0
07E000003F80
07E000007F00
0FE00000FF00
0FE00003FE00
0FE0000FFC00
0FFFFFFFF800
0FFFFFFFF000
0FFFFFFFE000
1FFFFFFF8000
1FFFFFFE0000
1FFFFFF00000
1FC000000000
1F8000000000
1F8000000000
3F8000000000
3F8000000000
3F8000000000
3F0000000000
3F0000000000
3F0000000000
7F0000000000
7F0000000000
7F0000000000
7E0000000000
7E0000000000
7E0000000000
FE0000000000
FE0000000000
FE0000000000
FC0000000000
ENDCHAR
STARTCHAR 0051
ENCODING 81
SWIDTH 720 0
DWIDTH 56 0
BBX 50 60 8 -4
BITMAP
00000006000000
000003FFFC0000
00001FFFFF0000
00007FFFFFC000
0000FFFFFFE000
0003FFFFFFF000
0007FFFFFFF800
000FFE001FFC00
001FF80007FE00
003FE00003FE00
007FC00001FF00
00FF000000FF00
01FE0000007F80
03FC0000007F80
03FC0000003F80
07F80000003FC0
07F00000003FC0
0FF00000001FC0
0FE00000001FC0
1FE00000001FC0
1FC00000001FC0
3FC00000001FC0
3F800000001FC0
3F800000001FC0
7F800000001FC0
7F000000001FC0
7F000000001FC0
7F000000001FC0
7F000000001FC0
FF000000001FC0
FE000000003F80
FE000000003F80
FE000000003F80
FE000000007F80
FE000000007F00
FE0007F0007F00
FE0003F000FF00
FE0003F800FE00
FF0001F801FE00
FF0000FC01FC00
7F0000FE03FC00
7F00007E07F800
7F80007F07F800
7F80003F0FF000
3FC0001F9FE000
3FE0001FFFE000
3FE0000FFFC000
1FF8000FFF8000
0FFC0007FF0000
0FFF001FFE0000
07FFFFFFFC0000
03FFFFFFF80000
01FFFFFFFC0000
007FFFFFFE0000
003FFFFE7E0000
0007FFF07F0000
000008003F0000
000000001F8000
000000001FC000
000000000FC000
ENDCHAR
STARTCHAR 0052
ENCODING 82
SWIDTH 604 0
DWIDTH 47 0
BBX 44 54 6 0
BITMAP
007FFFFFE000
007FFFFFF800
007FFFFFFE00
00FFFFFFFF00
00FFFFFFFF80
00FFFFFFFFC0
00FE0000FFC0
00FC00003FE0
00FC00001FE0
01FC00000FF0
01FC000007F0
01FC000007F0
01FC000007F0
01F8000007F0
01F8000007F0
03F8000007F0
03F8000007F0
03F8000007E0
03F800000FE0
03F000000FE0
03F000000FC0
07F000001FC0
07F000003F80
07F000007F80
07F00001FF00
07E00007FE00
0FE001FFFC00
0FFFFFFFF800
0FFFFFFFF000
0FFFFFFFC000
0FFFFFFF0000
0FFFFFF80000
1FC00FE00000
1FC007F00000
1FC007F00000
1FC003F80000
1F8003F80000
1F8003FC0000
3F8001FC0000
3F8001FE0000
3F8000FE0000
3F8000FF0000
3F00007F0000
3F00007F8000
7F00003F8000
7F00003FC000
7F00001FC000
7F00001FE000
7E00000FE000
7E00000FE000
FE000007F000
FE000007F000
FE000003F800
FE000003F800
ENDCHAR
STARTCHAR 0053
ENCODING 83
SWIDTH 591 0
DWIDTH 46 0
BBX 43 57 6 -1
BITMAP
000000F80000
00001FFFC000
00007FFFF000
0001FFFFF800
0007FFFFFE00
000FFFFFFF00
001FFF0FFF00
003FF001FF80
007FC0007FC0
007F80003FC0
00FF00003FC0
00FE00001FE0
01FC00001FE0
01FC00001FE0
03F800001FE0
03F800000FE0
03F800000FE0
03F800000000
03F800000000
03F800000000
03FC00000000
03FC00000000
01FF00000000
01FF80000000
00FFF8000000
00FFFFC00000
007FFFFC0000
001FFFFF0000
000FFFFFC000
0001FFFFF000
00001FFFF800
000000FFFC00
0000000FFC00
00000003FE00
00000001FE00
00000000FE00
00000000FF00
00000000FF00
FF000000FF00
FF000000FF00
FF000000FE00
FF000000FE00
7F000000FE00
7F800001FE00
7F800001FC00
7F800003FC00
7FC00007F800
3FE0000FF800
3FF0001FF000
1FF800FFE000
0FFFFFFFC000
0FFFFFFF8000
07FFFFFF0000
01FFFFFC0000
00FFFFF00000
003FFF800000
0001F8000000
ENDCHAR
STARTCHAR 0054
ENCODING 84
SWIDTH 578 0
DWIDTH 45 0
BBX 39 54 12 0
BITMAP
7FFFFFFFFE
FFFFFFFFFE
FFFFFFFFFE
FFFFFFFFFE
FFFFFFFFFE
FFFFFFFFFE
0000FC0000
0001FC0000
0001FC0000
0001FC0000
0001FC0000
0001F80000
0001F80000
0003F80000
0003F80000
0003F80000
0003F80000
0003F00000
0003F00000
0007F00000
0007F00000
0007F00000
0007F00000
0007E00000
0007E00000
000FE00000
000FE00000
000FE00000
000FE00000
000FC00000
000FC00000
001FC00000
001FC00000
001FC00000
001FC00000
001F800000
003F800000
003F800000
003F800000
003F800000
003F800000
003F000000
007F000000
007F000000
007F000000
007F000000
007F000000
007E000000
00FE000000
00FE000000
00FE000000
00FE000000
00FC000000
00FC000000
ENDCHAR
STARTCHAR 0055
ENCODING 85
SWIDTH 681 0
DWIDTH 53 0
BBX 48 55 9 -1
BITMAP
07F00000003F
07F00000007F
07F00000007F
07E00000007F
07E00000007F
0FE00000007E
0FE00000007E
0FE0000000FE
0FC0000000FE
0FC0000000FE
0FC0000000FE
1FC0000000FC
1FC0000000FC
1FC0000001FC
1F80000001FC
1F80000001FC
3F80000001FC
3F80000001F8
3F80000001F8
3F80000003F8
3F00000003F8
3F00000003F8
7F00000003F8
7F00000003F0
7F00000007F0
7F00000007F0
7E00000007F0
7E00000007F0
FE00000007E0
FE00000007E0
FE0000000FE0
FE0000000FE0
FC0000000FE0
FC0000000FC0
FC0000001FC0
FC0000001FC0
FC0000001FC0
FC0000003F80
FC0000003F80
FE0000007F00
FE0000007F00
FE000000FF00
FF000001FE00
FF000001FC00
7F800003FC00
7FC0000FF800
3FE0001FF000
3FF800FFE000
1FFFFFFFC000
0FFFFFFF8000
07FFFFFF0000
03FFFFFC0000
01FFFFF00000
003FFFC00000
0001F0000000
ENDCHAR
STARTCHAR 0056
ENCODING 86
SWIDTH 630 0
DWIDTH 49 0
BBX 46 54 11 0
BITMAP
FC00000001FC
FE00000001F8
FE00000003F8
FE00000003F0
FE00000007F0
FE00000007E0
7E0000000FE0
7F0000000FC0
7F0000001FC0
7F0000003F80
7F0000003F80
7F0000007F00
3F0000007F00
3F800000FE00
3F800000FE00
3F800001FC00
3F800001FC00
1F800003F800
1FC00003F800
1FC00007F000
1FC00007F000
1FC0000FE000
1FC0000FE000
0FC0001FC000
0FE0001FC000
0FE0003F8000
0FE0003F8000
0FE0007F0000
0FE0007E0000
07E000FE0000
07F000FC0000
07F001FC0000
07F001F80000
07F003F80000
03F003F00000
03F007F00000
03F807E00000
03F80FE00000
03F81FC00000
03F81FC00000
01F83F800000
01FC3F800000
01FC7F000000
01FC7F000000
01FCFE000000
01FCFE000000
00FDFC000000
00FFFC000000
00FFF8000000
00FFF8000000
00FFF0000000
007FF0000000
007FE0000000
007FE0000000
ENDCHAR
STARTCHAR 0057
ENCODING 87
SWIDTH 990 0
DWIDTH 77 0
BBX 74 54 11 0
BITMAP
FC0000007F0000001FC0
FC0000007F0000001F80
FC000000FF0000003F80
FC000000FF8000003F80
FE000001FF8000007F00
FE000001FF8000007F00
FE000003FF8000007E00
FE000003FF800000FE00
FE000007FF800000FC00
FE000007FF800001FC00
FE00000FFFC00001FC00
7E00000FFFC00003F800
7E00001FDFC00003F800
7E00001FCFC00003F000
7E00003F8FC00007F000
7F00003F8FC00007E000
7F00007F0FE0000FE000
7F00007F0FE0000FC000
7F0000FE0FE0001FC000
7F0000FE0FE0001FC000
7F0001FC07E0001F8000
3F0001FC07E0003F8000
3F0003F807E0003F0000
3F0003F807F0007F0000
3F0007F007F0007E0000
3F0007F007F000FE0000
3F000FE007F000FE0000
3F800FE003F001FC0000
3F801FC003F001FC0000
3F801FC003F801F80000
3F803F8003F803F80000
1F803F8003F803F00000
1F807F0003F807F00000
1F807F0001F807E00000
1F80FE0001F80FE00000
1F80FE0001F80FE00000
1F81FC0001FC0FC00000
1F81FC0001FC1FC00000
1FC3F80001FC1F800000
1FC3F80001FC3F800000
1FC7F00000FC3F000000
0FC7F00000FC7F000000
0FCFE00000FE7F000000
0FCFE00000FE7E000000
0FDFC00000FEFE000000
0FDFC00000FEFC000000
0FFF800000FFFC000000
0FFF8000007FF8000000
0FFF0000007FF8000000
0FFF0000007FF0000000
0FFE0000007FF0000000
0FFE0000007FF0000000
07FC0000007FE0000000
07FC0000007FE0000000
ENDCHAR
STARTCHAR 0058
ENCODING 88
SWIDTH 655 0
DWIDTH 51 0
BBX 53 54 4 0
BITMAP
007F00000007F8
007F8000000FF0
003F8000001FE0
003FC000001FC0
001FC000003F80
001FE000007F80
000FE00000FF00
000FF00001FE00
0007F00001FC00
0007F80003F800
0003F80007F000
0003FC000FF000
0001FC001FE000
0001FE003FC000
0000FE003F8000
0000FF007F0000
00007F00FE0000
00007F81FE0000
00003F83FC0000
00003FC7F80000
00001FC7F00000
00001FEFE00000
00000FFFC00000
00000FFFC00000
000007FF800000
000007FF000000
000003FE000000
000007FE000000
00000FFF000000
00000FFF000000
00001FFF800000
00003FFF800000
00007FBFC00000
0000FF1FC00000
0001FE1FE00000
0001FC0FE00000
0003F80FF00000
0007F007F00000
000FF007F80000
001FE003F80000
003FC003FC0000
003F8001FC0000
007F0001FE0000
00FE0000FE0000
01FE0000FF0000
03FC00007F0000
07F800007F8000
07F000003F8000
0FE000003FC000
1FC000001FC000
3FC000001FC000
7F8000001FE000
FF0000000FE000
FE0000000FF000
ENDCHAR
STARTCHAR 0059
ENCODING 89
SWIDTH 604 0
DWIDTH 47 0
BBX 42 54 12 0
BITMAP
FF0000003FC0
7F0000007F80
7F0000007F00
7F800000FE00
3F800001FE00
3F800001FC00
3F800003F800
1FC00007F800
1FC00007F000
1FC0000FE000
0FE0001FE000
0FE0001FC000
0FE0003F8000
07F0007F8000
07F0007F0000
07F000FE0000
03F801FE0000
03F801FC0000
03F803F80000
01FC07F80000
01FC07F00000
01FC0FE00000
00FE1FE00000
00FE1FC00000
00FE3F800000
007F7F000000
007F7F000000
007FFE000000
003FFC000000
003FFC000000
003FF8000000
001FF0000000
001FF0000000
001FE0000000
000FC0000000
000FC0000000
001FC0000000
001FC0000000
001FC0000000
001FC0000000
001F80000000
003F80000000
003F80000000
003F80000000
003F80000000
003F80000000
003F00000000
007F00000000
007F00000000
007F00000000
007F00000000
007F00000000
007E00000000
00FE00000000
ENDCHAR
STARTCHAR 005A
ENCODING 90
SWIDTH 604 0
DWIDTH 47 0
BBX 48 54 4 0
BITMAP
007FFFFFFFFF
007FFFFFFFFE
007FFFFFFFFE
007FFFFFFFFE
00FFFFFFFFFE
00FFFFFFFFFE
0000000003FC
0000000007F8
000000000FF0
000000001FE0
000000001FE0
000000003FC0
000000007F80
00000000FF00
00000001FE00
00000003FC00
00000007F800
0000000FF000
0000001FE000
0000003FC000
0000003FC000
0000007F8000
000000FF0000
000001FE0000
000003FC0000
000007F80000
00000FF00000
00001FE00000
00003FC00000
00007FC00000
00007F800000
0000FF000000
0001FE000000
0003FC000000
0007F8000000
000FF0000000
001FE0000000
003FC0000000
007F80000000
00FF80000000
00FF00000000
01FE00000000
03FC00000000
07F800000000
0FF000000000
1FE000000000
3FC000000000
7F8000000000
7FFFFFFFFE00
7FFFFFFFFE00
7FFFFFFFFE00
FFFFFFFFFE00
FFFFFFFFFE00
FFFFFFFFFE00
ENDCHAR
STARTCHAR 005B
ENCODING 91
SWIDTH 437 0
DWIDTH 34 0
BBX 35 77 4 -14
BITMAP
0007FFFFE0
0007FFFFE0
0007FFFFE0
0007FFFFE0
0007FFFFE0
000FC00000
000FC00000
000FC00000
000F800000
000F800000
000F800000
001F800000
001F800000
001F800000
001F000000
001F000000
001F000000
003F000000
003F000000
003E000000
003E000000
003E000000
007E000000
007E000000
007E000000
007C000000
007C000000
007C000000
00FC000000
00FC000000
00FC000000
00F8000000
00F8000000
00F8000000
01F8000000
01F8000000
01F0000000
01F0000000
01F0000000
03F0000000
03F0000000
03F0000000
03E0000000
03E0000000
03E0000000
07E0000000
07E0000000
07E0000000
07C0000000
07C0000000
07C0000000
0FC0000000
0FC0000000
0F80000000
0F80000000
0F80000000
1F80000000
1F80000000
1F80000000
1F00000000
1F00000000
1F00000000
3F00000000
3F00000000
3F00000000
3E00000000
3E00000000
3E00000000
7E00000000
7E00000000
7C00000000
7C00000000
7FFFFE0000
FFFFFE0000
FFFFFC0000
FFFFFC0000
FFFFFC0000
ENDCHAR
STARTCHAR 005C
ENCODING 92
SWIDTH 501 0
DWIDTH 39 0
BBX 25 74 9 -12
BITMAP
FC000000
FC000000
FE000000
FE000000
7E000000
7E000000
7F000000
7F000000
3F000000
3F000000
3F800000
1F800000
1F800000
1FC00000
1FC00000
0FC00000
0FC00000
0FE00000
0FE00000
07E00000
07E00000
07F00000
07F00000
03F00000
03F00000
03F80000
01F80000
01F80000
01FC0000
01FC0000
00FC0000
00FC0000
00FE0000
00FE0000
007E0000
007E0000
007F0000
007F0000
003F0000
003F0000
003F8000
003F8000
001F8000
001F8000
001FC000
000FC000
000FC000
000FE000
000FE000
0007E000
0007E000
0007F000
0007F000
0003F000
0003F000
0003F800
0003F800
0001F800
0001F800
0001FC00
0001FC00
0000FC00
0000FC00
0000FE00
00007E00
00007E00
00007F00
00007F00
00003F00
00003F00
00003F80
00003F80
00001F80
00001F80
ENDCHAR
STARTCHAR 005D
ENCODING 93
SWIDTH 424 0
DWIDTH 33 0
BBX 36 77 3 -14
BITMAP
0003FFFFF0
0007FFFFF0
0007FFFFE0
0007FFFFE0
0007FFFFE0
00000007E0
00000007E0
00000007C0
00000007C0
00000007C0
0000000FC0
0000000FC0
0000000FC0
0000000F80
0000000F80
0000000F80
0000001F80
0000001F80
0000001F80
0000001F00
0000001F00
0000001F00
0000003F00
0000003F00
0000003E00
0000003E00
0000003E00
0000007E00
0000007E00
0000007E00
0000007C00
0000007C00
0000007C00
000000FC00
000000FC00
000000FC00
000000F800
000000F800
000000F800
000001F800
000001F800
000001F000
000001F000
000001F000
000003F000
000003F000
000003F000
000003E000
000003E000
000003E000
000007E000
000007E000
000007E000
000007C000
000007C000
000007C000
00000FC000
00000FC000
00000F8000
00000F8000
00000F8000
00001F8000
00001F8000
00001F8000
00001F0000
00001F0000
00001F0000
00003F0000
00003F0000
00003F0000
00003E0000
00003E0000
7FFFFE0000
7FFFFE0000
7FFFFE0000
FFFFFC0000
FFFFFC0000
ENDCHAR
STARTCHAR 005E
ENCODING 94
SWIDTH 411 0
DWIDTH 32 0
BBX 27 15 10 44
BITMAP
000FF000
001FF800
003FF800
007FFC00
007EFC00
00FCFE00
01F87E00
03F07F00
07E03F80
0FE01F80
1FC01FC0
3F800FC0
7F000FE0
FE0007E0
FC0007E0
ENDCHAR
STARTCHAR 005F
ENCODING 95
SWIDTH 694 0
DWIDTH 54 0
BBX 38 6 9 0
BITMAP
FFFFFFFFFC
FFFFFFFFFC
FFFFFFFFFC
FFFFFFFFFC
FFFFFFFFFC
FFFFFFFFF8
ENDCHAR
STARTCHAR 0060
ENCODING 96
SWIDTH 244 0
DWIDTH 19 0
BBX 12 14 13 48
BITMAP
FE00
7F00
7F00
3F80
3F80
1F80
1FC0
0FC0
0FC0
07E0
07E0
03F0
03F0
01F0
ENDCHAR
STARTCHAR 0061
ENCODING 97
SWIDTH 604 0
DWIDTH 47 0
BBX 42 43 6 -1
BITMAP
00007FC00000
0003FFF80FC0
000FFFFC0FC0
001FFFFE1FC0
007FFFFF1FC0
00FFFFFF1FC0
01FFC01F9FC0
03FF0007DF80
03FC0003DF80
07F80001FF80
0FF00001FF80
0FE00000FF80
1FE00000FF80
1FC00000FF00
3FC00000FF00
3F800000FF00
3F8000007F00
7F0000007F00
7F0000007F00
7F000000FE00
7F000000FE00
FE000000FE00
FE000000FE00
FE000000FE00
FE000001FE00
FE000001FC00
FE000001FC00
FE000003FC00
FE000003FC00
FF000007FC00
FF00000FFC00
7F00000FF800
7F80001FF800
7F80003FF800
7FC000FBF800
3FF001F3F800
3FFC0FE3F800
1FFFFFC3F000
0FFFFF87F000
07FFFF07F000
03FFFC07F000
00FFF007F000
000B00000000
ENDCHAR
STARTCHAR 0062
ENCODING 98
SWIDTH 617 0
DWIDTH 48 0
BBX 42 59 6 -1
BITMAP
003F00000000
007F00000000
007F00000000
007F00000000
007F00000000
007E00000000
007E00000000
00FE00000000
00FE00000000
00FE00000000
00FE00000000
00FC00000000
00FC00000000
01FC00000000
01FC00000000
01FC00000000
01FC01FF8000
01F807FFE000
03F81FFFF800
03F87FFFFC00
03F8FFFFFE00
03F9FFFFFF00
03FBF803FF00
03F3E001FF80
07F78000FF80
07FF00007F80
07FE00003FC0
07FC00003FC0
07F800001FC0
07F800001FC0
0FF000001FC0
0FF000001FC0
0FE000001FC0
0FE000001FC0
0FE000001FC0
0FE000001FC0
1FC000001FC0
1FC000001FC0
1FC000001FC0
1FC000001F80
1FC000003F80
1FC000003F80
3FC000003F80
3FC000007F00
3FC000007F00
3FC00000FE00
3FE00001FE00
3FE00001FC00
7FF00003FC00
7FF00007F800
7F78001FF000
7F7E003FE000
7E3F83FFE000
FE3FFFFFC000
FE1FFFFF0000
FE0FFFFE0000
FE07FFF80000
FE01FFE00000
00000C000000
ENDCHAR
STARTCHAR 0063
ENCODING 99
SWIDTH 552 0
DWIDTH 43 0
BBX 39 43 6 -1
BITMAP
00003FF000
0001FFFE00
0007FFFF80
001FFFFFC0
003FFFFFE0
007FFFFFF0
00FFC01FF8
01FF0007F8
03FC0003FC
07F80001FC
07F00001FC
0FE00000FC
1FE00000FE
1FC00000FE
3F800000FE
3F800000FE
3F80000000
7F00000000
7F00000000
7F00000000
7E00000000
FE00000000
FE00000000
FE00000000
FE00000000
FE00000000
FE00000000
FE000003F8
FE000003F0
FE000007F0
7F000007E0
7F00000FE0
7F80001FC0
3F80003FC0
3FC0007F80
1FF001FF00
1FFC07FE00
0FFFFFFC00
07FFFFF800
03FFFFF000
01FFFFC000
003FFE0000
0002800000
ENDCHAR
STARTCHAR 0064
ENCODING 100
SWIDTH 604 0
DWIDTH 47 0
BBX 45 59 6 -1
BITMAP
0000000001F8
0000000003F8
0000000003F8
0000000003F8
0000000003F8
0000000003F8
0000000003F0
0000000007F0
0000000007F0
0000000007F0
0000000007F0
0000000007F0
0000000007E0
000000000FE0
000000000FE0
000000000FE0
00007FC00FE0
0003FFF80FE0
000FFFFC0FC0
001FFFFE1FC0
007FFFFF1FC0
00FFFFFF9FC0
01FFC01F9FC0
01FF0007DFC0
03FE0003DF80
07F80003FF80
0FF00001FF80
0FF00000FF80
1FE00000FF80
1FC00000FF00
3FC00000FF00
3F800000FF00
3F8000007F00
7F0000007F00
7F0000007F00
7F000000FE00
7F000000FE00
FE000000FE00
FE000000FE00
FE000000FE00
FE000001FE00
FE000001FC00
FE000001FC00
FE000003FC00
FE000003FC00
FF000007FC00
FF000007FC00
7F00000FF800
7F80001FF800
7F80003FF800
3FC0007BF800
3FF001F3F800
1FFC0FF3F800
1FFFFFE3F000
0FFFFF87F000
07FFFF07F000
03FFFC07F000
00FFF007F000
000300000000
ENDCHAR
STARTCHAR 0065
ENCODING 101
SWIDTH 552 0
DWIDTH 43 0
BBX 38 42 6 0
BITMAP
00007FFE00
0001FFFF80
000FFFFFE0
001FFFFFF0
003FFFFFF0
00FFE00FF8
01FF0003FC
03FC0001FC
03F80001FC
07F00000FC
0FE00000FC
0FE00000FC
1FC00000FC
1F800000FC
3F800001FC
3F800003F8
7F000007F8
7F00001FF0
7FFFFFFFE0
7FFFFFFFC0
7FFFFFFF80
FFFFFFFE00
FFFFFFE000
FE00000000
FE00000000
FE00000000
FE00000000
FE00000000
7E00000000
7E000007F0
7F000007F0
7F00000FE0
3F80001FC0
3FC0003FC0
3FE0007F80
1FF001FF00
0FFF1FFE00
07FFFFFC00
03FFFFF800
01FFFFE000
00FFFF8000
001FFE0000
ENDCHAR
STARTCHAR 0066
ENCODING 102
SWIDTH 372 0
DWIDTH 29 0
BBX 38 76 -3 -19
BITMAP
0000001FFC
0000007FFC
000000FFFC
000001FFFC
000003FFFC
000003FC00
000007F800
000007F000
000007F000
00000FE000
00000FE000
00000FE000
00000FE000
00000FE000
00000FC000
00001FC000
0003FFFFF0
0007FFFFF0
0007FFFFE0
0007FFFFE0
0007FFFFE0
00003F8000
00003F8000
00003F8000
00003F8000
00003F0000
00007F0000
00007F0000
00007F0000
00007F0000
00007F0000
00007E0000
0000FE0000
0000FE0000
0000FE0000
0000FE0000
0000FE0000
0000FC0000
0001FC0000
0001FC0000
0001FC0000
0001FC0000
0001FC0000
0001F80000
0003F80000
0003F80000
0003F80000
0003F80000
0003F80000
0003F00000
0007F00000
0007F00000
0007F00000
0007F00000
0007E00000
000FE00000
000FE00000
000FE00000
000FE00000
000FE00000
000FC00000
001FC00000
001FC00000
001FC00000
001FC00000
001FC00000
003F800000
003F800000
003F800000
007F000000
01FF000000
FFFE000000
FFFC000000
FFF8000000
FFF0000000
FF80000000
ENDCHAR
STARTCHAR 0067
ENCODING 103
SWIDTH 604 0
DWIDTH 47 0
BBX 42 58 6 -16
BITMAP
0000FFC00000
0003FFF00FC0
000FFFFC0FC0
003FFFFE1FC0
007FFFFF1FC0
00FFFFFF1FC0
01FFC01F9FC0
03FF00079F80
07FC0003DF80
07F80001FF80
0FF00001FF80
0FE00000FF80
1FE00000FF80
1FC00000FF00
3FC00000FF00
3F8000007F00
3F8000007F00
7F0000007F00
7F0000007F00
7F000000FE00
7F000000FE00
FF000000FE00
FE000000FE00
FE000000FE00
FE000001FE00
FE000001FC00
FF000003FC00
FF000003FC00
FF000007FC00
7F000007FC00
7F80000FFC00
7F80001FF800
7FC0003FF800
3FE000FBF800
3FF801F3F800
1FFFBFF3F800
1FFFFFE3F800
0FFFFF83F000
07FFFF07F000
01FFFC07F000
007FF007F000
00000007F000
00000007E000
0000000FE000
0000000FE000
0000001FC000
0000001FC000
0000003F8000
0000007F8000
000000FF0000
000001FE0000
000007FE0000
007FFFFC0000
007FFFF00000
00FFFFE00000
00FFFFC00000
00FFFF000000
007FF8000000
ENDCHAR
STARTCHAR 0068
ENCODING 104
SWIDTH 604 0
DWIDTH 47 0
BBX 41 58 6 0
BITMAP
003F00000000
007F00000000
007F00000000
007F00000000
007F00000000
007E00000000
007E00000000
00FE00000000
00FE00000000
00FE00000000
00FE00000000
00FC00000000
00FC00000000
01FC00000000
01FC00000000
01FC00000000
01FC01FF8000
01F807FFE000
01F81FFFF000
03F87FFFF800
03F8FFFFFC00
03F9FFFFFE00
03FBF00FFE00
03F7C003FF00
03FF0000FF00
07FE0000FF00
07FC00007F80
07F800007F80
07F800003F80
07F000003F80
0FF000003F80
0FE000003F80
0FE000003F80
0FE000003F00
0FE000003F00
0FC000007F00
1FC000007F00
1FC000007F00
1FC000007F00
1FC000007E00
1FC000007E00
1F800000FE00
3F800000FE00
3F800000FE00
3F800000FE00
3F800000FC00
3F000000FC00
3F000001FC00
7F000001FC00
7F000001FC00
7F000001FC00
7F000001F800
7E000001F800
7E000003F800
FE000003F800
FE000003F800
FE000003F800
FE000003F000
ENDCHAR
STARTCHAR 0069
ENCODING 105
SWIDTH 244 0
DWIDTH 19 0
BBX 17 57 6 0
BITMAP
001F00
003F80
007F80
00FF80
00FF80
00FF80
007F00
007E00
000000
000000
000000
000000
000000
000000
000000
000000
01FC00
01FC00
01FC00
01F800
01F800
03F800
03F800
03F800
03F800
03F000
03F000
07F000
07F000
07F000
07F000
07E000
07E000
0FE000
0FE000
0FE000
0FE000
0FC000
0FC000
1FC000
1FC000
1FC000
1FC000
1F8000
3F8000
3F8000
3F8000
3F8000
3F8000
3F0000
7F0000
7F0000
7F0000
7F0000
7F0000
7E0000
FE0000
ENDCHAR
STARTCHAR 006A
ENCODING 106
SWIDTH 244 0
DWIDTH 19 0
BBX 30 74 -6 -17
BITMAP
000001F0
000003F8
000007FC
000007FC
000007FC
000007F8
000007F0
000003E0
00000000
00000000
00000000
00000000
00000000
00000000
00000000
00000FC0
00000FC0
00001FC0
00001FC0
00001FC0
00001FC0
00001F80
00001F80
00003F80
00003F80
00003F80
00003F80
00003F00
00003F00
00007F00
00007F00
00007F00
00007F00
00007E00
00007E00
0000FE00
0000FE00
0000FE00
0000FE00
0000FC00
0001FC00
0001FC00
0001FC00
0001FC00
0001FC00
0001F800
0003F800
0003F800
0003F800
0003F800
0003F800
0003F000
0007F000
0007F000
0007F000
0007F000
0007F000
0007E000
000FE000
000FE000
000FE000
000FE000
000FE000
001FC000
001FC000
001FC000
003FC000
007F8000
01FF8000
7FFF0000
7FFE0000
7FFC0000
FFF80000
7FC00000
ENDCHAR
STARTCHAR 006B
ENCODING 107
SWIDTH 514 0
DWIDTH 40 0
BBX 37 58 6 0
BITMAP
003F800000
003F000000
007F000000
007F000000
007F000000
007F000000
007F000000
007E000000
00FE000000
00FE000000
00FE000000
00FE000000
00FE000000
00FC000000
01FC000000
01FC000000
01FC000000
01FC0007F8
01FC000FF0
01F8003FC0
03F8007F80
03F800FF00
03F801FE00
03F803FC00
03F807F800
03F01FF000
07F03FC000
07F07F8000
07F0FF0000
07F1FE0000
07F3FC0000
07E7F80000
0FFFE00000
0FFFC00000
0FFF800000
0FFF000000
0FFF800000
0FFF800000
1FDFC00000
1FCFE00000
1FCFE00000
1FC7F00000
1FC7F80000
1F83F80000
3F81FC0000
3F81FE0000
3F80FE0000
3F807F0000
3F007F8000
7F003F8000
7F001FC000
7F001FE000
7F000FE000
7F0007F000
7E0007F800
FE0003F800
FE0003FC00
FE0001FE00
ENDCHAR
STARTCHAR 006C
ENCODING 108
SWIDTH 308 0
DWIDTH 24 0
BBX 16 58 7 0
BITMAP
007F
007E
007E
00FE
00FE
00FE
00FE
00FC
01FC
01FC
01FC
01FC
01FC
01F8
03F8
03F8
03F8
03F8
03F8
03F0
07F0
07F0
07F0
07F0
07F0
07E0
0FE0
0FE0
0FE0
0FE0
0FC0
0FC0
1FC0
1FC0
1FC0
1FC0
1F80
1F80
3F80
3F80
3F80
3F80
3F00
7F00
7F00
7F00
7F00
7F00
7E00
FE00
FE00
FF00
FF00
7FFE
7FFE
7FFE
3FFE
0FFC
ENDCHAR
STARTCHAR 006D
ENCODING 109
SWIDTH 951 0
DWIDTH 74 0
BBX 68 42 6 0
BITMAP
000001FE00001FF000
01F80FFFC000FFFC00
01F83FFFE001FFFF00
03F87FFFF007FFFF80
03F8FFFFF80FFFFF80
03F9FFFFFC1FFFFFC0
03FBF81FFC3F81FFC0
03F7C007FC7C007FE0
03F70003FEF8001FE0
07FE0001FEE0001FE0
07FC0000FFC0000FF0
07F80000FFC0000FF0
07F80000FF800007F0
07F00000FF000007F0
07F000007F000007F0
0FE000007F000007F0
0FE00000FE000007F0
0FE00000FE000007E0
0FC00000FE000007E0
0FC00000FE00000FE0
1FC00000FE00000FE0
1FC00000FC00000FE0
1FC00001FC00000FE0
1FC00001FC00000FC0
1F800001FC00000FC0
1F800001FC00001FC0
3F800001FC00001FC0
3F800001F800001FC0
3F800003F800001FC0
3F800003F800001F80
3F000003F800001F80
3F000003F800003F80
7F000003F000003F80
7F000003F000003F80
7F000007F000003F80
7F000007F000003F00
7E000007F000003F00
7E000007F000007F00
FE000007E000007F00
FE000007E000007F00
FE00000FE000007E00
FE00000FE000007E00
ENDCHAR
STARTCHAR 006E
ENCODING 110
SWIDTH 604 0
DWIDTH 47 0
BBX 41 42 6 0
BITMAP
000001FF8000
01F807FFE000
01F81FFFF000
03F87FFFF800
03F8FFFFFC00
03F9FFFFFE00
03FBF00FFE00
03F7C003FF00
03FF0000FF00
07FE0000FF00
07FC00007F80
07F800007F80
07F800003F80
07F000003F80
07F000003F80
0FE000003F80
0FE000003F80
0FE000003F00
0FE000003F00
0FC000007F00
1FC000007F00
1FC000007F00
1FC000007F00
1FC000007E00
1FC000007E00
1F800000FE00
3F800000FE00
3F800000FE00
3F800000FE00
3F800000FC00
3F000000FC00
3F000001FC00
7F000001FC00
7F000001FC00
7F000001FC00
7F000001F800
7E000001F800
7E000003F800
FE000003F800
FE000003F800
FE000003F800
FE000003F000
ENDCHAR
STARTCHAR 006F
ENCODING 111
SWIDTH 578 0
DWIDTH 45 0
BBX 39 43 6 -1
BITMAP
00003FF000
0001FFFE00
0007FFFF80
000FFFFFC0
003FFFFFE0
007FFFFFF0
00FFC01FF8
01FF0007F8
03FC0003FC
07F80003FC
07F00001FC
0FE00000FE
1FE00000FE
1FC00000FE
3F800000FE
3F800000FE
3F0000007E
7F0000007E
7F0000007E
7E000000FE
7E000000FE
FE000000FE
FE000000FE
FE000000FC
FE000001FC
FE000001FC
FE000001FC
FE000003F8
FE000003F8
FE000007F0
7F00000FF0
7F00000FE0
7F80001FC0
3F80003FC0
3FC000FF80
3FF001FF00
1FFC0FFE00
0FFFFFFC00
07FFFFF800
03FFFFE000
01FFFF8000
007FFE0000
0001C00000
ENDCHAR
STARTCHAR 0070
ENCODING 112
SWIDTH 617 0
DWIDTH 48 0
BBX 45 58 3 -16
BITMAP
0000003FF000
003F00FFFC00
007F03FFFF00
007F0FFFFF80
007F1FFFFFC0
007F3FFFFFE0
007F7F007FE0
007E7C003FF0
00FEF0001FF0
00FFE0000FF0
00FFC00007F8
00FF800007F8
00FF000003F8
00FF000003F8
01FE000003F8
01FE000003F8
01FC000003F8
01FC000003F8
01FC000003F8
01F8000003F8
03F8000003F8
03F8000003F8
03F8000003F8
03F8000003F0
03F8000007F0
03F8000007F0
07F8000007F0
07F800000FE0
07F800000FE0
07F800001FC0
07FC00003FC0
07FC00003F80
0FFE00007F80
0FFE0000FF00
0FEF0003FE00
0FEF8007FC00
0FC7F07FFC00
1FC7FFFFF800
1FC3FFFFE000
1FC1FFFFC000
1FC0FFFF0000
1FC03FFC0000
1F8001800000
3F8000000000
3F8000000000
3F8000000000
3F8000000000
3F8000000000
3F0000000000
7F0000000000
7F0000000000
7F0000000000
7F0000000000
7F0000000000
7E0000000000
FE0000000000
FE0000000000
FE0000000000
ENDCHAR
STARTCHAR 0071
ENCODING 113
SWIDTH 604 0
DWIDTH 47 0
BBX 43 58 6 -16
BITMAP
00007FC00000
0003FFF80FE0
000FFFFC0FC0
001FFFFE1FC0
007FFFFF1FC0
00FFFFFF9FC0
01FFC01F9FC0
01FF0007DFC0
03FE0003DF80
07F80003FF80
0FF00001FF80
0FF00000FF80
1FE00000FF80
1FC00000FF00
3FC00000FF00
3F800000FF00
3F8000007F00
7F0000007F00
7F0000007F00
7F000000FE00
7F000000FE00
FE000000FE00
FE000000FE00
FE000000FE00
FE000001FE00
FE000001FC00
FE000001FC00
FE000003FC00
FE000003FC00
FF000007FC00
FF000007FC00
7F00000FF800
7F80001FF800
7F80003FF800
3FC0007BF800
3FF001F3F800
1FFC0FF3F800
1FFFFFE3F000
0FFFFF87F000
07FFFF07F000
03FFFC07F000
00FFF007F000
00030007F000
00000007E000
0000000FE000
0000000FE000
0000000FE000
0000000FE000
0000000FE000
0000000FC000
0000001FC000
0000001FC000
0000001FC000
0000001FC000
0000001F8000
0000001F8000
0000003F8000
0000003F8000
ENDCHAR
STARTCHAR 0072
ENCODING 114
SWIDTH 347 0
DWIDTH 27 0
BBX 27 41 6 0
BITMAP
03F80FE0
03F83FE0
03F8FFE0
03F9FFE0
03F3FFE0
03F7FFC0
07F7F1C0
07FF0000
07FE0000
07FC0000
07F80000
07F00000
0FF00000
0FE00000
0FE00000
0FE00000
0FC00000
0FC00000
1FC00000
1FC00000
1FC00000
1FC00000
1F800000
3F800000
3F800000
3F800000
3F800000
3F800000
3F000000
7F000000
7F000000
7F000000
7F000000
7F000000
7E000000
FE000000
FE000000
FE000000
FE000000
FC000000
FC000000
ENDCHAR
STARTCHAR 0073
ENCODING 115
SWIDTH 488 0
DWIDTH 38 0
BBX 34 43 6 -1
BITMAP
0001FF8000
000FFFF000
003FFFFC00
007FFFFE00
00FFFFFF00
01FF03FF00
03FC00FF80
07F8007F80
07E0003F80
0FE0003FC0
0FC0001FC0
0FC0001FC0
0FC0001FC0
0FC0000000
0FC0000000
0FE0000000
0FF0000000
0FFC000000
07FFF00000
03FFFF0000
01FFFFE000
007FFFF000
001FFFF800
0000FFFC00
000007FE00
000001FE00
000000FE00
0000007E00
0000007E00
FC00007E00
FE00007E00
FE0000FE00
FE0000FE00
FF0001FC00
FF0003FC00
7F8007F800
7FE01FF000
3FFFFFE000
1FFFFFC000
0FFFFF8000
07FFFE0000
01FFF00000
0005000000
ENDCHAR
STARTCHAR 0074
ENCODING 116
SWIDTH 398 0
DWIDTH 31 0
BBX 24 54 9 0
BITMAP
003F80
003F80
003F80
003F00
003F00
007F00
007F00
007F00
007F00
007E00
00FE00
00FE00
00FE00
FFFFFF
FFFFFF
FFFFFF
FFFFFF
FFFFFF
01FC00
01FC00
01FC00
01F800
03F800
03F800
03F800
03F800
03F800
03F000
07F000
07F000
07F000
07F000
07E000
07E000
0FE000
0FE000
0FE000
0FE000
0FC000
0FC000
1FC000
1FC000
1FC000
1FC000
1FC000
1F8000
3F8000
3FC000
3FC000
3FFFC0
1FFFC0
1FFFC0
0FFFC0
03FFC0
ENDCHAR
STARTCHAR 0075
ENCODING 117
SWIDTH 591 0
DWIDTH 46 0
BBX 40 42 8 -1
BITMAP
0FE000007F
0FE000007F
0FE000007F
0FE000007F
0FE000007F
0FC000007E
1FC00000FE
1FC00000FE
1FC00000FE
1FC00000FE
1FC00000FE
1F800000FC
3F800001FC
3F800001FC
3F800001FC
3F800001FC
3F800001FC
3F000001F8
7F000003F8
7F000003F8
7F000003F8
7F000003F8
7E000003F0
7E000007F0
FE000007F0
FE000007F0
FE000007F0
FE00000FF0
FE00000FE0
FE00001FE0
FF00001FE0
FF00003FE0
7F80007FE0
7FC001EFE0
7FE003EFC0
3FFC1FDFC0
3FFFFF9FC0
1FFFFF1FC0
0FFFFC1FC0
07FFF81FC0
03FFE01F80
003E000000
ENDCHAR
STARTCHAR 0076
ENCODING 118
SWIDTH 552 0
DWIDTH 43 0
BBX 37 41 10 0
BITMAP
FC000001F8
FC000003F8
FC000003F0
FE000007F0
FE000007E0
7E00000FE0
7E00001FC0
7E00001FC0
7F00003F80
7F00003F00
7F00007F00
3F00007E00
3F0000FE00
3F8000FC00
3F8001FC00
3F8001F800
1F8003F800
1F8003F000
1FC007F000
1FC007E000
1FC00FE000
0FC01FC000
0FC01FC000
0FE03F8000
0FE03F0000
0FE07F0000
07E07E0000
07E0FE0000
07E0FC0000
07F1FC0000
07F1F80000
03F3F80000
03F3F00000
03F7F00000
03FFE00000
03FFE00000
03FFC00000
01FF800000
01FF800000
01FF000000
01FF000000
ENDCHAR
STARTCHAR 0077
ENCODING 119
SWIDTH 810 0
DWIDTH 63 0
BBX 58 41 10 0
BITMAP
FC00003F00001FC0
FC00007F00001F80
FC00007F00001F80
FC0000FF00003F80
FC0000FF00003F00
FC0001FF80007F00
FE0001FF80007E00
FE0003FF8000FE00
FE0003FF8000FC00
7E0007FF8000FC00
7E0007FF8001F800
7E000FFF8001F800
7E000FDFC003F800
7E001FCFC003F000
7E001F8FC007F000
7E003F8FC007E000
7F003F0FC00FE000
7F007F0FC00FC000
3F007E0FC00FC000
3F00FE0FE01F8000
3F00FC07E01F8000
3F01FC07E03F0000
3F01F807E03F0000
3F03F807E07F0000
3F03F007E07E0000
3F03F007E0FE0000
3F87E007F0FC0000
3F87E007F0FC0000
1F8FC003F1F80000
1F8FC003F1F80000
1F9FC003F3F00000
1F9F8003F3F00000
1FBF8003F7F00000
1FBF0003FFE00000
1FFF0003FFE00000
1FFE0003FFC00000
1FFE0001FFC00000
0FFC0001FF800000
0FFC0001FF800000
0FF80001FF000000
0FF80001FF000000
ENDCHAR
STARTCHAR 0078
ENCODING 120
SWIDTH 552 0
DWIDTH 43 0
BBX 42 41 3 0
BITMAP
01FC00001FC0
01FE00003FC0
00FE00007F80
00FF00007F00
007F0000FE00
007F8001FC00
003F8003FC00
003FC007F800
001FC007F000
001FE00FE000
000FE01FC000
000FE03F8000
0007F07F8000
0007F07F0000
0003F8FE0000
0003F9FC0000
0001FFF80000
0001FFF00000
0000FFF00000
0000FFE00000
00007FC00000
0000FFC00000
0001FFE00000
0003FFE00000
0007FFF00000
000FF7F00000
000FE3F80000
001FC3F80000
003F81FC0000
007F81FC0000
00FF00FE0000
00FE00FE0000
01FC00FF0000
03F8007F0000
07F8007F8000
0FF0003F8000
1FE0003FC000
1FC0001FC000
3F80001FE000
7F00000FE000
FF00000FF000
ENDCHAR
STARTCHAR 0079
ENCODING 121
SWIDTH 488 0
DWIDTH 38 0
BBX 46 57 -1 -16
BITMAP
007F000001FC
007F000001FC
007F000003F8
007F000007F0
003F000007F0
003F80000FE0
003F80000FE0
003F80001FC0
003F80001FC0
001F80003F80
001FC0003F00
001FC0007F00
001FC0007E00
000FC000FE00
000FC001FC00
000FC001F800
000FE003F800
000FE003F000
0007E007F000
0007E007E000
0007E00FE000
0007F00FC000
0007F01F8000
0003F03F8000
0003F03F0000
0003F07F0000
0003F87E0000
0001F8FC0000
0001F8FC0000
0001F9F80000
0001F9F80000
0001FFF00000
0000FFF00000
0000FFE00000
0000FFC00000
0000FFC00000
00007F800000
00007F800000
00007F000000
00007E000000
0000FE000000
0000FC000000
0001FC000000
0003F8000000
0003F8000000
0007F0000000
0007E0000000
000FE0000000
001FC0000000
003FC0000000
007F80000000
77FF00000000
7FFE00000000
7FFC00000000
7FF800000000
FFE000000000
3F0000000000
ENDCHAR
STARTCHAR 007A
ENCODING 122
SWIDTH 488 0
DWIDTH 38 0
BBX 38 41 4 0
BITMAP
00FFFFFFFC
00FFFFFFFC
00FFFFFFFC
00FFFFFFFC
00FFFFFFFC
01FFFFFFF8
00000007F0
0000000FE0
0000001FC0
0000003F80
0000007F00
000000FF00
000001FE00
000003FC00
000007F800
00000FF000
00001FE000
00003FC000
00007F8000
0000FF0000
0000FE0000
0001FC0000
0003F80000
0007F00000
000FE00000
001FC00000
003F800000
007F000000
00FE000000
01FC000000
03F8000000
07F0000000
0FE0000000
1FC0000000
3F80000000
7FFFFFFF00
7FFFFFFF00
7FFFFFFF00
FFFFFFFF00
FFFFFFFF00
FFFFFFFE00
ENDCHAR
STARTCHAR 007B
ENCODING 123
SWIDTH 450 0
DWIDTH 35 0
BBX 31 82 11 -17
BITMAP
000003FE
00003FFE
00007FFE
0001FFFE
0001FFFC
0003F800
0007F000
0007E000
0007E000
000FC000
000FC000
000FC000
000FC000
000FC000
001F8000
001F8000
001F8000
001F8000
001F8000
001F8000
003F0000
003F0000
003F0000
003F0000
003F0000
003F0000
007E0000
007E0000
007E0000
007E0000
007E0000
007E0000
007C0000
00FC0000
00FC0000
00FC0000
00F80000
01F80000
03F80000
7FF00000
7FC00000
7FC00000
FFE00000
07F00000
03F00000
03F00000
03F00000
03F00000
03F00000
03F00000
03E00000
07E00000
07E00000
07E00000
07E00000
07E00000
07E00000
0FC00000
0FC00000
0FC00000
0FC00000
0FC00000
0FC00000
1F800000
1F800000
1F800000
1F800000
1F800000
1F800000
3F000000
3F000000
3F000000
3F000000
3F000000
3F000000
3F000000
3FC00000
1FFFC000
1FFFC000
0FFFC000
07FFC000
007FC000
ENDCHAR
STARTCHAR 007C
ENCODING 124
SWIDTH 282 0
DWIDTH 22 0
BBX 22 93 5 -19
BITMAP
0000FC
0000F8
0000F8
0001F8
0001F8
0001F8
0001F8
0001F0
0001F0
0003F0
0003F0
0003F0
0003F0
0003E0
0003E0
0007E0
0007E0
0007E0
0007E0
0007C0
0007C0
000FC0
000FC0
000FC0
000FC0
000F80
001F80
001F80
001F80
001F80
001F80
001F00
003F00
003F00
003F00
003F00
003F00
003E00
007E00
007E00
007E00
007E00
007C00
007C00
00FC00
00FC00
00FC00
00FC00
00F800
00F800
01F800
01F800
01F800
01F800
01F000
01F000
03F000
03F000
03F000
03F000
03E000
03E000
07E000
07E000
07E000
07E000
07C000
07C000
0FC000
0FC000
0FC000
0FC000
0F8000
0F8000
1F8000
1F8000
1F8000
1F8000
1F0000
3F0000
3F0000
3F0000
3F0000
3F0000
3E0000
7E0000
7E0000
7E0000
7E0000
7E0000
7C0000
FC0000
FC0000
ENDCHAR
STARTCHAR 007D
ENCODING 125
SWIDTH 462 0
DWIDTH 36 0
BBX 31 82 6 -17
BITMAP
0001FE00
0003FFE0
0003FFF0
0003FFF8
0003FFFC
000003FC
000000FC
000000FC
000000FC
000000FC
000000FC
000000FC
000000FC
000000F8
000001F8
000001F8
000001F8
000001F8
000001F8
000003F0
000003F0
000003F0
000003F0
000003F0
000003E0
000007E0
000007E0
000007E0
000007E0
000007E0
000007C0
00000FC0
00000FC0
00000FC0
00000FC0
00000FC0
00000FC0
00000FC0
00000FC0
000007FE
000003FE
000003FE
00000FFE
00001FC0
00001F80
00003F00
00003F00
00003F00
00007E00
00007E00
00007E00
00007E00
00007E00
0000FC00
0000FC00
0000FC00
0000FC00
0000FC00
0000FC00
0001F800
0001F800
0001F800
0001F800
0001F800
0001F000
0003F000
0003F000
0003F000
0003F000
0003F000
0003E000
0007E000
0007E000
0007E000
000FC000
000FC000
003F8000
7FFF8000
7FFF0000
7FFE0000
FFF80000
FFC00000
ENDCHAR
STARTCHAR 007E
ENCODING 126
SWIDTH 552 0
DWIDTH 43 0
BBX 30 8 12 26
BITMAP
01F8007C
07FE007C
1FFF80F8
3FFFF7F8
3FFFFFF0
7E0FFFE0
F803FFC0
F800FF00
ENDCHAR
STARTCHAR 00A0
ENCODING 160
SWIDTH 218 0
DWIDTH 17 0
BBX 0 0 0 0
BITMAP
ENDCHAR
STARTCHAR 00A1
ENCODING 161
SWIDTH 257 0
DWIDTH 20 0
BBX 18 59 6 -19
BITMAP
000F00
001F80
003F80
007FC0
007FC0
007F80
007F80
003F00
001C00
000000
000000
000000
000000
000000
000000
00F800
00F800
00F800
00F800
00F800
01F000
01F000
01F000
01F000
01F000
03F000
03F000
03F000
03E000
03E000
07E000
07E000
07E000
07E000
07E000
0FE000
0FC000
0FC000
0FC000
0FC000
1FC000
1FC000
1FC000
1FC000
1F8000
3F8000
3F8000
3F8000
3F8000
3F8000
7F8000
7F0000
7F0000
7F0000
7F0000
7F0000
FF0000
FF0000
FE0000
ENDCHAR
STARTCHAR 00A2
ENCODING 162
SWIDTH 591 0
DWIDTH 46 0
BBX 39 52 7 -5
BITMAP
0000038000
0000038000
0000038000
0000038000
0000070000
00003FF000
0001FFFE00
0007FFFF80
001FFFFFC0
003FFFFFE0
007FFFFFF0
00FFCE1FF8
01FF0E07F8
03FC0E03FC
07F80E01FC
07F00E01FC
0FE01C00FC
1FE01C00FE
1FC01C00FE
3F801C00FE
3F801C00FE
3F80180000
7F00380000
7F00380000
7F00380000
7E00380000
7E00380000
FE00700000
FE00700000
FE00700000
FE00700000
FE00700000
FE007003F8
FE00E003F0
7E00E007F0
7F00E007E0
7F00E00FE0
7F80E01FC0
3F80E03FC0
3FC1C07F80
1FF1C1FF00
1FFDC7FE00
0FFFFFFC00
07FFFFF800
03FFFFE000
01FFFFC000
003FFE0000
0003800000
0003800000
0003800000
0003800000
0007000000
ENDCHAR
STARTCHAR 00A3
ENCODING 163
SWIDTH 591 0
DWIDTH 46 0
BBX 45 56 3 0
BITMAP
0000001E0000
000003FFF800
00000FFFFE00
00003FFFFF80
0000FFFFFFC0
0001FFFFFFC0
0003FFC0FFE0
0007FE003FE0
000FF8001FF0
000FF0000FF0
001FE00007F0
001FE00007F8
003FC00007F8
003FC00007F8
003F800007F8
003F800007F8
007F800007F8
007F800007F0
007F80000000
007F80000000
003F80000000
003FC0000000
003FC0000000
003FE0000000
001FE0000000
001FF0000000
000FF0000000
000FF8000000
0007F8000000
0007F8000000
0003FC000000
03FFFFFFC000
07FFFFFFC000
07FFFFFFC000
07FFFFFF8000
0001FC000000
0001FC000000
0001FC000000
0001FC000000
0001F8000000
0001F8000000
0003F8000000
0003F0000000
0007E0000000
0007E0000000
000FC0000000
001F80000000
003F00000000
00FC00000000
03F800000000
7FFFFFFFFF00
7FFFFFFFFF00
7FFFFFFFFF00
7FFFFFFFFF00
7FFFFFFFFF00
FFFFFFFFFE00
ENDCHAR
STARTCHAR 00A4
ENCODING 164
SWIDTH 578 0
DWIDTH 45 0
BBX 40 37 7 10
BITMAP
006000000C
01E000001E
03F03FF03F
03F9FFFE7F
01FFFFFFFE
00FFFFFFFC
00FFFFFFF8
007FE03FF0
007F000FF0
00FE0007F0
01F80003F8
03F00001F8
03F00001F8
07E00000F8
07C00000F8
0FC00000F8
0F800000F8
0F800000F8
0F800000F8
0F800000F8
1F800001F8
1F800001F0
0F800003F0
0F800003E0
0FC00007E0
0FC0000FC0
07E0001FC0
07F0003F80
07F800FF00
0FFF07FF80
1FFFFFFFC0
3FFFFFFFC0
7F7FFFEFE0
FE1FFF87F0
7C07FC03E0
3800000380
1000000100
ENDCHAR
STARTCHAR 00A5
ENCODING 165
SWIDTH 617 0
DWIDTH 48 0
BBX 43 54 11 0
BITMAP
7F8000001FE0
3F8000003FC0
3F8000003F80
3FC000007F00
1FC00000FF00
1FC00000FE00
1FE00001FC00
0FE00003FC00
0FE00003F800
0FE00007F000
07F0000FF000
07F0000FE000
07F0001FC000
03F8003FC000
03F8003F8000
03F8007F0000
01FC007F0000
01FC00FE0000
01FC01FC0000
00FE01FC0000
00FE03F80000
00FE07F00000
007F07F00000
007F0FE00000
007F1FC00000
003F9F800000
003FBF800000
003FFF000000
001FFE000000
001FFE000000
001FFC000000
3FFFFFFE0000
3FFFFFFE0000
3FFFFFFE0000
7FFFFFFE0000
0007E0000000
000FE0000000
000FE0000000
000FE0000000
000FE0000000
FFFFFFFC0000
FFFFFFFC0000
FFFFFFF80000
FFFFFFF80000
001FC0000000
001FC0000000
001F80000000
003F80000000
003F80000000
003F80000000
003F80000000
003F80000000
003F00000000
007F00000000
ENDCHAR
STARTCHAR 00A6
ENCODING 166
SWIDTH 282 0
DWIDTH 22 0
BBX 22 93 5 -19
BITMAP
0000FC
0000F8
0000F8
0001F8
0001F8
0001F8
0001F8
0001F0
0001F0
0003F0
0003F0
0003F0
0003F0
0003E0
0003E0
0007E0
0007E0
0007E0
0007E0
0007C0
0007C0
000FC0
000FC0
000FC0
000FC0
000F80
001F80
001F80
001F80
001F80
001F80
001F00
003F00
003F00
003F00
003F00
003E00
003E00
007E00
007E00
007E00
000000
000000
000000
000000
000000
000000
000000
000000
000000
000000
000000
000000
000000
01F000
01F000
03F000
03F000
03F000
03F000
03E000
03E000
07E000
07E000
07E000
07E000
07C000
07C000
0FC000
0FC000
0FC000
0FC000
0F8000
1F8000
1F8000
1F8000
1F8000
1F8000
1F0000
3F0000
3F0000
3F0000
3F0000
3F0000
3E0000
7E0000
7E0000
7E0000
7E0000
7C0000
7C0000
FC0000
FC0000
ENDCHAR
STARTCHAR 00A7
ENCODING 167
SWIDTH 552 0
DWIDTH 43 0
BBX 37 57 7 -1
BITMAP
0000030000
00007FFC00
0003FFFF00
000FFFFFC0
001FFFFFE0
003FFFFFE0
007FC01FF0
00FF000FF0
00FE0007F8
01FC0003F8
01F80003F8
01F80003F8
01F8000000
01FC000000
01FC000000
01FE000000
01FF800000
00FFFE0000
007FFFF000
00FFFFFE00
03FFFFFF80
07FFFFFFC0
0FF00FFFE0
1FE0007FF0
1FC0001FF0
3F800007F8
3F800007F8
3F000003F8
3F000003F8
3F800003F8
3F800003F0
3FC00007F0
1FF0000FF0
1FFF800FE0
0FFFFE3FC0
07FFFFFF80
01FFFFFF00
007FFFFC00
0007FFFC00
00003FFE00
000003FF00
000000FF00
0000007F00
0000007F00
FE00007F00
FE00007F00
FE00007F00
FF0000FE00
FF0001FE00
7FC003FC00
7FE00FF800
3FFFFFF000
1FFFFFE000
0FFFFFC000
07FFFF0000
00FFFC0000
0007000000
ENDCHAR
STARTCHAR 00A8
ENCODING 168
SWIDTH 360 0
DWIDTH 28 0
BBX 25 8 11 49
BITMAP
1F003E00
3F807F00
7F80FF80
7F80FF80
FF80FF00
7F80FF00
7F00FE00
3E007C00
ENDCHAR
STARTCHAR 00A9
ENCODING 169
SWIDTH 810 0
DWIDTH 63 0
BBX 57 56 8 -1
BITMAP
0000007FFF800000
000003FFFFF00000
00001FFFFFFC0000
00007FFFFFFF0000
0001FFF007FF8000
0003FE00007FC000
0007F800001FE000
001FE0000007F000
003F80000003F800
007F00000001FC00
00FE00000000FC00
01F8000FE0007E00
01F000FFFC007E00
03E003FFFF003E00
07E007FFFF803F00
07C01FFCFFC01F00
0F803FC00FC01F00
1F007F0007E01F00
1F007C0003F00F00
3E00F80001F00F80
3E01F00001F00F80
3C01F00000F00F80
7C03E00000F80F80
7C03C00000000F80
7807C00000000F80
F807C00000000F80
F807800000000F00
F807800000000F00
F80F800000001F00
F00F800000001F00
F00F800000001F00
F00F800000001E00
F00F800003E03E00
F00F800003C03E00
F807C00007C03C00
F807C0000F807C00
F807E0001F807800
F803F0003F00F800
F803F800FE01F000
FC01FF07FC01F000
7C00FFFFF803E000
7E007FFFE007E000
7E003FFF800FC000
3F0007FE001F8000
3F800000003F0000
1F800000007E0000
0FC0000000FC0000
0FF0000003F80000
07F800000FF00000
03FE00003FE00000
01FFC003FFC00000
00FFFFFFFF000000
003FFFFFFC000000
000FFFFFF0000000
0003FFFF80000000
00001FF000000000
ENDCHAR
STARTCHAR 00AA
ENCODING 170
SWIDTH 141 0
DWIDTH 11 0
BBX 12 11 6 30
BITMAP
1F70
3F70
79F0
70E0
F0E0
E0E0
E0E0
F1E0
FFE0
7FC0
39C0
ENDCHAR
STARTCHAR 00AB
ENCODING 171
SWIDTH 630 0
DWIDTH 49 0
BBX 46 33 7 8
BITMAP
00003F8001FC
00007F0003F8
0000FE0007F0
0001FC000FE0
0003F8001FC0
000FE0007F00
001FC000FE00
003F8001FC00
007F0003F800
00FE0007F000
01FC000FE000
03F8001FC000
07F0003F8000
1FE000FF0000
3FC001FE0000
7F0003F80000
FF0007F00000
7F0003F80000
3F8001FC0000
1FC000FE0000
1FE000FF0000
0FE0007F0000
07F0003F8000
03F8001FC000
01FC000FE000
01FC000FE000
00FE0007F000
007F0003F800
003F8001FC00
003F8001FC00
001FC000FE00
000FE0007F00
0007F0003F80
ENDCHAR
STARTCHAR 00AC
ENCODING 172
SWIDTH 642 0
DWIDTH 50 0
BBX 40 20 12 21
BITMAP
7FFFFFFFFF
7FFFFFFFFE
7FFFFFFFFE
7FFFFFFFFE
FFFFFFFFFE
000000007E
000000007E
000000007C
000000007C
000000007C
00000000FC
00000000FC
00000000FC
00000000F8
00000000F8
00000000F8
00000001F8
00000001F8
00000001F8
00000001F0
ENDCHAR
STARTCHAR 00AD
ENCODING 173
SWIDTH 591 0
DWIDTH 46 0
BBX 29 5 17 22
BITMAP
7FFFFFF8
7FFFFFF8
FFFFFFF8
FFFFFFF0
FFFFFFF0
ENDCHAR
STARTCHAR 00AE
ENCODING 174
SWIDTH 334 0
DWIDTH 26 0
BBX 20 19 11 35
BITMAP
01FF00
07FF80
0F03C0
1C00E0
39F060
71FC60
618C70
618C70
E18C70
C3F860
C33060
C33060
E318C0
E319C0
700380
780700
3F3E00
1FFC00
07F000
ENDCHAR
STARTCHAR 00AF
ENCODING 175
SWIDTH 360 0
DWIDTH 28 0
BBX 24 3 11 50
BITMAP
FFFFFF
FFFFFE
FFFFFE
ENDCHAR
STARTCHAR 00B0
ENCODING 176
SWIDTH 295 0
DWIDTH 23 0
BBX 15 15 14 52
BITMAP
03F0
0FFC
1FFE
3E3E
781E
700E
700E
F00E
F01E
F01E
787C
7FF8
3FF0
1FE0
0200
ENDCHAR
STARTCHAR 00B1
ENCODING 177
SWIDTH 604 0
DWIDTH 47 0
BBX 36 42 8 0
BITMAP
00000FC000
00000FC000
00001F8000
00001F8000
00001F8000
00001F8000
00001F8000
00001F8000
00003F0000
00003F0000
00003F0000
00003F0000
07FFFFFFF0
07FFFFFFF0
07FFFFFFF0
07FFFFFFF0
07FFFFFFE0
07FFFFFFE0
00007E0000
00007E0000
0000FC0000
0000FC0000
0000FC0000
0000FC0000
0000FC0000
0000FC0000
0001F80000
0001F80000
0001F80000
0001F80000
0000000000
0000000000
0000000000
0000000000
0000000000
0000000000
0000000000
7FFFFFFF00
7FFFFFFF00
7FFFFFFF00
7FFFFFFE00
FFFFFFFE00
ENDCHAR
STARTCHAR 00B2
ENCODING 178
SWIDTH 295 0
DWIDTH 23 0
BBX 23 30 7 29
BITMAP
001FE0
007FF8
00FFFC
01FFFC
03E07E
07C03E
07803E
0F801E
0F003E
0F003E
00003C
00007C
0000F8
0001F0
0003F0
0007E0
000FC0
001F00
007E00
00FC00
01F800
03E000
0FC000
1F8000
3F0000
7E0000
7FFFF0
FFFFF0
FFFFF0
FFFFF0
ENDCHAR
STARTCHAR 00B3
ENCODING 179
SWIDTH 308 0
DWIDTH 24 0
BBX 23 30 8 29
BITMAP
003FE0
00FFF0
01FFF8
03FFFC
07C07E
0F803E
0F003E
00003E
00003E
00003C
00007C
0000F8
0007F0
007FE0
007F80
007FE0
0003F0
0001F8
0000F8
000078
000078
0000F8
F800F8
F801F0
7C03F0
7F0FE0
3FFFC0
3FFF80
1FFF00
03F800
ENDCHAR
STARTCHAR 00B4
ENCODING 180
SWIDTH 244 0
DWIDTH 19 0
BBX 16 14 11 48
BITMAP
007F
00FE
00FC
01FC
03F8
07F0
07E0
0FC0
1F80
1F80
3F00
7E00
FC00
F800
ENDCHAR
STARTCHAR 00B5
ENCODING 181
SWIDTH 642 0
DWIDTH 50 0
BBX 45 57 3 -16
BITMAP
007F00000FE0
007F00000FC0
007F00001FC0
007E00001FC0
007E00001FC0
00FE00001FC0
00FE00001F80
00FE00001F80
00FE00003F80
00FC00003F80
01FC00003F80
01FC00003F80
01FC00003F00
01FC00003F00
01FC00007F00
01F800007F00
03F800007F00
03F800007F00
03F800007E00
03F80000FE00
03F80000FE00
03F00000FE00
07F00000FE00
07F00000FE00
07F00001FC00
07F00001FC00
07F00001FC00
07E00003FC00
0FE00003FC00
0FE00007FC00
0FF00007F800
0FF0000FF800
0FF0001FF800
0FF8003DF800
1FFC00F9FC00
1FFF03F1FC00
1FFFFFF1FFF8
1FFFFFE1FFF8
1FFFFF80FFF8
1FBFFF00FFF8
3F8FFC003FF0
3F8000000000
3F8000000000
3F8000000000
3F0000000000
7F0000000000
7F0000000000
7F0000000000
7F0000000000
7F0000000000
7E0000000000
FE0000000000
FE0000000000
FE0000000000
FE0000000000
FE0000000000
FC0000000000
ENDCHAR
STARTCHAR 00B6
ENCODING 182
SWIDTH 527 0
DWIDTH 41 0
BBX 36 54 9 0
BITMAP
001FFFFFF0
007FFFFFF0
01FFFFFFF0
03FFFFFFF0
07FFFFFFF0
0FFFFF81E0
1FFFFF81E0
3FFFFF81E0
7FFFFF83E0
7FFFFF83E0
7FFFFF03E0
FFFFFF03C0
FFFFFF03C0
FFFFFF03C0
FFFFFF07C0
FFFFFF07C0
FFFFFE0780
FFFFFE0780
FFFFFE0780
FFFFFE0F80
FFFFFE0F80
7FFFFE0F80
7FFFFC0F00
3FFFFC0F00
1FFFFC0F00
0FFFFC1F00
03FFFC1F00
003FFC1F00
0000781E00
0000781E00
0000781E00
0000F83E00
0000F83E00
0000F83E00
0000F03C00
0000F03C00
0000F03C00
0001F07C00
0001F07C00
0001F07C00
0001E07800
0001E07800
0003E07800
0003E0F800
0003E0F800
0003E0F800
0003C0F000
0003C0F000
0007C0F000
0007C1F000
0007C1F000
0007C1F000
000781E000
000781E000
ENDCHAR
STARTCHAR 00B7
ENCODING 183
SWIDTH 282 0
DWIDTH 22 0
BBX 9 9 13 24
BITMAP
1E00
7F00
FF00
FF80
FF80
FF00
FF00
FE00
7C00
ENDCHAR
STARTCHAR 00B8
ENCODING 184
SWIDTH 244 0
DWIDTH 19 0
BBX 15 19 0 -19
BITMAP
0F80
0F00
0F00
1E00
1F80
3FF8
3FFC
7FFC
003E
001E
001E
001E
001E
003C
007C
7FF8
FFF0
FFE0
FF80
ENDCHAR
STARTCHAR 00B9
ENCODING 185
SWIDTH 257 0
DWIDTH 20 0
BBX 17 29 7 30
BITMAP
003E00
007E00
00FE00
01FE00
07FE00
0FFE00
0FBC00
0E3C00
0C3C00
083C00
003C00
007C00
007800
007800
007800
007800
00F800
00F800
00F000
00F000
00F000
00F000
01F000
01E000
01E000
7FFF80
7FFF00
7FFF00
FFFF00
ENDCHAR
STARTCHAR 00BA
ENCODING 186
SWIDTH 154 0
DWIDTH 12 0
BBX 11 11 7 30
BITMAP
1F80
3FC0
71E0
60E0
E0E0
E0E0
E1C0
E1C0
F780
7F00
3E00
ENDCHAR
STARTCHAR 00BB
ENCODING 187
SWIDTH 630 0
DWIDTH 49 0
BBX 46 33 5 8
BITMAP
07F0003F8000
03F8001FC000
01FC000FE000
00FE0007F000
00FE0007F000
007F0003F800
003F8001FC00
001FC000FE00
001FE000FF00
000FE0007F00
0007F0003F80
0003F8001FC0
0003FC001FE0
0001FC000FE0
0000FE0007F0
00007F0003F8
00007F8003FC
0000FF0007F8
0001FC000FE0
0003F8001FC0
0007F0003F80
000FE0007F00
001FC000FE00
003F8001FC00
00FF0007F800
01FE000FE000
03F8001FC000
07F0003F8000
0FE0007F0000
1FC000FE0000
3F8001FC0000
7F0003F80000
FE0007F00000
ENDCHAR
STARTCHAR 00BC
ENCODING 188
SWIDTH 810 0
DWIDTH 63 0
BBX 54 54 8 0
BITMAP
007E00000003F0
00FE00000007F0
03FC0000000FE0
07FC0000000FC0
0FFC0000001F80
1FFC0000003F00
1F7C0000007F00
1C7C0000007E00
1878000000FC00
1078000001F800
00F8000003F800
00F8000007F000
00F8000007E000
00F000000FC000
00F000001F8000
00F000003F8000
01F000003F0000
01F000007E0000
01F00000FC0000
01E00001FC0000
01E00001F80000
03E00003F00000
FFFF0007E00000
FFFF000FE00000
FFFF001FC00000
FFFF001F800000
FFFF003F000000
0000007E0003F8
000000FE0003F8
000000FC0007F8
000001F8000FF8
000003F0001EF0
000007F0003DF0
000007E0003DF0
00000FC00079F0
00001F8000F1F0
00003F8001E1F0
00007F0003C1E0
00007E000783E0
0000FC000783E0
0001F8000F03E0
0003F8001E03E0
0003F0003C03E0
0007E0007803C0
000FC0007FFFFC
001FC0007FFFFC
001F80007FFFF8
003F00000007C0
007E00000007C0
00FE0000000780
01FC0000000F80
01F80000000F80
03F00000000F80
07E00000000F80
ENDCHAR
STARTCHAR 00BD
ENCODING 189
SWIDTH 835 0
DWIDTH 65 0
BBX 57 54 8 0
BITMAP
007E00000001FC00
00FE00000001F800
03FC00000003F000
07FC00000007F000
0FFC0000000FE000
1FFC0000000FC000
1F7C0000001F8000
1C7C0000003F0000
18780000007F0000
10780000007E0000
00F8000000FC0000
00F8000001F80000
00F8000003F80000
00F0000007F00000
00F0000007E00000
00F000000FC00000
01F000001FC00000
01F000003F800000
01F000003F000000
01E000007E000000
01E00000FC000000
03E00001FC000000
FFFF0001F8000000
FFFF0003F0000000
FFFF0007E0000000
FFFF000FE0000000
FFFF000FC001F800
0000001F8007FE00
0000003F001FFF00
0000007F003FFF80
000000FE007FBF80
000000FC007C0F80
000001F800F80780
000003F000F00780
000007F001F00780
000007E001F00F80
00000FC000000F80
00001F8000001F00
00003F8000001F00
00003F0000003E00
00007E000000FC00
0000FC000001F800
0001FC000003F000
0003F8000007E000
0003F000001F8000
0007E000003F0000
000FC000007E0000
001FC00001FC0000
001F800003F00000
003F000007E00000
007E00000FFFFE00
00FE00000FFFFE00
00FC00000FFFFE00
01F800000FFFFC00
ENDCHAR
STARTCHAR 00BE
ENCODING 190
SWIDTH 835 0
DWIDTH 65 0
BBX 55 55 9 0
BITMAP
001E0000000000
00FFE0000001FC
03FFF0000003F8
07FFF8000003F0
0FF3F8000007E0
0F80F800000FC0
1F00F800001FC0
1F007800001F80
0000F800003F00
0000F800007E00
0000F80000FE00
0003F00000FC00
007FE00001F800
007FC00003F000
007F000007F000
00FFC0000FE000
0007E0000FC000
0003E0001F8000
0001F0003F0000
0001F0007F0000
0001F0007E0000
F803E000FC0000
F803E001F80000
FC0FE003F80000
FFFFC003F00000
7FFF8007E00000
3FFF000FC00000
1FFC001FC00000
03C0003F8000FE
0000003F0001FE
0000007E0003FC
000000FC0003FC
000001FC0007FC
000001F8000F7C
000003F0001E7C
000007E0003C78
00000FE0003C78
00000FC00078F8
00001F8000F0F8
00003F0001E0F8
00007F0003C0F8
00007E000380F0
0000FC000780F0
0001F8000F01F0
0003F0001E01F0
0007F0001FFFFE
0007E0001FFFFE
000FC0003FFFFE
001F80000003E0
003F80000003E0
003F00000003E0
007E00000003E0
00FC00000003E0
01FC00000003C0
01F800000007C0
ENDCHAR
STARTCHAR 00BF
ENCODING 191
SWIDTH 527 0
DWIDTH 41 0
BBX 36 56 6 -19
BITMAP
000000F000
000003F800
000007F800
000007F800
000007F800
000007F800
000007F000
000003E000
0000008000
0000000000
0000000000
0000000000
0000000000
0000000000
0000000000
00000FE000
00000FE000
00001FC000
00001FC000
00003F8000
00003F8000
00007F0000
0001FE0000
0003FC0000
0007F80000
000FF00000
001FE00000
007FC00000
00FF000000
01FE000000
03FC000000
07F8000000
0FF0000000
1FE0000000
1FC0000000
3F80000000
3F80000000
7F00000000
7F000003F0
7F000003F0
7E000003F0
FE000007F0
FE000007E0
FE00000FE0
FE00000FE0
7F00001FC0
7F00003FC0
7F80007F80
7FE001FF00
3FF807FE00
3FFFFFFE00
1FFFFFF800
0FFFFFF000
07FFFFE000
01FFFF8000
003FFC0000
ENDCHAR
STARTCHAR 00C0
ENCODING 192
SWIDTH 668 0
DWIDTH 52 0
BBX 47 74 3 0
BITMAP
000000FE0000
000000FE0000
0000007F0000
0000007F0000
0000003F8000
0000003F8000
0000001F8000
0000001FC000
0000000FC000
0000000FC000
00000007E000
00000007E000
00000003F000
00000003F000
000000000000
000000000000
000000000000
000000000000
000000000000
000000000000
00000007F000
0000000FF000
0000000FF800
0000001FF800
0000001FF800
0000003FF800
0000003FF800
0000007FFC00
0000007EFC00
000000FCFC00
000000FCFC00
000001F8FC00
000003F8FE00
000003F07E00
000007F07E00
000007E07E00
00000FE07E00
00000FC07F00
00001FC07F00
00001F803F00
00003F803F00
00003F003F00
00007E003F80
0000FE003F80
0000FC001F80
0001FC001F80
0001F8001FC0
0003F8001FC0
0003F0001FC0
0007F0000FC0
0007E0000FC0
000FE0000FE0
000FC0000FE0
001FFFFFFFE0
003FFFFFFFE0
003FFFFFFFE0
007FFFFFFFF0
007FFFFFFFF0
00FE000007F0
00FC000003F0
01FC000003F0
01F8000003F8
03F8000003F8
03F0000003F8
07F0000001F8
0FE0000001F8
0FE0000001FC
1FC0000001FC
1FC0000001FC
3F80000000FC
3F80000000FE
7F00000000FE
7E00000000FE
FE00000000FE
ENDCHAR
STARTCHAR 00C1
ENCODING 193
SWIDTH 668 0
DWIDTH 52 0
BBX 48 74 3 0
BITMAP
00000000007F
0000000000FE
0000000001FC
0000000001F8
0000000003F8
0000000007F0
0000000007E0
000000000FC0
000000001F80
000000003F00
000000003E00
000000007E00
00000000FC00
00000000F800
000000000000
000000000000
000000000000
000000000000
000000000000
000000000000
00000007F000
0000000FF000
0000000FF800
0000001FF800
0000001FF800
0000003FF800
0000003FF800
0000007FFC00
0000007EFC00
000000FCFC00
000000FCFC00
000001F8FC00
000003F8FE00
000003F07E00
000007F07E00
000007E07E00
00000FE07E00
00000FC07F00
00001FC07F00
00001F803F00
00003F803F00
00003F003F00
00007E003F80
0000FE003F80
0000FC001F80
0001FC001F80
0001F8001FC0
0003F8001FC0
0003F0001FC0
0007F0000FC0
0007E0000FC0
000FE0000FE0
000FC0000FE0
001FFFFFFFE0
003FFFFFFFE0
003FFFFFFFE0
007FFFFFFFF0
007FFFFFFFF0
00FE000007F0
00FC000003F0
01FC000003F0
01F8000003F8
03F8000003F8
03F0000003F8
07F0000001F8
0FE0000001F8
0FE0000001FC
1FC0000001FC
1FC0000001FC
3F80000000FC
3F80000000FE
7F00000000FE
7E00000000FE
FE00000000FE
ENDCHAR
STARTCHAR 00C2
ENCODING 194
SWIDTH 668 0
DWIDTH 52 0
BBX 47 71 3 0
BITMAP
00000000FE00
00000001FE00
00000003FF00
00000007FF80
0000000FFFC0
0000001FCFC0
0000003F0FE0
0000007E07F0
000000FC03F8
000001F801F8
000007F001FC
000000000000
000000000000
000000000000
000000000000
000000000000
000000000000
00000007F000
0000000FF000
0000000FF800
0000001FF800
0000001FF800
0000003FF800
0000003FF800
0000007FFC00
0000007EFC00
000000FCFC00
000000FCFC00
000001F8FC00
000003F8FE00
000003F07E00
000007F07E00
000007E07E00
00000FE07E00
00000FC07F00
00001FC07F00
00001F803F00
00003F803F00
00003F003F00
00007E003F80
0000FE003F80
0000FC001F80
0001FC001F80
0001F8001FC0
0003F8001FC0
0003F0001FC0
0007F0000FC0
0007E0000FC0
000FE0000FE0
000FC0000FE0
001FFFFFFFE0
003FFFFFFFE0
003FFFFFFFE0
007FFFFFFFF0
007FFFFFFFF0
00FE000007F0
00FC000003F0
01FC000003F0
01F8000003F8
03F8000003F8
03F0000003F8
07F0000001F8
0FE0000001F8
0FE0000001FC
1FC0000001FC
1FC0000001FC
3F80000000FC
3F80000000FE
7F00000000FE
7E00000000FE
FE00000000FE
ENDCHAR
STARTCHAR 00C3
ENCODING 195
SWIDTH 668 0
DWIDTH 52 0
BBX 48 70 3 0
BITMAP
0000001FC01F
0000007FF03E
000000FFFC7E
000001FFFFFC
000001F9FFF8
000003E07FF0
000003C01FE0
000000000000
000000000000
000000000000
000000000000
000000000000
000000000000
000000000000
000000000000
000000000000
00000007F000
0000000FF000
0000000FF800
0000001FF800
0000001FF800
0000003FF800
0000003FF800
0000007FFC00
0000007EFC00
000000FCFC00
000000FCFC00
000001F8FC00
000003F8FE00
000003F07E00
000007F07E00
000007E07E00
00000FE07E00
00000FC07F00
00001FC07F00
00001F803F00
00003F803F00
00003F003F00
00007E003F80
0000FE003F80
0000FC001F80
0001FC001F80
0001F8001FC0
0003F8001FC0
0003F0001FC0
0007F0000FC0
0007E0000FC0
000FE0000FE0
000FC0000FE0
001FFFFFFFE0
003FFFFFFFE0
003FFFFFFFE0
007FFFFFFFF0
007FFFFFFFF0
00FE000007F0
00FC000003F0
01FC000003F0
01F8000003F8
03F8000003F8
03F0000003F8
07F0000001F8
0FE0000001F8
0FE0000001FC
1FC0000001FC
1FC0000001FC
3F80000000FC
3F80000000FE
7F00000000FE
7E00000000FE
FE00000000FE
ENDCHAR
STARTCHAR 00C4
ENCODING 196
SWIDTH 668 0
DWIDTH 52 0
BBX 47 71 3 0
BITMAP
000000180038
0000007E00FC
000000FE01FE
000001FF03FE
000001FF03FE
000001FE03FE
000001FE03FC
000001FC01F8
0000007000F0
000000000000
000000000000
000000000000
000000000000
000000000000
000000000000
000000000000
000000000000
00000007F000
0000000FF000
0000000FF800
0000001FF800
0000001FF800
0000003FF800
0000003FF800
0000007FFC00
0000007EFC00
000000FCFC00
000000FCFC00
000001F8FC00
000003F8FE00
000003F07E00
000007F07E00
000007E07E00
00000FE07E00
00000FC07F00
00001FC07F00
00001F803F00
00003F803F00
00003F003F00
00007E003F80
0000FE003F80
0000FC001F80
0001FC001F80
0001F8001FC0
0003F8001FC0
0003F0001FC0
0007F0000FC0
0007E0000FC0
000FE0000FE0
000FC0000FE0
001FFFFFFFE0
003FFFFFFFE0
003FFFFFFFE0
007FFFFFFFF0
007FFFFFFFF0
00FE000007F0
00FC000003F0
01FC000003F0
01F8000003F8
03F8000003F8
03F0000003F8
07F0000001F8
0FE0000001F8
0FE0000001FC
1FC0000001FC
1FC0000001FC
3F80000000FC
3F80000000FE
7F00000000FE
7E00000000FE
FE00000000FE
ENDCHAR
STARTCHAR 00C5
ENCODING 197
SWIDTH 668 0
DWIDTH 52 0
BBX 47 75 3 0
BITMAP
000000001C00
00000000FF00
00000001FF80
00000003EF80
0000000783C0
0000000701C0
0000000E01C0
0000000E01C0
0000000E0380
0000000F0780
000000078F00
00000007FE00
00000003FC00
00000001F000
000000000000
000000000000
000000000000
000000000000
000000000000
000000000000
000000000000
00000007F000
0000000FF000
0000000FF800
0000001FF800
0000001FF800
0000003FF800
0000003FF800
0000007FFC00
0000007EFC00
000000FCFC00
000000FCFC00
000001F8FC00
000003F8FE00
000003F07E00
000007F07E00
000007E07E00
00000FE07E00
00000FC07F00
00001FC07F00
00001F803F00
00003F803F00
00003F003F00
00007E003F80
0000FE003F80
0000FC001F80
0001FC001F80
0001F8001FC0
0003F8001FC0
0003F0001FC0
0007F0000FC0
0007E0000FC0
000FE0000FE0
000FC0000FE0
001FFFFFFFE0
003FFFFFFFE0
003FFFFFFFE0
007FFFFFFFF0
007FFFFFFFF0
00FE000007F0
00FC000003F0
01FC000003F0
01F8000003F8
03F8000003F8
03F0000003F8
07F0000001F8
0FE0000001F8
0FE0000001FC
1FC0000001FC
1FC0000001FC
3F80000000FC
3F80000000FE
7F00000000FE
7E00000000FE
FE00000000FE
ENDCHAR
STARTCHAR 00C6
ENCODING 198
SWIDTH 951 0
DWIDTH 74 0
BBX 77 54 2 0
BITMAP
0000000007FFFFFFFFF8
0000000007FFFFFFFFF0
000000000FFFFFFFFFF0
000000001FFFFFFFFFF0
000000003FFFFFFFFFF0
000000003FFFFFFFFFF0
000000007FBF80000000
00000000FF3F80000000
00000000FE3F00000000
00000001FE3F00000000
00000003FC7F00000000
00000003F87F00000000
00000007F87F00000000
0000000FF07F00000000
0000001FE07E00000000
0000001FC0FE00000000
0000003FC0FE00000000
0000007F80FE00000000
0000007F00FE00000000
000000FF00FE00000000
000001FE00FC00000000
000003FC01FC00000000
000003F801FC00000000
000007F801FC00000000
00000FF001FFFFFFF800
00000FE001FFFFFFF800
00001FE001FFFFFFF800
00003FC003FFFFFFF800
00003F8003FFFFFFF800
00007F0003F800000000
0000FF0003F800000000
0001FE0003F800000000
0001FC0003F000000000
0003FFFFFFF000000000
0007FFFFFFF000000000
0007FFFFFFF000000000
000FFFFFFFF000000000
001FFFFFFFF000000000
003FC00007E000000000
003F80000FE000000000
007F80000FE000000000
00FF00000FE000000000
00FE00000FE000000000
01FC00000FC000000000
03FC00000FC000000000
03F800001FC000000000
07F000001FC000000000
0FF000001FC000000000
1FE000001FFFFFFFF000
1FC000001FFFFFFFF000
3FC000001FFFFFFFF000
7F8000003FFFFFFFF000
7F0000003FFFFFFFF000
FE0000003FFFFFFFF000
ENDCHAR
STARTCHAR 00C7
ENCODING 199
SWIDTH 707 0
DWIDTH 55 0
BBX 50 75 8 -19
BITMAP
00000007000000
000003FFFC0000
00000FFFFF0000
00003FFFFFC000
0000FFFFFFE000
0003FFFFFFF000
0007FFFBFFF800
000FFE001FFC00
001FF80007FE00
003FE00001FF00
007FC00000FF00
00FF0000007F00
01FE0000007F80
01FC0000003F80
03FC0000003F80
07F80000001FC0
07F00000001FC0
0FF00000001FC0
0FE00000001FC0
1FE00000000FC0
1FC00000000000
1FC00000000000
3F800000000000
3F800000000000
3F800000000000
7F000000000000
7F000000000000
7F000000000000
7F000000000000
7F000000000000
7F000000000000
FF000000000000
FE000000000000
FE000000000000
FE000000000000
FE000000000000
FE000000000000
FF000000000000
FF000000000000
7F00000001FC00
7F00000001FC00
7F00000003F800
7F80000007F800
3F80000007F000
3FC000000FE000
3FC000001FE000
1FE000007FC000
1FF00000FF8000
0FFC0003FF0000
07FF000FFE0000
07FFFFFFFC0000
03FFFFFFF80000
00FFFFFFE00000
007FFFFF800000
001FFFFE000000
0007FFF0000000
00001E00000000
00003E00000000
00003C00000000
00003800000000
00007F80000000
00007FF0000000
0000FFF8000000
0000FFF8000000
00000078000000
0000003C000000
0000003C000000
00000038000000
00000078000000
000000F8000000
000001F0000000
0001FFE0000000
0001FFC0000000
0001FF80000000
0001FE00000000
ENDCHAR
STARTCHAR 00C8
ENCODING 200
SWIDTH 565 0
DWIDTH 44 0
BBX 42 74 6 0
BITMAP
00007F000000
00007F000000
00003F800000
00003F800000
00001FC00000
00000FC00000
00000FC00000
000007E00000
000007E00000
000003F00000
000003F00000
000001F00000
000001F80000
000000F80000
000000000000
000000000000
000000000000
000000000000
000000000000
000000000000
007FFFFFFFC0
007FFFFFFFC0
007FFFFFFFC0
00FFFFFFFFC0
00FFFFFFFFC0
00FFFFFFFFC0
00FE00000000
00FE00000000
00FC00000000
01FC00000000
01FC00000000
01FC00000000
01FC00000000
01FC00000000
01F800000000
03F800000000
03F800000000
03F800000000
03F800000000
03F800000000
03F000000000
07F000000000
07F000000000
07F000000000
07FFFFFFE000
07FFFFFFE000
0FFFFFFFE000
0FFFFFFFE000
0FFFFFFFC000
0FE000000000
0FE000000000
0FC000000000
1FC000000000
1FC000000000
1FC000000000
1FC000000000
1FC000000000
1F8000000000
3F8000000000
3F8000000000
3F8000000000
3F8000000000
3F8000000000
3F0000000000
7F0000000000
7F0000000000
7F0000000000
7F0000000000
7FFFFFFFC000
7FFFFFFFC000
FFFFFFFFC000
FFFFFFFFC000
FFFFFFFFC000
FFFFFFFF8000
ENDCHAR
STARTCHAR 00C9
ENCODING 201
SWIDTH 565 0
DWIDTH 44 0
BBX 42 74 6 0
BITMAP
000000003F80
000000007F00
000000007E00
00000000FE00
00000001FC00
00000003F800
00000003F000
00000007E000
0000000FC000
0000000F8000
0000001F8000
0000003F0000
0000007E0000
0000007C0000
000000000000
000000000000
000000000000
000000000000
000000000000
000000000000
007FFFFFFFC0
007FFFFFFFC0
007FFFFFFFC0
00FFFFFFFFC0
00FFFFFFFFC0
00FFFFFFFFC0
00FE00000000
00FE00000000
00FC00000000
01FC00000000
01FC00000000
01FC00000000
01FC00000000
01FC00000000
01F800000000
03F800000000
03F800000000
03F800000000
03F800000000
03F800000000
03F000000000
07F000000000
07F000000000
07F000000000
07FFFFFFE000
07FFFFFFE000
0FFFFFFFE000
0FFFFFFFE000
0FFFFFFFC000
0FE000000000
0FE000000000
0FC000000000
1FC000000000
1FC000000000
1FC000000000
1FC000000000
1FC000000000
1F8000000000
3F8000000000
3F8000000000
3F8000000000
3F8000000000
3F8000000000
3F0000000000
7F0000000000
7F0000000000
7F0000000000
7F0000000000
7FFFFFFFC000
7FFFFFFFC000
FFFFFFFFC000
FFFFFFFFC000
FFFFFFFFC000
FFFFFFFF8000
ENDCHAR
STARTCHAR 00CA
ENCODING 202
SWIDTH 565 0
DWIDTH 44 0
BBX 42 71 6 0
BITMAP
0000007F0000
000000FF8000
000001FF8000
000003FFC000
000007FFE000
00000FE7E000
00001FC3F000
00003F03F800
00007E01FC00
0000FC00FC00
0001F800FE00
000200000000
000000000000
000000000000
000000000000
000000000000
000000000000
007FFFFFFFC0
007FFFFFFFC0
007FFFFFFFC0
00FFFFFFFFC0
00FFFFFFFFC0
00FFFFFFFFC0
00FE00000000
00FE00000000
00FC00000000
01FC00000000
01FC00000000
01FC00000000
01FC00000000
01FC00000000
01F800000000
03F800000000
03F800000000
03F800000000
03F800000000
03F800000000
03F000000000
07F000000000
07F000000000
07F000000000
07FFFFFFE000
07FFFFFFE000
0FFFFFFFE000
0FFFFFFFE000
0FFFFFFFC000
0FE000000000
0FE000000000
0FC000000000
1FC000000000
1FC000000000
1FC000000000
1FC000000000
1FC000000000
1F8000000000
3F8000000000
3F8000000000
3F8000000000
3F8000000000
3F8000000000
3F0000000000
7F0000000000
7F0000000000
7F0000000000
7F0000000000
7FFFFFFFC000
7FFFFFFFC000
FFFFFFFFC000
FFFFFFFFC000
FFFFFFFFC000
FFFFFFFF8000
ENDCHAR
STARTCHAR 00CB
ENCODING 203
SWIDTH 565 0
DWIDTH 44 0
BBX 42 71 6 0
BITMAP
00001E001C00
00003F007E00
00007F80FF00
0000FF80FF00
0000FF81FF00
0000FF01FF00
0000FF01FE00
00007E00FC00
00003C007800
000000000000
000000000000
000000000000
000000000000
000000000000
000000000000
000000000000
000000000000
007FFFFFFFC0
007FFFFFFFC0
007FFFFFFFC0
00FFFFFFFFC0
00FFFFFFFFC0
00FFFFFFFFC0
00FE00000000
00FE00000000
00FC00000000
01FC00000000
01FC00000000
01FC00000000
01FC00000000
01FC00000000
01F800000000
03F800000000
03F800000000
03F800000000
03F800000000
03F800000000
03F000000000
07F000000000
07F000000000
07F000000000
07FFFFFFE000
07FFFFFFE000
0FFFFFFFE000
0FFFFFFFE000
0FFFFFFFC000
0FE000000000
0FE000000000
0FC000000000
1FC000000000
1FC000000000
1FC000000000
1FC000000000
1FC000000000
1F8000000000
3F8000000000
3F8000000000
3F8000000000
3F8000000000
3F8000000000
3F0000000000
7F0000000000
7F0000000000
7F0000000000
7F0000000000
7FFFFFFFC000
7FFFFFFFC000
FFFFFFFFC000
FFFFFFFFC000
FFFFFFFFC000
FFFFFFFF8000
ENDCHAR
STARTCHAR 00CC
ENCODING 204
SWIDTH 231 0
DWIDTH 18 0
BBX 16 74 6 0
BITMAP
0FE0
0FE0
07F0
07F0
03F8
03F8
01F8
01FC
00FC
00FC
007E
007E
003F
001F
0000
0000
0000
0000
0000
0000
007F
007F
007F
007E
00FE
00FE
00FE
00FE
00FE
00FC
01FC
01FC
01FC
01FC
01FC
01F8
03F8
03F8
03F8
03F8
03F8
03F0
07F0
07F0
07F0
07F0
07F0
07E0
0FE0
0FE0
0FE0
0FE0
0FE0
0FC0
1FC0
1FC0
1FC0
1FC0
1F80
1F80
3F80
3F80
3F80
3F80
3F00
7F00
7F00
7F00
7F00
7F00
7E00
FE00
FE00
FE00
ENDCHAR
STARTCHAR 00CD
ENCODING 205
SWIDTH 231 0
DWIDTH 18 0
BBX 28 74 6 0
BITMAP
000007F0
00000FE0
00001FC0
00001F80
00003F80
00007F00
00007E00
0000FC00
0001F800
0003F000
0003F000
0007E000
000FC000
000F8000
00000000
00000000
00000000
00000000
00000000
00000000
007F0000
007F0000
007F0000
007E0000
00FE0000
00FE0000
00FE0000
00FE0000
00FE0000
00FC0000
01FC0000
01FC0000
01FC0000
01FC0000
01FC0000
01F80000
03F80000
03F80000
03F80000
03F80000
03F80000
03F00000
07F00000
07F00000
07F00000
07F00000
07F00000
07E00000
0FE00000
0FE00000
0FE00000
0FE00000
0FE00000
0FC00000
1FC00000
1FC00000
1FC00000
1FC00000
1F800000
1F800000
3F800000
3F800000
3F800000
3F800000
3F000000
7F000000
7F000000
7F000000
7F000000
7F000000
7E000000
FE000000
FE000000
FE000000
ENDCHAR
STARTCHAR 00CE
ENCODING 206
SWIDTH 231 0
DWIDTH 18 0
BBX 26 71 6 0
BITMAP
000FE000
001FF000
003FF000
007FF800
00FFFC00
01FCFC00
03F0FE00
07E07F00
0FC03F80
1F801F80
3F001FC0
40000000
00000000
00000000
00000000
00000000
00000000
007F0000
007F0000
007F0000
007E0000
00FE0000
00FE0000
00FE0000
00FE0000
00FE0000
00FC0000
01FC0000
01FC0000
01FC0000
01FC0000
01FC0000
01F80000
03F80000
03F80000
03F80000
03F80000
03F80000
03F00000
07F00000
07F00000
07F00000
07F00000
07F00000
07E00000
0FE00000
0FE00000
0FE00000
0FE00000
0FE00000
0FC00000
1FC00000
1FC00000
1FC00000
1FC00000
1F800000
1F800000
3F800000
3F800000
3F800000
3F800000
3F000000
7F000000
7F000000
7F000000
7F000000
7F000000
7E000000
FE000000
FE000000
FE000000
ENDCHAR
STARTCHAR 00CF
ENCODING 207
SWIDTH 231 0
DWIDTH 18 0
BBX 27 71 6 0
BITMAP
01C00380
07E00FC0
0FE01FE0
1FF03FE0
1FF03FE0
1FE03FE0
1FE03FC0
1FC01F80
07800F00
00000000
00000000
00000000
00000000
00000000
00000000
00000000
00000000
007F0000
007F0000
007F0000
007E0000
00FE0000
00FE0000
00FE0000
00FE0000
00FE0000
00FC0000
01FC0000
01FC0000
01FC0000
01FC0000
01FC0000
01F80000
03F80000
03F80000
03F80000
03F80000
03F80000
03F00000
07F00000
07F00000
07F00000
07F00000
07F00000
07E00000
0FE00000
0FE00000
0FE00000
0FE00000
0FE00000
0FC00000
1FC00000
1FC00000
1FC00000
1FC00000
1F800000
1F800000
3F800000
3F800000
3F800000
3F800000
3F000000
7F000000
7F000000
7F000000
7F000000
7F000000
7E000000
FE000000
FE000000
FE000000
ENDCHAR
STARTCHAR 00D0
ENCODING 208
SWIDTH 707 0
DWIDTH 55 0
BBX 49 54 8 0
BITMAP
007FFFFFE00000
007FFFFFFC0000
007FFFFFFF0000
00FFFFFFFFC000
00FFFFFFFFE000
00FFFFFFFFF000
00FE0000FFF800
00FC00001FFC00
00FC000007FC00
01FC000003FE00
01FC000001FF00
01FC000000FF00
01FC0000007F00
01F80000007F80
01F80000007F80
03F80000003F80
03F80000003F80
03F80000003F80
03F80000003F80
03F00000003F80
03F00000003F80
07F00000003F80
07F00000003F80
07F00000003F80
7FFFFC00003F80
FFFFFC00003F80
FFFFFC00003F80
FFFFFC00003F80
FFFFF800003F80
0FE00000007F00
0FE00000007F00
0FC00000007F00
0FC00000007F00
1FC0000000FE00
1FC0000000FE00
1FC0000001FC00
1F80000001FC00
1F80000003F800
1F80000007F800
3F8000000FF000
3F8000000FF000
3F8000003FE000
3F0000007FC000
3F000000FF8000
3F000001FF8000
7F000007FF0000
7F00003FFC0000
7F0003FFF80000
7FFFFFFFF00000
7FFFFFFFC00000
7FFFFFFF800000
FFFFFFFC000000
FFFFFFF0000000
FFFFFF00000000
ENDCHAR
STARTCHAR 00D1
ENCODING 209
SWIDTH 707 0
DWIDTH 55 0
BBX 53 70 6 0
BITMAP
0000007F003C00
000001FFC07C00
000003FFF9F800
000003FFFFF000
000007E7FFF000
00000F80FFE000
00000F803F8000
00000000000000
00000000000000
00000000000000
00000000000000
00000000000000
00000000000000
00000000000000
00000000000000
00000000000000
007F80000003F8
007FC0000003F0
007FC0000003F0
00FFE0000007F0
00FFE0000007F0
00FFF0000007F0
00FFF0000007F0
00FFF8000007E0
00FFF8000007E0
01FFFC00000FE0
01FFFC00000FE0
01FFFE00000FE0
01FDFE00000FE0
01F9FF00000FC0
01F8FF00000FC0
03F8FF80001FC0
03F87F80001FC0
03F87FC0001FC0
03F83FC0001FC0
03F03FE0001F80
03F01FE0003F80
07F01FF0003F80
07F00FF0003F80
07F00FF8003F80
07F007F8003F80
07E007FC003F00
0FE003FC007F00
0FE003FE007F00
0FE001FE007F00
0FE001FF007F00
0FC000FF007E00
0FC0007F007E00
1FC0007F80FE00
1FC0003F80FE00
1FC0003FC0FE00
1FC0001FC0FE00
1F80001FE0FC00
1F80000FE0FC00
3F80000FF1FC00
3F800007F1FC00
3F800007F9FC00
3F800003F9FC00
3F000003FDF800
3F000001FFF800
7F000001FFF800
7F000000FFF800
7F000000FFF800
7F0000007FF800
7E0000007FF000
7E0000003FF000
FE0000003FF000
FE0000001FF000
FE0000001FF000
FE0000000FF000
ENDCHAR
STARTCHAR 00D2
ENCODING 210
SWIDTH 732 0
DWIDTH 57 0
BBX 50 75 8 -1
BITMAP
000007F0000000
000003F8000000
000003F8000000
000001F8000000
000001FC000000
000000FC000000
000000FC000000
0000007E000000
0000007E000000
0000003F000000
0000003F000000
0000001F000000
0000001F800000
0000000F800000
00000000000000
00000000000000
00000000000000
00000000000000
00000006000000
000003FFFC0000
00001FFFFF0000
00007FFFFFC000
0000FFFFFFE000
0003FFFFFFF000
0007FFFFFFF800
000FFE001FFC00
001FF80007FE00
003FE00003FE00
007FC00001FF00
00FF000000FF00
01FE0000007F80
03FC0000007F80
03FC0000003F80
07F80000003FC0
07F00000003FC0
0FF00000001FC0
0FE00000001FC0
1FE00000001FC0
1FC00000001FC0
3FC00000001FC0
3F800000001FC0
3F800000001FC0
7F800000001FC0
7F000000001FC0
7F000000001FC0
7F000000001FC0
7F000000001FC0
FF000000001FC0
FE000000003F80
FE000000003F80
FE000000003F80
FE000000003F80
FE000000007F00
FE000000007F00
FE00000000FF00
FE00000000FE00
FF00000001FE00
FF00000001FC00
7F00000003FC00
7F00000007F800
7F80000007F800
7F8000000FF000
3FC000001FE000
3FE000003FE000
3FE000007FC000
1FF80001FF8000
0FFC0007FF0000
0FFF001FFE0000
07FFFFFFFC0000
03FFFFFFF00000
01FFFFFFE00000
007FFFFF800000
003FFFFE000000
0007FFF0000000
00000800000000
ENDCHAR
STARTCHAR 00D3
ENCODING 211
SWIDTH 732 0
DWIDTH 57 0
BBX 50 75 8 -1
BITMAP
0000000003F800
0000000007F000
0000000007E000
000000000FE000
000000001FC000
000000003F8000
000000003F0000
000000007E0000
00000000FC0000
00000000FC0000
00000001F80000
00000003F00000
00000007E00000
00000007C00000
00000000000000
00000000000000
00000000000000
00000000000000
00000006000000
000003FFFC0000
00001FFFFF0000
00007FFFFFC000
0000FFFFFFE000
0003FFFFFFF000
0007FFFFFFF800
000FFE001FFC00
001FF80007FE00
003FE00003FE00
007FC00001FF00
00FF000000FF00
01FE0000007F80
03FC0000007F80
03FC0000003F80
07F80000003FC0
07F00000003FC0
0FF00000001FC0
0FE00000001FC0
1FE00000001FC0
1FC00000001FC0
3FC00000001FC0
3F800000001FC0
3F800000001FC0
7F800000001FC0
7F000000001FC0
7F000000001FC0
7F000000001FC0
7F000000001FC0
FF000000001FC0
FE000000003F80
FE000000003F80
FE000000003F80
FE000000003F80
FE000000007F00
FE000000007F00
FE00000000FF00
FE00000000FE00
FF00000001FE00
FF00000001FC00
7F00000003FC00
7F00000007F800
7F80000007F800
7F8000000FF000
3FC000001FE000
3FE000003FE000
3FE000007FC000
1FF80001FF8000
0FFC0007FF0000
0FFF001FFE0000
07FFFFFFFC0000
03FFFFFFF00000
01FFFFFFE00000
007FFFFF800000
003FFFFE000000
0007FFF0000000
00000800000000
ENDCHAR
STARTCHAR 00D4
ENCODING 212
SWIDTH 732 0
DWIDTH 57 0
BBX 50 72 8 -1
BITMAP
00000007F00000
0000000FF80000
0000001FF80000
0000003FFC0000
0000007FFE0000
000000FE7F0000
000001FC3F0000
000003F83F8000
000007E01FC000
00000FC00FC000
00001F8007E000
00002000000000
00000000000000
00000000000000
00000000000000
00000006000000
000003FFFC0000
00001FFFFF0000
00007FFFFFC000
0000FFFFFFE000
0003FFFFFFF000
0007FFFFFFF800
000FFE001FFC00
001FF80007FE00
003FE00003FE00
007FC00001FF00
00FF000000FF00
01FE0000007F80
03FC0000007F80
03FC0000003F80
07F80000003FC0
07F00000003FC0
0FF00000001FC0
0FE00000001FC0
1FE00000001FC0
1FC00000001FC0
3FC00000001FC0
3F800000001FC0
3F800000001FC0
7F800000001FC0
7F000000001FC0
7F000000001FC0
7F000000001FC0
7F000000001FC0
FF000000001FC0
FE000000003F80
FE000000003F80
FE000000003F80
FE000000003F80
FE000000007F00
FE000000007F00
FE00000000FF00
FE00000000FE00
FF00000001FE00
FF00000001FC00
7F00000003FC00
7F00000007F800
7F80000007F800
7F8000000FF000
3FC000001FE000
3FE000003FE000
3FE000007FC000
1FF80001FF8000
0FFC0007FF0000
0FFF001FFE0000
07FFFFFFFC0000
03FFFFFFF00000
01FFFFFFE00000
007FFFFF800000
003FFFFE000000
0007FFF0000000
00000800000000
ENDCHAR
STARTCHAR 00D5
ENCODING 213
SWIDTH 732 0
DWIDTH 57 0
BBX 50 71 8 -1
BITMAP
000000FE00F800
000003FF80F800
000007FFF3F000
00000FFFFFE000
00000FCFFFE000
00001F01FFC000
00001E00FF0000
00000000000000
00000000000000
00000000000000
00000000000000
00000000000000
00000000000000
00000000000000
00000006000000
000003FFFC0000
00001FFFFF0000
00007FFFFFC000
0000FFFFFFE000
0003FFFFFFF000
0007FFFFFFF800
000FFE001FFC00
001FF80007FE00
003FE00003FE00
007FC00001FF00
00FF000000FF00
01FE0000007F80
03FC0000007F80
03FC0000003F80
07F80000003FC0
07F00000003FC0
0FF00000001FC0
0FE00000001FC0
1FE00000001FC0
1FC00000001FC0
3FC00000001FC0
3F800000001FC0
3F800000001FC0
7F800000001FC0
7F000000001FC0
7F000000001FC0
7F000000001FC0
7F000000001FC0
FF000000001FC0
FE000000003F80
FE000000003F80
FE000000003F80
FE000000003F80
FE000000007F00
FE000000007F00
FE00000000FF00
FE00000000FE00
FF00000001FE00
FF00000001FC00
7F00000003FC00
7F00000007F800
7F80000007F800
7F8000000FF000
3FC000001FE000
3FE000003FE000
3FE000007FC000
1FF80001FF8000
0FFC0007FF0000
0FFF001FFE0000
07FFFFFFFC0000
03FFFFFFF00000
01FFFFFFE00000
007FFFFF800000
003FFFFE000000
0007FFF0000000
00000800000000
ENDCHAR
STARTCHAR 00D6
ENCODING 214
SWIDTH 732 0
DWIDTH 57 0
BBX 50 72 8 -1
BITMAP
000000E001C000
000003F007E000
000007F80FF000
00000FF80FF000
00000FF81FF000
00000FF81FF000
00000FF01FE000
000007E00FC000
000003C0078000
00000000000000
00000000000000
00000000000000
00000000000000
00000000000000
00000000000000
00000006000000
000003FFFC0000
00001FFFFF0000
00007FFFFFC000
0000FFFFFFE000
0003FFFFFFF000
0007FFFFFFF800
000FFE001FFC00
001FF80007FE00
003FE00003FE00
007FC00001FF00
00FF000000FF00
01FE0000007F80
03FC0000007F80
03FC0000003F80
07F80000003FC0
07F00000003FC0
0FF00000001FC0
0FE00000001FC0
1FE00000001FC0
1FC00000001FC0
3FC00000001FC0
3F800000001FC0
3F800000001FC0
7F800000001FC0
7F000000001FC0
7F000000001FC0
7F000000001FC0
7F000000001FC0
FF000000001FC0
FE000000003F80
FE000000003F80
FE000000003F80
FE000000003F80
FE000000007F00
FE000000007F00
FE00000000FF00
FE00000000FE00
FF00000001FE00
FF00000001FC00
7F00000003FC00
7F00000007F800
7F80000007F800
7F8000000FF000
3FC000001FE000
3FE000003FE000
3FE000007FC000
1FF80001FF8000
0FFC0007FF0000
0FFF001FFE0000
07FFFFFFFC0000
03FFFFFFF00000
01FFFFFFE00000
007FFFFF800000
003FFFFE000000
0007FFF0000000
00000800000000
ENDCHAR
STARTCHAR 00D7
ENCODING 215
SWIDTH 552 0
DWIDTH 43 0
BBX 29 25 11 11
BITMAP
01800040
03C000E0
07C003F0
0FE007F8
0FF00FF0
07F81FE0
07FC3FC0
03FE7F80
01FFFF00
00FFFE00
007FF800
003FF000
003FE000
003FF000
00FFF000
01FFF800
03FFFC00
07FBFE00
0FF1FF00
1FE0FF80
7FC07F80
FF803FC0
7E001F80
3C000F00
18000E00
ENDCHAR
STARTCHAR 00D8
ENCODING 216
SWIDTH 732 0
DWIDTH 57 0
BBX 55 61 6 -3
BITMAP
0000000000007E
000000000000FC
00000001C001FC
0000007FFF03F8
000003FFFFC3F0
00000FFFFFF7E0
00003FFFFFFFC0
0000FFFFFFFFC0
0001FFFFFFFF80
0003FFC007FF00
0007FE0001FF80
000FF80000FFC0
001FF00001FFC0
003FE00003FFE0
007FC00003FFE0
007F800007FFF0
00FF00000FCFF0
01FE00001F8FF0
01FE00003F87F0
03FC00007F07F0
03F800007E07F0
07F80000FC07F8
07F00001F807F8
07F00003F807F8
0FE00007F007F8
0FE00007E007F8
0FE0000FC007F8
1FE0001F8007F0
1FC0003F0007F0
1FC0007F0007F0
1FC0007E0007F0
1FC000FC0007F0
1FC001F80007F0
3FC003F0000FF0
3FC007F0000FE0
3F800FE0000FE0
3F800FC0001FE0
3FC01F80001FC0
3FC03F00001FC0
3FC07F00003FC0
3FC0FE00003F80
1FC0FC00007F80
1FC1F80000FF00
1FE3F00000FF00
1FE7F00001FE00
1FFFE00003FC00
0FFFC00007FC00
0FFF80000FF800
07FF00001FF000
07FE00007FE000
03FF0000FFC000
03FFE007FF8000
01FFFFFFFF0000
03FFFFFFFE0000
07FFFFFFF80000
0FFFFFFFE00000
1FC7FFFF800000
1F81FFFC000000
3F000280000000
7E000000000000
FE000000000000
ENDCHAR
STARTCHAR 00D9
ENCODING 217
SWIDTH 681 0
DWIDTH 53 0
BBX 48 75 9 -1
BITMAP
00003F800000
00001FC00000
00001FC00000
00000FC00000
00000FE00000
000007E00000
000007F00000
000003F00000
000003F00000
000001F80000
000001F80000
000000F80000
000000FC0000
0000007C0000
000000000000
000000000000
000000000000
000000000000
000000000000
000000000000
07F00000003F
07F00000007F
07F00000007F
07E00000007F
07E00000007F
0FE00000007E
0FE00000007E
0FE0000000FE
0FC0000000FE
0FC0000000FE
0FC0000000FE
1FC0000000FC
1FC0000000FC
1FC0000001FC
1F80000001FC
1F80000001FC
3F80000001FC
3F80000001F8
3F80000001F8
3F80000003F8
3F00000003F8
3F00000003F8
7F00000003F8
7F00000003F0
7F00000007F0
7F00000007F0
7E00000007F0
7E00000007F0
FE00000007E0
FE00000007E0
FE0000000FE0
FE0000000FE0
FC0000000FE0
FC0000000FC0
FC0000001FC0
FC0000001FC0
FC0000001FC0
FC0000003F80
FC0000003F80
FE0000007F00
FE0000007F00
FE000000FF00
FF000001FE00
FF000001FC00
7F800003FC00
7FC0000FF800
3FE0001FF000
3FF800FFE000
1FFFFFFFC000
0FFFFFFF8000
07FFFFFF0000
03FFFFFC0000
01FFFFF00000
003FFFC00000
0001F0000000
ENDCHAR
STARTCHAR 00DA
ENCODING 218
SWIDTH 681 0
DWIDTH 53 0
BBX 48 75 9 -1
BITMAP
000000001FC0
000000003F80
000000003F80
000000007F00
00000000FE00
00000000FC00
00000001F800
00000003F000
00000007E000
00000007E000
0000000FC000
0000001F8000
0000001F0000
0000003E0000
000000000000
000000000000
000000000000
000000000000
000000000000
000000000000
07F00000003F
07F00000007F
07F00000007F
07E00000007F
07E00000007F
0FE00000007E
0FE00000007E
0FE0000000FE
0FC0000000FE
0FC0000000FE
0FC0000000FE
1FC0000000FC
1FC0000000FC
1FC0000001FC
1F80000001FC
1F80000001FC
3F80000001FC
3F80000001F8
3F80000001F8
3F80000003F8
3F00000003F8
3F00000003F8
7F00000003F8
7F00000003F0
7F00000007F0
7F00000007F0
7E00000007F0
7E00000007F0
FE00000007E0
FE00000007E0
FE0000000FE0
FE0000000FE0
FC0000000FE0
FC0000000FC0
FC0000001FC0
FC0000001FC0
FC0000001FC0
FC0000003F80
FC0000003F80
FE0000007F00
FE0000007F00
FE000000FF00
FF000001FE00
FF000001FC00
7F800003FC00
7FC0000FF800
3FE0001FF000
3FF800FFE000
1FFFFFFFC000
0FFFFFFF8000
07FFFFFF0000
03FFFFFC0000
01FFFFF00000
003FFFC00000
0001F0000000
ENDCHAR
STARTCHAR 00DB
ENCODING 219
SWIDTH 681 0
DWIDTH 53 0
BBX 48 72 9 -1
BITMAP
0000003F8000
0000007FC000
000000FFC000
000001FFE000
000003FFF000
000007F3F800
00000FE1F800
00001FC1FC00
00003F80FE00
00007F007F00
0000FC003F00
000100000080
000000000000
000000000000
000000000000
000000000000
000000000000
07F00000003F
07F00000007F
07F00000007F
07E00000007F
07E00000007F
0FE00000007E
0FE00000007E
0FE0000000FE
0FC0000000FE
0FC0000000FE
0FC0000000FE
1FC0000000FC
1FC0000000FC
1FC0000001FC
1F80000001FC
1F80000001FC
3F80000001FC
3F80000001F8
3F80000001F8
3F80000003F8
3F00000003F8
3F00000003F8
7F00000003F8
7F00000003F0
7F00000007F0
7F00000007F0
7E00000007F0
7E00000007F0
FE00000007E0
FE00000007E0
FE0000000FE0
FE0000000FE0
FC0000000FE0
FC0000000FC0
FC0000001FC0
FC0000001FC0
FC0000001FC0
FC0000003F80
FC0000003F80
FE0000007F00
FE0000007F00
FE000000FF00
FF000001FE00
FF000001FC00
7F800003FC00
7FC0000FF800
3FE0001FF000
3FF800FFE000
1FFFFFFFC000
0FFFFFFF8000
07FFFFFF0000
03FFFFFC0000
01FFFFF00000
003FFFC00000
0001F0000000
ENDCHAR
STARTCHAR 00DC
ENCODING 220
SWIDTH 681 0
DWIDTH 53 0
BBX 48 72 9 -1
BITMAP
000007000E00
00001F803F00
00003FC07F80
00007FC07F80
00007FC0FF80
00007FC0FF80
00007F807F00
00003F007E00
00001E003C00
000000000000
000000000000
000000000000
000000000000
000000000000
000000000000
000000000000
000000000000
07F00000003F
07F00000007F
07F00000007F
07E00000007F
07E00000007F
0FE00000007E
0FE00000007E
0FE0000000FE
0FC0000000FE
0FC0000000FE
0FC0000000FE
1FC0000000FC
1FC0000000FC
1FC0000001FC
1F80000001FC
1F80000001FC
3F80000001FC
3F80000001F8
3F80000001F8
3F80000003F8
3F00000003F8
3F00000003F8
7F00000003F8
7F00000003F0
7F00000007F0
7F00000007F0
7E00000007F0
7E00000007F0
FE00000007E0
FE00000007E0
FE0000000FE0
FE0000000FE0
FC0000000FE0
FC0000000FC0
FC0000001FC0
FC0000001FC0
FC0000001FC0
FC0000003F80
FC0000003F80
FE0000007F00
FE0000007F00
FE000000FF00
FF000001FE00
FF000001FC00
7F800003FC00
7FC0000FF800
3FE0001FF000
3FF800FFE000
1FFFFFFFC000
0FFFFFFF8000
07FFFFFF0000
03FFFFFC0000
01FFFFF00000
003FFFC00000
0001F0000000
ENDCHAR
STARTCHAR 00DD
ENCODING 221
SWIDTH 604 0
DWIDTH 47 0
BBX 42 74 12 0
BITMAP
00000007F000
0000000FE000
0000000FE000
0000001FC000
0000003F8000
0000003F0000
0000007E0000
000000FC0000
000001F80000
000001F80000
000003F00000
000007E00000
000007C00000
00000F800000
000000000000
000000000000
000000000000
000000000000
000000000000
000000000000
FF0000003FC0
7F0000007F80
7F0000007F00
7F800000FE00
3F800001FE00
3F800001FC00
3F800003F800
1FC00007F800
1FC00007F000
1FC0000FE000
0FE0001FE000
0FE0001FC000
0FE0003F8000
07F0007F8000
07F0007F0000
07F000FE0000
03F801FE0000
03F801FC0000
03F803F80000
01FC07F80000
01FC07F00000
01FC0FE00000
00FE1FE00000
00FE1FC00000
00FE3F800000
007F7F000000
007F7F000000
007FFE000000
003FFC000000
003FFC000000
003FF8000000
001FF0000000
001FF0000000
001FE0000000
000FC0000000
000FC0000000
001FC0000000
001FC0000000
001FC0000000
001FC0000000
001F80000000
003F80000000
003F80000000
003F80000000
003F80000000
003F80000000
003F00000000
007F00000000
007F00000000
007F00000000
007F00000000
007F00000000
007E00000000
00FE00000000
ENDCHAR
STARTCHAR 00DE
ENCODING 222
SWIDTH 591 0
DWIDTH 46 0
BBX 42 54 6 0
BITMAP
007E00000000
007E00000000
007E00000000
00FE00000000
00FE00000000
00FE00000000
00FC00000000
00FC00000000
00FC00000000
01FFFFFE0000
01FFFFFFE000
01FFFFFFF000
01FFFFFFFC00
01FFFFFFFE00
01FFFFFFFE00
03F8000FFF00
03F80001FF80
03F800007F80
03F000003F80
03F000001FC0
03F000001FC0
07F000001FC0
07F000001FC0
07F000000FC0
07E000001FC0
07E000001FC0
0FE000001FC0
0FE000001FC0
0FE000001FC0
0FE000001F80
0FC000003F80
0FC000003F80
1FC000007F00
1FC00000FF00
1FC00000FE00
1FC00003FC00
1F800007FC00
1F80001FF800
3F8001FFF000
3FFFFFFFE000
3FFFFFFF8000
3FFFFFFF0000
3FFFFFFC0000
3FFFFFE00000
7FFFFE000000
7F0000000000
7F0000000000
7F0000000000
7E0000000000
7E0000000000
FE0000000000
FE0000000000
FE0000000000
FC0000000000
ENDCHAR
STARTCHAR 00DF
ENCODING 223
SWIDTH 565 0
DWIDTH 44 0
BBX 40 57 6 -1
BITMAP
000003F800
00003FFF80
0000FFFFE0
0003FFFFF0
0007FFFFF8
000FFFFFFC
001FF007FE
003FC001FE
003F8000FE
007F00007F
007F00007F
00FE00007F
00FE00003F
01FC00003F
01FC00003F
01F800007F
01F800007E
03F800007E
03F80000FE
03F80000FC
03F80001FC
03F00003F8
07F00007F0
07F0001FE0
07F0FFFFC0
07F0FFFF00
07F0FFFC00
07E0FFF800
0FE0FFFF00
0FE1FFFF80
0FE0007FC0
0FE0000FE0
0FC00007F0
0FC00003F0
1FC00003F0
1FC00001F8
1FC00001F8
1FC00001F8
1F800001F8
1F800001F8
3F800001F8
3F800003F8
3F800003F0
3F800003F0
3F000007F0
3F00000FE0
7F00000FE0
7F00001FC0
7F00007F80
7F0001FF80
7E000FFF00
7E07FFFE00
FE07FFF800
FE0FFFF000
FE0FFFC000
FE0FFF0000
0001E00000
ENDCHAR
STARTCHAR 00E0
ENCODING 224
SWIDTH 604 0
DWIDTH 47 0
BBX 42 61 6 -1
BITMAP
0000FE000000
0000FE000000
00007E000000
00007F000000
00003F000000
00003F800000
00001F800000
00001F800000
00000FC00000
00000FC00000
000007C00000
000007E00000
000003E00000
000000000000
000000000000
000000000000
000000000000
000000000000
00007FC00000
0003FFF80FC0
000FFFFC0FC0
001FFFFE1FC0
007FFFFF1FC0
00FFFFFF1FC0
01FFC01F9FC0
03FF0007DF80
03FC0003DF80
07F80001FF80
0FF00001FF80
0FE00000FF80
1FE00000FF80
1FC00000FF00
3FC00000FF00
3F800000FF00
3F8000007F00
7F0000007F00
7F0000007F00
7F000000FE00
7F000000FE00
FE000000FE00
FE000000FE00
FE000000FE00
FE000001FE00
FE000001FC00
FE000001FC00
FE000003FC00
FE000003FC00
FF000007FC00
FF00000FFC00
7F00000FF800
7F80001FF800
7F80003FF800
7FC000FBF800
3FF001F3F800
3FFC0FE3F800
1FFFFFC3F000
0FFFFF87F000
07FFFF07F000
03FFFC07F000
00FFF007F000
000B00000000
ENDCHAR
STARTCHAR 00E1
ENCODING 225
SWIDTH 604 0
DWIDTH 47 0
BBX 42 61 6 -1
BITMAP
00000000FE00
00000001FC00
00000001F800
00000003F000
00000007F000
0000000FE000
0000000FC000
0000001F8000
0000003F0000
0000007E0000
0000007E0000
000000FC0000
000001F80000
000000000000
000000000000
000000000000
000000000000
000000000000
00007FC00000
0003FFF80FC0
000FFFFC0FC0
001FFFFE1FC0
007FFFFF1FC0
00FFFFFF1FC0
01FFC01F9FC0
03FF0007DF80
03FC0003DF80
07F80001FF80
0FF00001FF80
0FE00000FF80
1FE00000FF80
1FC00000FF00
3FC00000FF00
3F800000FF00
3F8000007F00
7F0000007F00
7F0000007F00
7F000000FE00
7F000000FE00
FE000000FE00
FE000000FE00
FE000000FE00
FE000001FE00
FE000001FC00
FE000001FC00
FE000003FC00
FE000003FC00
FF000007FC00
FF00000FFC00
7F00000FF800
7F80001FF800
7F80003FF800
7FC000FBF800
3FF001F3F800
3FFC0FE3F800
1FFFFFC3F000
0FFFFF87F000
07FFFF07F000
03FFFC07F000
00FFF007F000
000B00000000
ENDCHAR
STARTCHAR 00E2
ENCODING 226
SWIDTH 604 0
DWIDTH 47 0
BBX 42 58 6 -1
BITMAP
000001FE0000
000003FE0000
000007FF0000
00000FFF8000
00001F9FC000
00003F0FC000
00007E0FE000
0000FC07F000
0003F803F000
0007F003F800
000FE001FC00
000000000000
000000000000
000000000000
000000000000
00007FC00000
0003FFF80FC0
000FFFFC0FC0
001FFFFE1FC0
007FFFFF1FC0
00FFFFFF1FC0
01FFC01F9FC0
03FF0007DF80
03FC0003DF80
07F80001FF80
0FF00001FF80
0FE00000FF80
1FE00000FF80
1FC00000FF00
3FC00000FF00
3F800000FF00
3F8000007F00
7F0000007F00
7F0000007F00
7F000000FE00
7F000000FE00
FE000000FE00
FE000000FE00
FE000000FE00
FE000001FE00
FE000001FC00
FE000001FC00
FE000003FC00
FE000003FC00
FF000007FC00
FF00000FFC00
7F00000FF800
7F80001FF800
7F80003FF800
7FC000FBF800
3FF001F3F800
3FFC0FE3F800
1FFFFFC3F000
0FFFFF87F000
07FFFF07F000
03FFFC07F000
00FFF007F000
000B00000000
ENDCHAR
STARTCHAR 00E3
ENCODING 227
SWIDTH 604 0
DWIDTH 47 0
BBX 42 58 6 -1
BITMAP
00001F001E00
00007FE03E00
0000FFF87E00
0001FFFFFC00
0003FFFFF800
0003E0FFF000
0007C03FE000
000780078000
000000000000
000000000000
000000000000
000000000000
000000000000
000000000000
000000000000
00007FC00000
0003FFF80FC0
000FFFFC0FC0
001FFFFE1FC0
007FFFFF1FC0
00FFFFFF1FC0
01FFC01F9FC0
03FF0007DF80
03FC0003DF80
07F80001FF80
0FF00001FF80
0FE00000FF80
1FE00000FF80
1FC00000FF00
3FC00000FF00
3F800000FF00
3F8000007F00
7F0000007F00
7F0000007F00
7F000000FE00
7F000000FE00
FE000000FE00
FE000000FE00
FE000000FE00
FE000001FE00
FE000001FC00
FE000001FC00
FE000003FC00
FE000003FC00
FF000007FC00
FF00000FFC00
7F00000FF800
7F80001FF800
7F80003FF800
7FC000FBF800
3FF001F3F800
3FFC0FE3F800
1FFFFFC3F000
0FFFFF87F000
07FFFF07F000
03FFFC07F000
00FFF007F000
000B00000000
ENDCHAR
STARTCHAR 00E4
ENCODING 228
SWIDTH 604 0
DWIDTH 47 0
BBX 42 58 6 -1
BITMAP
00007C00F800
0000FE01FC00
0001FE03FC00
0003FE03FC00
0003FE03FC00
0003FE03FC00
0001FC03F800
0001F801F000
000000000000
000000000000
000000000000
000000000000
000000000000
000000000000
000000000000
00007FC00000
0003FFF80FC0
000FFFFC0FC0
001FFFFE1FC0
007FFFFF1FC0
00FFFFFF1FC0
01FFC01F9FC0
03FF0007DF80
03FC0003DF80
07F80001FF80
0FF00001FF80
0FE00000FF80
1FE00000FF80
1FC00000FF00
3FC00000FF00
3F800000FF00
3F8000007F00
7F0000007F00
7F0000007F00
7F000000FE00
7F000000FE00
FE000000FE00
FE000000FE00
FE000000FE00
FE000001FE00
FE000001FC00
FE000001FC00
FE000003FC00
FE000003FC00
FF000007FC00
FF00000FFC00
7F00000FF800
7F80001FF800
7F80003FF800
7FC000FBF800
3FF001F3F800
3FFC0FE3F800
1FFFFFC3F000
0FFFFF87F000
07FFFF07F000
03FFFC07F000
00FFF007F000
000B00000000
ENDCHAR
STARTCHAR 00E5
ENCODING 229
SWIDTH 604 0
DWIDTH 47 0
BBX 42 62 6 -1
BITMAP
000000FE0000
000001FF0000
000003FF8000
000007878000
00000F038000
00000E038000
00000E038000
00000E038000
00000E078000
00000F0F0000
00000FFE0000
000007FC0000
000003F80000
000000000000
000000000000
000000000000
000000000000
000000000000
000000000000
00007FC00000
0003FFF80FC0
000FFFFC0FC0
001FFFFE1FC0
007FFFFF1FC0
00FFFFFF1FC0
01FFC01F9FC0
03FF0007DF80
03FC0003DF80
07F80001FF80
0FF00001FF80
0FE00000FF80
1FE00000FF80
1FC00000FF00
3FC00000FF00
3F800000FF00
3F8000007F00
7F0000007F00
7F0000007F00
7F000000FE00
7F000000FE00
FE000000FE00
FE000000FE00
FE000000FE00
FE000001FE00
FE000001FC00
FE000001FC00
FE000003FC00
FE000003FC00
FF000007FC00
FF00000FFC00
7F00000FF800
7F80001FF800
7F80003FF800
7FC000FBF800
3FF001F3F800
3FFC0FE3F800
1FFFFFC3F000
0FFFFF87F000
07FFFF07F000
03FFFC07F000
00FFF007F000
000B00000000
ENDCHAR
STARTCHAR 00E6
ENCODING 230
SWIDTH 938 0
DWIDTH 73 0
BBX 67 43 6 -1
BITMAP
00003FC00001FF8000
0001FFF8000FFFF000
0007FFFE003FFFFC00
001FFFFF007FFFFE00
003FFFFF80FFFFFF00
007FFFFFC3FFEFFF00
00FF801FC3FC00FF80
01FE000FC7F0003F80
03F80007EFC0001FC0
07F00007FF80001FC0
07E00003FF00000FC0
0FE00003FF00000FE0
0FC00003FE00000FE0
00000003FC000007E0
00000003FC000007E0
00000003F8000007E0
00000003F8000007E0
00000003F8000007E0
00000003F8000007E0
000FFFFFFFFFFFFFE0
007FFFFFFFFFFFFFE0
03FFFFFFFFFFFFFFE0
07FFFFFFFFFFFFFFE0
1FFE0007F000000000
3FE00007F000000000
3F80000FE000000000
7F00000FE000000000
7E00000FF000000000
FE00000FF000000000
FE00001FF000003F80
FE00001FF000007F00
FE00003FF800007F00
FE00007FF80000FE00
FE0000FDFC0001FC00
FE0001F9FE0003FC00
FF0007F0FF000FF800
FFC01FE0FFC07FF000
7FFFFFC07FFFFFE000
3FFFFF803FFFFFC000
1FFFFE001FFFFF0000
0FFFF8000FFFFC0000
03FFE00001FFF00000
00180000000E000000
ENDCHAR
STARTCHAR 00E7
ENCODING 231
SWIDTH 552 0
DWIDTH 43 0
BBX 39 61 6 -19
BITMAP
00003FF000
0001FFFE00
0007FFFF80
001FFFFFC0
003FFFFFE0
007FFFFFF0
00FFC01FF8
01FF0007F8
03FC0003FC
07F80001FC
07F00001FC
0FE00000FC
1FE00000FE
1FC00000FE
3F800000FE
3F800000FE
3F80000000
7F00000000
7F00000000
7F00000000
7E00000000
FE00000000
FE00000000
FE00000000
FE00000000
FE00000000
FE00000000
FE000003F8
FE000003F0
FE000007F0
7F000007E0
7F00000FE0
7F80001FC0
3F80003FC0
3FC0007F80
1FF001FF00
1FFC07FE00
0FFFFFFC00
07FFFFF800
03FFFFE000
01FFFFC000
003FFE0000
0003C00000
0003C00000
0007800000
0007800000
000FF80000
000FFE0000
001FFF0000
001FFF0000
00000F8000
0000078000
0000078000
0000078000
0000070000
00000F0000
00003E0000
003FFE0000
003FFC0000
003FF00000
003FC00000
ENDCHAR
STARTCHAR 00E8
ENCODING 232
SWIDTH 552 0
DWIDTH 43 0
BBX 38 60 6 0
BITMAP
0000FE0000
0000FE0000
00007F0000
00007F0000
00003F0000
00003F8000
00001F8000
00001F8000
00000FC000
00000FC000
000007E000
000007E000
000003E000
0000000000
0000000000
0000000000
0000000000
0000000000
00007FFE00
0001FFFF80
000FFFFFE0
001FFFFFF0
003FFFFFF0
00FFE00FF8
01FF0003FC
03FC0001FC
03F80001FC
07F00000FC
0FE00000FC
0FE00000FC
1FC00000FC
1F800000FC
3F800001FC
3F800003F8
7F000007F8
7F00001FF0
7FFFFFFFE0
7FFFFFFFC0
7FFFFFFF80
FFFFFFFE00
FFFFFFE000
FE00000000
FE00000000
FE00000000
FE00000000
FE00000000
7E00000000
7E000007F0
7F000007F0
7F00000FE0
3F80001FC0
3FC0003FC0
3FE0007F80
1FF001FF00
0FFF1FFE00
07FFFFFC00
03FFFFF800
01FFFFE000
00FFFF8000
001FFE0000
ENDCHAR
STARTCHAR 00E9
ENCODING 233
SWIDTH 552 0
DWIDTH 43 0
BBX 39 60 6 0
BITMAP
00000000FE
00000001FC
00000001F8
00000003F0
00000007F0
0000000FE0
0000000FC0
0000001F80
0000003F00
0000003E00
0000007E00
000000FC00
000001F800
0000000000
0000000000
0000000000
0000000000
0000000000
00007FFE00
0001FFFF80
000FFFFFE0
001FFFFFF0
003FFFFFF0
00FFE00FF8
01FF0003FC
03FC0001FC
03F80001FC
07F00000FC
0FE00000FC
0FE00000FC
1FC00000FC
1F800000FC
3F800001FC
3F800003F8
7F000007F8
7F00001FF0
7FFFFFFFE0
7FFFFFFFC0
7FFFFFFF80
FFFFFFFE00
FFFFFFE000
FE00000000
FE00000000
FE00000000
FE00000000
FE00000000
7E00000000
7E000007F0
7F000007F0
7F00000FE0
3F80001FC0
3FC0003FC0
3FE0007F80
1FF001FF00
0FFF1FFE00
07FFFFFC00
03FFFFF800
01FFFFE000
00FFFF8000
001FFE0000
ENDCHAR
STARTCHAR 00EA
ENCODING 234
SWIDTH 552 0
DWIDTH 43 0
BBX 38 57 6 0
BITMAP
000001FE00
000003FE00
000007FF00
00000FFF80
00001FDFC0
00003F0FC0
00007E0FE0
0000FC07F0
0001F803F8
0003F001F8
000FE001FC
0000000000
0000000000
0000000000
0000000000
00007FFE00
0001FFFF80
000FFFFFE0
001FFFFFF0
003FFFFFF0
00FFE00FF8
01FF0003FC
03FC0001FC
03F80001FC
07F00000FC
0FE00000FC
0FE00000FC
1FC00000FC
1F800000FC
3F800001FC
3F800003F8
7F000007F8
7F00001FF0
7FFFFFFFE0
7FFFFFFFC0
7FFFFFFF80
FFFFFFFE00
FFFFFFE000
FE00000000
FE00000000
FE00000000
FE00000000
FE00000000
7E00000000
7E000007F0
7F000007F0
7F00000FE0
3F80001FC0
3FC0003FC0
3FE0007F80
1FF001FF00
0FFF1FFE00
07FFFFFC00
03FFFFF800
01FFFFE000
00FFFF8000
001FFE0000
ENDCHAR
STARTCHAR 00EB
ENCODING 235
SWIDTH 552 0
DWIDTH 43 0
BBX 38 57 6 0
BITMAP
00007C00F8
0000FE01FC
0001FE03FC
0001FE03FC
0003FE03FC
0003FE03FC
0001FC03F8
0001F801F0
0000000000
0000000000
0000000000
0000000000
0000000000
0000000000
0000000000
00007FFE00
0001FFFF80
000FFFFFE0
001FFFFFF0
003FFFFFF0
00FFE00FF8
01FF0003FC
03FC0001FC
03F80001FC
07F00000FC
0FE00000FC
0FE00000FC
1FC00000FC
1F800000FC
3F800001FC
3F800003F8
7F000007F8
7F00001FF0
7FFFFFFFE0
7FFFFFFFC0
7FFFFFFF80
FFFFFFFE00
FFFFFFE000
FE00000000
FE00000000
FE00000000
FE00000000
FE00000000
7E00000000
7E000007F0
7F000007F0
7F00000FE0
3F80001FC0
3FC0003FC0
3FE0007F80
1FF001FF00
0FFF1FFE00
07FFFFFC00
03FFFFF800
01FFFFE000
00FFFF8000
001FFE0000
ENDCHAR
STARTCHAR 00EC
ENCODING 236
SWIDTH 244 0
DWIDTH 19 0
BBX 14 60 6 0
BITMAP
3F80
1FC0
1FC0
0FC0
0FE0
07E0
07F0
03F0
03F0
01F8
01F8
00F8
00FC
0000
0000
0000
0000
0000
0000
01FC
01FC
01FC
01F8
01F8
03F8
03F8
03F8
03F8
03F0
03F0
07F0
07F0
07F0
07F0
07E0
07E0
0FE0
0FE0
0FE0
0FE0
0FC0
0FC0
1FC0
1FC0
1FC0
1FC0
1F80
3F80
3F80
3F80
3F80
3F80
3F00
7F00
7F00
7F00
7F00
7F00
7E00
FE00
ENDCHAR
STARTCHAR 00ED
ENCODING 237
SWIDTH 244 0
DWIDTH 19 0
BBX 26 60 6 0
BITMAP
00001FC0
00003F80
00007F00
0000FE00
0000FC00
0001F800
0003F000
0007F000
0007E000
000FC000
001F8000
001F0000
003E0000
00000000
00000000
00000000
00000000
00000000
00000000
01FC0000
01FC0000
01FC0000
01F80000
01F80000
03F80000
03F80000
03F80000
03F80000
03F00000
03F00000
07F00000
07F00000
07F00000
07F00000
07E00000
07E00000
0FE00000
0FE00000
0FE00000
0FE00000
0FC00000
0FC00000
1FC00000
1FC00000
1FC00000
1FC00000
1F800000
3F800000
3F800000
3F800000
3F800000
3F800000
3F000000
7F000000
7F000000
7F000000
7F000000
7F000000
7E000000
FE000000
ENDCHAR
STARTCHAR 00EE
ENCODING 238
SWIDTH 244 0
DWIDTH 19 0
BBX 25 57 5 0
BITMAP
001FC000
003FE000
00FFF000
01FFF000
03FBF800
07F1FC00
0FE0FE00
1FC07E00
3F807F00
7F003F80
FE001F80
00000000
00000000
00000000
00000000
00000000
00FE0000
00FE0000
00FE0000
00FC0000
00FC0000
01FC0000
01FC0000
01FC0000
01FC0000
01F80000
01F80000
03F80000
03F80000
03F80000
03F80000
03F00000
03F00000
07F00000
07F00000
07F00000
07F00000
07E00000
07E00000
0FE00000
0FE00000
0FE00000
0FE00000
0FC00000
1FC00000
1FC00000
1FC00000
1FC00000
1FC00000
1F800000
3F800000
3F800000
3F800000
3F800000
3F800000
3F000000
7F000000
ENDCHAR
STARTCHAR 00EF
ENCODING 239
SWIDTH 244 0
DWIDTH 19 0
BBX 25 57 6 0
BITMAP
1F001F00
3F807F00
7FC07F80
7FC0FF80
7FC0FF80
7F80FF00
7F00FF00
3E007E00
00000000
00000000
00000000
00000000
00000000
00000000
00000000
00000000
01FC0000
01FC0000
01FC0000
01F80000
01F80000
03F80000
03F80000
03F80000
03F80000
03F00000
03F00000
07F00000
07F00000
07F00000
07F00000
07E00000
07E00000
0FE00000
0FE00000
0FE00000
0FE00000
0FC00000
0FC00000
1FC00000
1FC00000
1FC00000
1FC00000
1F800000
3F800000
3F800000
3F800000
3F800000
3F800000
3F000000
7F000000
7F000000
7F000000
7F000000
7F000000
7E000000
FE000000
ENDCHAR
STARTCHAR 00F0
ENCODING 240
SWIDTH 604 0
DWIDTH 47 0
BBX 45 62 6 0
BITMAP
000007F00020
000007FE00F0
000007FF83F0
000007FFCFF8
000007FFFFE0
0000007FFF80
0000001FFE00
00000007FC00
0000001FFE00
0000007FFF00
000001FEFF00
000001FC7F80
000001F07F80
000000C03F80
000000003F80
000000001FC0
000000001FC0
000000001FC0
000000000FC0
00007FC00FC0
0003FFF80FC0
000FFFFC0FC0
001FFFFE0FC0
003FFFFF0FC0
00FFFFFF8FC0
01FFC01F8FC0
01FF0007CF80
03FE0003FF80
07F80001FF80
0FF00001FF80
0FF00000FF80
1FE00000FF80
1FC00000FF00
3FC000007F00
3F8000007F00
3F8000007F00
7F0000007F00
7F0000007F00
7F0000007E00
7F000000FE00
7F000000FE00
7E000000FE00
FE000000FE00
FE000000FC00
FE000001FC00
FE000001FC00
FE000003F800
7E000003F800
7F000007F000
7F000007F000
7F00000FE000
7F80001FE000
3FC0003FC000
3FC0007F8000
1FF001FF0000
1FFE0FFE0000
0FFFFFFC0000
07FFFFF80000
03FFFFE00000
01FFFFC00000
003FFE000000
000280000000
ENDCHAR
STARTCHAR 00F1
ENCODING 241
SWIDTH 604 0
DWIDTH 47 0
BBX 41 57 6 0
BITMAP
00000F800F00
00003FE01F00
00007FF83E00
0000FFFFFE00
0001FFFFFC00
0001F07FF800
0003E01FF000
0003C0078000
000000000000
000000000000
000000000000
000000000000
000000000000
000000000000
000000000000
000001FF8000
01F807FFE000
01F81FFFF000
03F87FFFF800
03F8FFFFFC00
03F9FFFFFE00
03FBF00FFE00
03F7C003FF00
03FF0000FF00
07FE0000FF00
07FC00007F80
07F800007F80
07F800003F80
07F000003F80
07F000003F80
0FE000003F80
0FE000003F80
0FE000003F00
0FE000003F00
0FC000007F00
1FC000007F00
1FC000007F00
1FC000007F00
1FC000007E00
1FC000007E00
1F800000FE00
3F800000FE00
3F800000FE00
3F800000FE00
3F800000FC00
3F000000FC00
3F000001FC00
7F000001FC00
7F000001FC00
7F000001FC00
7F000001F800
7E000001F800
7E000003F800
FE000003F800
FE000003F800
FE000003F800
FE000003F000
ENDCHAR
STARTCHAR 00F2
ENCODING 242
SWIDTH 578 0
DWIDTH 45 0
BBX 39 61 6 -1
BITMAP
0001FC0000
0001FC0000
0000FC0000
0000FE0000
00007E0000
00007F0000
00003F0000
00003F0000
00001F8000
00001F8000
00000F8000
00000FC000
000007C000
0000000000
0000000000
0000000000
0000000000
0000000000
00003FF000
0001FFFE00
0007FFFF80
000FFFFFC0
003FFFFFE0
007FFFFFF0
00FFC01FF8
01FF0007F8
03FC0003FC
07F80003FC
07F00001FC
0FE00000FE
1FE00000FE
1FC00000FE
3F800000FE
3F800000FE
3F0000007E
7F0000007E
7F0000007E
7E000000FE
7E000000FE
FE000000FE
FE000000FE
FE000000FC
FE000001FC
FE000001FC
FE000001FC
FE000003F8
FE000003F8
FE000007F0
7F00000FF0
7F00000FE0
7F80001FC0
3F80003FC0
3FC000FF80
3FF001FF00
1FFC0FFE00
0FFFFFFC00
07FFFFF800
03FFFFE000
01FFFF8000
007FFE0000
0001C00000
ENDCHAR
STARTCHAR 00F3
ENCODING 243
SWIDTH 578 0
DWIDTH 45 0
BBX 39 61 6 -1
BITMAP
00000001FC
00000003F8
00000003F0
00000007E0
0000000FE0
0000001FC0
0000001F80
0000003F00
0000007E00
000000FC00
000000F800
000001F800
000003F000
0000000000
0000000000
0000000000
0000000000
0000000000
00003FF000
0001FFFE00
0007FFFF80
000FFFFFC0
003FFFFFE0
007FFFFFF0
00FFC01FF8
01FF0007F8
03FC0003FC
07F80003FC
07F00001FC
0FE00000FE
1FE00000FE
1FC00000FE
3F800000FE
3F800000FE
3F0000007E
7F0000007E
7F0000007E
7E000000FE
7E000000FE
FE000000FE
FE000000FE
FE000000FC
FE000001FC
FE000001FC
FE000001FC
FE000003F8
FE000003F8
FE000007F0
7F00000FF0
7F00000FE0
7F80001FC0
3F80003FC0
3FC000FF80
3FF001FF00
1FFC0FFE00
0FFFFFFC00
07FFFFF800
03FFFFE000
01FFFF8000
007FFE0000
0001C00000
ENDCHAR
STARTCHAR 00F4
ENCODING 244
SWIDTH 578 0
DWIDTH 45 0
BBX 39 58 6 -1
BITMAP
000003FC00
000007FC00
00000FFE00
00001FFF00
00003F3F80
00007E1F80
0000FC1FC0
0001F80FE0
0007F007E0
000FE007F0
001FC003F8
0000000000
0000000000
0000000000
0000000000
00003FF000
0001FFFE00
0007FFFF80
000FFFFFC0
003FFFFFE0
007FFFFFF0
00FFC01FF8
01FF0007F8
03FC0003FC
07F80003FC
07F00001FC
0FE00000FE
1FE00000FE
1FC00000FE
3F800000FE
3F800000FE
3F0000007E
7F0000007E
7F0000007E
7E000000FE
7E000000FE
FE000000FE
FE000000FE
FE000000FC
FE000001FC
FE000001FC
FE000001FC
FE000003F8
FE000003F8
FE000007F0
7F00000FF0
7F00000FE0
7F80001FC0
3F80003FC0
3FC000FF80
3FF001FF00
1FFC0FFE00
0FFFFFFC00
07FFFFF800
03FFFFE000
01FFFF8000
007FFE0000
0001C00000
ENDCHAR
STARTCHAR 00F5
ENCODING 245
SWIDTH 578 0
DWIDTH 45 0
BBX 39 58 6 -1
BITMAP
00003E003C
0000FFC07C
0001FFE0F8
0003FFFFF8
0007FFFFF0
0007C1FFE0
000F807FC0
000F000F00
0000000000
0000000000
0000000000
0000000000
0000000000
0000000000
0000000000
00003FF000
0001FFFE00
0007FFFF80
000FFFFFC0
003FFFFFE0
007FFFFFF0
00FFC01FF8
01FF0007F8
03FC0003FC
07F80003FC
07F00001FC
0FE00000FE
1FE00000FE
1FC00000FE
3F800000FE
3F800000FE
3F0000007E
7F0000007E
7F0000007E
7E000000FE
7E000000FE
FE000000FE
FE000000FE
FE000000FC
FE000001FC
FE000001FC
FE000001FC
FE000003F8
FE000003F8
FE000007F0
7F00000FF0
7F00000FE0
7F80001FC0
3F80003FC0
3FC000FF80
3FF001FF00
1FFC0FFE00
0FFFFFFC00
07FFFFF800
03FFFFE000
01FFFF8000
007FFE0000
0001C00000
ENDCHAR
STARTCHAR 00F6
ENCODING 246
SWIDTH 578 0
DWIDTH 45 0
BBX 39 58 6 -1
BITMAP
0000F801F0
0001FC03F8
0003FC07F8
0007FC07F8
0007FC07F8
0007FC07F8
0003F807F0
0003F003E0
0000000000
0000000000
0000000000
0000000000
0000000000
0000000000
0000000000
00003FF000
0001FFFE00
0007FFFF80
000FFFFFC0
003FFFFFE0
007FFFFFF0
00FFC01FF8
01FF0007F8
03FC0003FC
07F80003FC
07F00001FC
0FE00000FE
1FE00000FE
1FC00000FE
3F800000FE
3F800000FE
3F0000007E
7F0000007E
7F0000007E
7E000000FE
7E000000FE
FE000000FE
FE000000FE
FE000000FC
FE000001FC
FE000001FC
FE000001FC
FE000003F8
FE000003F8
FE000007F0
7F00000FF0
7F00000FE0
7F80001FC0
3F80003FC0
3FC000FF80
3FF001FF00
1FFC0FFE00
0FFFFFFC00
07FFFFF800
03FFFFE000
01FFFF8000
007FFE0000
0001C00000
ENDCHAR
STARTCHAR 00F7
ENCODING 247
SWIDTH 591 0
DWIDTH 46 0
BBX 32 37 9 6
BITMAP
000F0000
003F8000
007F8000
007F8000
00FF8000
00FF8000
00FF8000
007F0000
003E0000
00000000
00000000
00000000
00000000
00000000
00000000
00000000
7FFFFFFF
7FFFFFFF
7FFFFFFF
7FFFFFFF
7FFFFFFE
FFFFFFFE
00000000
00000000
00000000
00000000
00000000
00000000
000F8000
001FC000
003FE000
003FE000
003FE000
003FC000
003FC000
003F8000
000E0000
ENDCHAR
STARTCHAR 00F8
ENCODING 248
SWIDTH 591 0
DWIDTH 46 0
BBX 40 48 6 -3
BITMAP
000000001F
000000003F
000000003E
00003FF07C
0001FFFEF8
0007FFFFF8
000FFFFFF0
003FFFFFE0
007FFFFFF0
00FFC01FF8
01FF000FF8
03FC001FFC
07F8003FFC
07F0003FFC
0FE0007CFE
1FE000F8FE
1FC001F8FE
3F8001F0FE
3F8003E0FE
3F0007E07E
7F0007C07E
7F000F807E
7E001F00FE
7E003F00FE
FE003E00FE
FE007C00FE
FE00F800FC
FE00F801FC
FE01F001FC
FE03E001FC
FE07E003F8
FE07C003F8
FE0F8007F0
7F1F000FF0
7F3F000FE0
7FBE001FC0
3FFC003FC0
3FF800FF80
1FF803FF00
1FFE1FFE00
0FFFFFFC00
07FFFFF000
07FFFFE000
0FFFFF8000
1F3FFC0000
3F00000000
3E00000000
7C00000000
ENDCHAR
STARTCHAR 00F9
ENCODING 249
SWIDTH 591 0
DWIDTH 46 0
BBX 40 61 8 -1
BITMAP
0007F00000
0007F00000
0003F80000
0003F80000
0001F80000
0001FC0000
0000FC0000
0000FC0000
00007E0000
00007E0000
00003F0000
00003F0000
00001F0000
0000000000
0000000000
0000000000
0000000000
0000000000
0000000000
0FE000007F
0FE000007F
0FE000007F
0FE000007F
0FE000007F
0FC000007E
1FC00000FE
1FC00000FE
1FC00000FE
1FC00000FE
1FC00000FE
1F800000FC
3F800001FC
3F800001FC
3F800001FC
3F800001FC
3F800001FC
3F000001F8
7F000003F8
7F000003F8
7F000003F8
7F000003F8
7E000003F0
7E000007F0
FE000007F0
FE000007F0
FE000007F0
FE00000FF0
FE00000FE0
FE00001FE0
FF00001FE0
FF00003FE0
7F80007FE0
7FC001EFE0
7FE003EFC0
3FFC1FDFC0
3FFFFF9FC0
1FFFFF1FC0
0FFFFC1FC0
07FFF81FC0
03FFE01F80
003E000000
ENDCHAR
STARTCHAR 00FA
ENCODING 250
SWIDTH 591 0
DWIDTH 46 0
BBX 40 61 8 -1
BITMAP
00000007F0
0000000FE0
0000000FC0
0000001FC0
0000003F80
0000007F00
0000007E00
000000FC00
000001F800
000001F000
000003F000
000007E000
00000FC000
0000000000
0000000000
0000000000
0000000000
0000000000
0000000000
0FE000007F
0FE000007F
0FE000007F
0FE000007F
0FE000007F
0FC000007E
1FC00000FE
1FC00000FE
1FC00000FE
1FC00000FE
1FC00000FE
1F800000FC
3F800001FC
3F800001FC
3F800001FC
3F800001FC
3F800001FC
3F000001F8
7F000003F8
7F000003F8
7F000003F8
7F000003F8
7E000003F0
7E000007F0
FE000007F0
FE000007F0
FE000007F0
FE00000FF0
FE00000FE0
FE00001FE0
FF00001FE0
FF00003FE0
7F80007FE0
7FC001EFE0
7FE003EFC0
3FFC1FDFC0
3FFFFF9FC0
1FFFFF1FC0
0FFFFC1FC0
07FFF81FC0
03FFE01F80
003E000000
ENDCHAR
STARTCHAR 00FB
ENCODING 251
SWIDTH 591 0
DWIDTH 46 0
BBX 40 58 8 -1
BITMAP
00000FF000
00001FF000
00003FF800
00007FFC00
0000FEFE00
0001FC7E00
0003F07F00
0007E03F80
000FC01FC0
001F800FC0
003F000FE0
0000000000
0000000000
0000000000
0000000000
0000000000
0FE000007F
0FE000007F
0FE000007F
0FE000007F
0FE000007F
0FC000007E
1FC00000FE
1FC00000FE
1FC00000FE
1FC00000FE
1FC00000FE
1F800000FC
3F800001FC
3F800001FC
3F800001FC
3F800001FC
3F800001FC
3F000001F8
7F000003F8
7F000003F8
7F000003F8
7F000003F8
7E000003F0
7E000007F0
FE000007F0
FE000007F0
FE000007F0
FE00000FF0
FE00000FE0
FE00001FE0
FF00001FE0
FF00003FE0
7F80007FE0
7FC001EFE0
7FE003EFC0
3FFC1FDFC0
3FFFFF9FC0
1FFFFF1FC0
0FFFFC1FC0
07FFF81FC0
03FFE01F80
003E000000
ENDCHAR
STARTCHAR 00FC
ENCODING 252
SWIDTH 591 0
DWIDTH 46 0
BBX 40 58 8 -1
BITMAP
0003E007C0
0007F00FE0
000FF01FE0
000FF01FF0
001FF01FE0
001FF01FE0
000FE01FC0
0007C00F80
0000000000
0000000000
0000000000
0000000000
0000000000
0000000000
0000000000
0000000000
0FE000007F
0FE000007F
0FE000007F
0FE000007F
0FE000007F
0FC000007E
1FC00000FE
1FC00000FE
1FC00000FE
1FC00000FE
1FC00000FE
1F800000FC
3F800001FC
3F800001FC
3F800001FC
3F800001FC
3F800001FC
3F000001F8
7F000003F8
7F000003F8
7F000003F8
7F000003F8
7E000003F0
7E000007F0
FE000007F0
FE000007F0
FE000007F0
FE00000FF0
FE00000FE0
FE00001FE0
FF00001FE0
FF00003FE0
7F80007FE0
7FC001EFE0
7FE003EFC0
3FFC1FDFC0
3FFFFF9FC0
1FFFFF1FC0
0FFFFC1FC0
07FFF81FC0
03FFE01F80
003E000000
ENDCHAR
STARTCHAR 00FD
ENCODING 253
SWIDTH 488 0
DWIDTH 38 0
BBX 46 76 -1 -16
BITMAP
000000001FC0
000000003F80
000000003F00
000000007E00
00000000FE00
00000001FC00
00000001F800
00000003F000
00000007E000
00000007C000
0000000FC000
0000001F8000
0000003F0000
000000000000
000000000000
000000000000
000000000000
000000000000
000000000000
007F000001FC
007F000001FC
007F000003F8
007F000007F0
003F000007F0
003F80000FE0
003F80000FE0
003F80001FC0
003F80001FC0
001F80003F80
001FC0003F00
001FC0007F00
001FC0007E00
000FC000FE00
000FC001FC00
000FC001F800
000FE003F800
000FE003F000
0007E007F000
0007E007E000
0007E00FE000
0007F00FC000
0007F01F8000
0003F03F8000
0003F03F0000
0003F07F0000
0003F87E0000
0001F8FC0000
0001F8FC0000
0001F9F80000
0001F9F80000
0001FFF00000
0000FFF00000
0000FFE00000
0000FFC00000
0000FFC00000
00007F800000
00007F800000
00007F000000
00007E000000
0000FE000000
0000FC000000
0001FC000000
0003F8000000
0003F8000000
0007F0000000
0007E0000000
000FE0000000
001FC0000000
003FC0000000
007F80000000
77FF00000000
7FFE00000000
7FFC00000000
7FF800000000
FFE000000000
3F0000000000
ENDCHAR
STARTCHAR 00FE
ENCODING 254
SWIDTH 617 0
DWIDTH 48 0
BBX 45 76 3 -18
BITMAP
0007E0000000
000FE0000000
000FE0000000
000FE0000000
000FE0000000
000FC0000000
000FC0000000
001FC0000000
001FC0000000
001FC0000000
001FC0000000
001F80000000
001F80000000
003F80000000
003F80000000
003F80000000
003F803FF000
003F01FFFC00
007F03FFFF00
007F0FFFFF80
007F1FFFFFC0
007F3FFFFFE0
007F7F007FE0
007EFC003FF0
00FFF0001FF0
00FFE0000FF0
00FFC00007F8
00FF800007F8
00FF000003F8
00FF000003F8
01FE000003F8
01FE000003F8
01FC000003F8
01FC000003F8
01FC000003F8
01F8000003F8
03F8000003F8
03F8000003F8
03F8000003F8
03F8000003F0
03F8000007F0
03F8000007F0
07F8000007F0
07F800000FE0
07F800000FE0
07F800001FC0
07FC00003FC0
07FC00003F80
0FFE00007F80
0FFE0000FF00
0FEF0003FE00
0FEF8007FC00
0FC7F07FFC00
1FC7FFFFF800
1FC3FFFFE000
1FC1FFFFC000
1FC0FFFF0000
1FC03FFC0000
1F8001800000
3F8000000000
3F8000000000
3F8000000000
3F8000000000
3F8000000000
3F0000000000
7F0000000000
7F0000000000
7F0000000000
7F0000000000
7F0000000000
7E0000000000
FE0000000000
FE0000000000
FE0000000000
FE0000000000
FE0000000000
ENDCHAR
STARTCHAR 00FF
ENCODING 255
SWIDTH 488 0
DWIDTH 38 0
BBX 46 73 -1 -16
BITMAP
00000F801F00
00001FC03F80
00003FC07F80
00007FC07F80
00007FC07F80
00007FC07F80
00003F807F00
00003F003E00
000000000000
000000000000
000000000000
000000000000
000000000000
000000000000
000000000000
000000000000
007F000001FC
007F000001FC
007F000003F8
007F000007F0
003F000007F0
003F80000FE0
003F80000FE0
003F80001FC0
003F80001FC0
001F80003F80
001FC0003F00
001FC0007F00
001FC0007E00
000FC000FE00
000FC001FC00
000FC001F800
000FE003F800
000FE003F000
0007E007F000
0007E007E000
0007E00FE000
0007F00FC000
0007F01F8000
0003F03F8000
0003F03F0000
0003F07F0000
0003F87E0000
0001F8FC0000
0001F8FC0000
0001F9F80000
0001F9F80000
0001FFF00000
0000FFF00000
0000FFE00000
0000FFC00000
0000FFC00000
00007F800000
00007F800000
00007F000000
00007E000000
0000FE000000
0000FC000000
0001FC000000
0003F8000000
0003F8000000
0007F0000000
0007E0000000
000FE0000000
001FC0000000
003FC0000000
007F80000000
77FF00000000
7FFE00000000
7FFC00000000
7FF800000000
FFE000000000
3F0000000000
ENDCHAR
STARTCHAR 0100
ENCODING 256
SWIDTH 668 0
DWIDTH 52 0
BBX 47 66 3 0
BITMAP
000001FFFFFC
000001FFFFFC
000001FFFFFC
000003FFFFFC
000000000000
000000000000
000000000000
000000000000
000000000000
000000000000
000000000000
000000000000
00000007F000
0000000FF000
0000000FF800
0000001FF800
0000001FF800
0000003FF800
0000003FF800
0000007FFC00
0000007EFC00
000000FCFC00
000000FCFC00
000001F8FC00
000003F8FE00
000003F07E00
000007F07E00
000007E07E00
00000FE07E00
00000FC07F00
00001FC07F00
00001F803F00
00003F803F00
00003F003F00
00007E003F80
0000FE003F80
0000FC001F80
0001FC001F80
0001F8001FC0
0003F8001FC0
0003F0001FC0
0007F0000FC0
0007E0000FC0
000FE0000FE0
000FC0000FE0
001FFFFFFFE0
003FFFFFFFE0
003FFFFFFFE0
007FFFFFFFF0
007FFFFFFFF0
00FE000007F0
00FC000003F0
01FC000003F0
01F8000003F8
03F8000003F8
03F0000003F8
07F0000001F8
0FE0000001F8
0FE0000001FC
1FC0000001FC
1FC0000001FC
3F80000000FC
3F80000000FE
7F00000000FE
7E00000000FE
FE00000000FE
ENDCHAR
STARTCHAR 0101
ENCODING 257
SWIDTH 604 0
DWIDTH 47 0
BBX 42 53 6 -1
BITMAP
0003FFFFFC00
0003FFFFF800
0003FFFFF800
000000000000
000000000000
000000000000
000000000000
000000000000
000000000000
000000000000
00007FC00000
0003FFF80FC0
000FFFFC0FC0
001FFFFE1FC0
007FFFFF1FC0
00FFFFFF1FC0
01FFC01F9FC0
03FF0007DF80
03FC0003DF80
07F80001FF80
0FF00001FF80
0FE00000FF80
1FE00000FF80
1FC00000FF00
3FC00000FF00
3F800000FF00
3F8000007F00
7F0000007F00
7F0000007F00
7F000000FE00
7F000000FE00
FE000000FE00
FE000000FE00
FE000000FE00
FE000001FE00
FE000001FC00
FE000001FC00
FE000003FC00
FE000003FC00
FF000007FC00
FF00000FFC00
7F00000FF800
7F80001FF800
7F80003FF800
7FC000FBF800
3FF001F3F800
3FFC0FE3F800
1FFFFFC3F000
0FFFFF87F000
07FFFF07F000
03FFFC07F000
00FFF007F000
000B00000000
ENDCHAR
STARTCHAR 0102
ENCODING 258
SWIDTH 668 0
DWIDTH 52 0
BBX 48 69 3 0
BITMAP
000003F0003F
000003F0007E
000001F800FC
000000FE03F8
000000FFFFF0
0000007FFFE0
0000001FFF80
00000007FE00
000000000000
000000000000
000000000000
000000000000
000000000000
000000000000
000000000000
00000007F000
0000000FF000
0000000FF800
0000001FF800
0000001FF800
0000003FF800
0000003FF800
0000007FFC00
0000007EFC00
000000FCFC00
000000FCFC00
000001F8FC00
000003F8FE00
000003F07E00
000007F07E00
000007E07E00
00000FE07E00
00000FC07F00
00001FC07F00
00001F803F00
00003F803F00
00003F003F00
00007E003F80
0000FE003F80
0000FC001F80
0001FC001F80
0001F8001FC0
0003F8001FC0
0003F0001FC0
0007F0000FC0
0007E0000FC0
000FE0000FE0
000FC0000FE0
001FFFFFFFE0
003FFFFFFFE0
003FFFFFFFE0
007FFFFFFFF0
007FFFFFFFF0
00FE000007F0
00FC000003F0
01FC000003F0
01F8000003F8
03F8000003F8
03F0000003F8
07F0000001F8
0FE0000001F8
0FE0000001FC
1FC0000001FC
1FC0000001FC
3F80000000FC
3F80000000FE
7F00000000FE
7E00000000FE
FE00000000FE
ENDCHAR
STARTCHAR 0103
ENCODING 259
SWIDTH 604 0
DWIDTH 47 0
BBX 42 56 6 -1
BITMAP
0003F0007E00
0003F000FC00
0001FC01F800
0000FF9FF000
0000FFFFE000
00003FFFC000
00001FFF0000
000003F00000
000000000000
000000000000
000000000000
000000000000
000000000000
00007FC00000
0003FFF80FC0
000FFFFC0FC0
001FFFFE1FC0
007FFFFF1FC0
00FFFFFF1FC0
01FFC01F9FC0
03FF0007DF80
03FC0003DF80
07F80001FF80
0FF00001FF80
0FE00000FF80
1FE00000FF80
1FC00000FF00
3FC00000FF00
3F800000FF00
3F8000007F00
7F0000007F00
7F0000007F00
7F000000FE00
7F000000FE00
FE000000FE00
FE000000FE00
FE000000FE00
FE000001FE00
FE000001FC00
FE000001FC00
FE000003FC00
FE000003FC00
FF000007FC00
FF00000FFC00
7F00000FF800
7F80001FF800
7F80003FF800
7FC000FBF800
3FF001F3F800
3FFC0FE3F800
1FFFFFC3F000
0FFFFF87F000
07FFFF07F000
03FFFC07F000
00FFF007F000
000B00000000
ENDCHAR
STARTCHAR 0104
ENCODING 260
SWIDTH 668 0
DWIDTH 52 0
BBX 47 67 3 -13
BITMAP
00000007F000
0000000FF000
0000000FF800
0000001FF800
0000001FF800
0000003FF800
0000003FF800
0000007FFC00
0000007EFC00
000000FCFC00
000000FCFC00
000001F8FC00
000003F8FE00
000003F07E00
000007F07E00
000007E07E00
00000FE07E00
00000FC07F00
00001FC07F00
00001F803F00
00003F803F00
00003F003F00
00007E003F80
0000FE003F80
0000FC001F80
0001FC001F80
0001F8001FC0
0003F8001FC0
0003F0001FC0
0007F0000FC0
0007E0000FC0
000FE0000FE0
000FC0000FE0
001FFFFFFFE0
003FFFFFFFE0
003FFFFFFFE0
007FFFFFFFF0
007FFFFFFFF0
00FE000007F0
00FC000003F0
01FC000003F0
01F8000003F8
03F8000003F8
03F0000003F8
07F0000001F8
0FE0000001F8
0FE0000001FC
1FC0000001FC
1FC0000001FC
3F80000000FC
3F80000000FE
7F00000000FE
7E00000000FE
FE00000000FE
0000000001F8
0000000003F0
0000000007C0
000000000780
000000000F80
000000000F80
000000000F80
000000000F80
000000000FE6
000000000FFE
0000000007FE
0000000003FE
000000000030
ENDCHAR
STARTCHAR 0105
ENCODING 261
SWIDTH 604 0
DWIDTH 47 0
BBX 42 55 6 -13
BITMAP
00007FC00000
0003FFF80FC0
000FFFFC0FC0
001FFFFE1FC0
007FFFFF1FC0
00FFFFFF1FC0
01FFC01F9FC0
03FF0007DF80
03FC0003DF80
07F80001FF80
0FF00001FF80
0FE00000FF80
1FE00000FF80
1FC00000FF00
3FC00000FF00
3F800000FF00
3F8000007F00
7F0000007F00
7F0000007F00
7F000000FE00
7F000000FE00
FE000000FE00
FE000000FE00
FE000000FE00
FE000001FE00
FE000001FC00
FE000001FC00
FE000003FC00
FE000003FC00
FF000007FC00
FF00000FFC00
7F00000FF800
7F80001FF800
7F80003FF800
7FC000FBF800
3FF001F3F800
3FFC0FE3F800
1FFFFFC3F000
0FFFFF87F000
07FFFF07F000
03FFFC07F000
00FFF007F000
000B0007E000
0000000F8000
0000001F0000
0000003E0000
0000003C0000
0000007C0000
0000007C0000
0000007E0000
0000007F9800
0000003FF800
0000001FF800
0000000FF800
000000008000
ENDCHAR
STARTCHAR 0106
ENCODING 262
SWIDTH 707 0
DWIDTH 55 0
BBX 50 75 8 -1
BITMAP
0000000007F000
0000000007F000
000000000FE000
000000001FC000
000000003F8000
000000003F0000
000000007E0000
00000000FE0000
00000000FC0000
00000001F80000
00000003F00000
00000007E00000
00000007C00000
0000000F800000
00000000000000
00000000000000
00000000000000
00000000000000
00000007000000
000003FFFC0000
00000FFFFF0000
00003FFFFFC000
0000FFFFFFE000
0003FFFFFFF000
0007FFFBFFF800
000FFE001FFC00
001FF80007FE00
003FE00001FF00
007FC00000FF00
00FF0000007F00
01FE0000007F80
01FC0000003F80
03FC0000003F80
07F80000001FC0
07F00000001FC0
0FF00000001FC0
0FE00000001FC0
1FE00000000FC0
1FC00000000000
1FC00000000000
3F800000000000
3F800000000000
3F800000000000
7F000000000000
7F000000000000
7F000000000000
7F000000000000
7F000000000000
7F000000000000
FF000000000000
FE000000000000
FE000000000000
FE000000000000
FE000000000000
FE000000000000
FF000000000000
FF000000000000
7F00000001FC00
7F00000001FC00
7F00000003F800
7F80000007F800
3F80000007F000
3FC000000FE000
3FC000001FE000
1FE000007FC000
1FF00000FF8000
0FFC0003FF0000
07FF000FFE0000
07FFFFFFFC0000
03FFFFFFF00000
01FFFFFFE00000
007FFFFF800000
001FFFFE000000
0007FFF0000000
00002A00000000
ENDCHAR
STARTCHAR 0107
ENCODING 263
SWIDTH 552 0
DWIDTH 43 0
BBX 39 61 6 -1
BITMAP
00000001FC
00000003F8
00000003F0
00000007F0
0000000FE0
0000001FC0
0000001F80
0000003F00
0000007E00
0000007C00
000000FC00
000001F800
000003F000
0000000000
0000000000
0000000000
0000000000
0000000000
00003FF000
0001FFFE00
0007FFFF80
001FFFFFC0
003FFFFFE0
007FFFFFF0
00FFC01FF8
01FF0007F8
03FC0003FC
07F80001FC
07F00001FC
0FE00000FC
1FE00000FE
1FC00000FE
3F800000FE
3F800000FE
3F80000000
7F00000000
7F00000000
7F00000000
7E00000000
FE00000000
FE00000000
FE00000000
FE00000000
FE00000000
FE00000000
FE000003F8
FE000003F0
FE000007F0
7F000007E0
7F00000FE0
7F80001FC0
3F80003FC0
3FC0007F80
1FF001FF00
1FFC07FE00
0FFFFFFC00
07FFFFF800
03FFFFF000
01FFFFC000
003FFE0000
0002800000
ENDCHAR
STARTCHAR 010A
ENCODING 266
SWIDTH 707 0
DWIDTH 55 0
BBX 50 72 8 -1
BITMAP
00000001800000
00000007E00000
0000000FE00000
0000001FF00000
0000001FF00000
0000001FE00000
0000001FE00000
0000001FC00000
0000000F000000
00000000000000
00000000000000
00000000000000
00000000000000
00000000000000
00000000000000
00000007000000
000003FFFC0000
00000FFFFF0000
00003FFFFFC000
0000FFFFFFE000
0003FFFFFFF000
0007FFFBFFF800
000FFE001FFC00
001FF80007FE00
003FE00001FF00
007FC00000FF00
00FF0000007F00
01FE0000007F80
01FC0000003F80
03FC0000003F80
07F80000001FC0
07F00000001FC0
0FF00000001FC0
0FE00000001FC0
1FE00000000FC0
1FC00000000000
1FC00000000000
3F800000000000
3F800000000000
3F800000000000
7F000000000000
7F000000000000
7F000000000000
7F000000000000
7F000000000000
7F000000000000
FF000000000000
FE000000000000
FE000000000000
FE000000000000
FE000000000000
FE000000000000
FF000000000000
FF000000000000
7F00000001FC00
7F00000001FC00
7F00000003F800
7F80000007F800
3F80000007F000
3FC000000FE000
3FC000001FE000
1FE000007FC000
1FF00000FF8000
0FFC0003FF0000
07FF000FFE0000
07FFFFFFFC0000
03FFFFFFF00000
01FFFFFFE00000
007FFFFF800000
001FFFFE000000
0007FFF0000000
00002A00000000
ENDCHAR
STARTCHAR 010B
ENCODING 267
SWIDTH 552 0
DWIDTH 43 0
BBX 39 58 6 -1
BITMAP
000001F000
000003F800
000007FC00
000007FC00
000007FC00
000007F800
000007F000
000003E000
0000000000
0000000000
0000000000
0000000000
0000000000
0000000000
0000000000
00003FF000
0001FFFE00
0007FFFF80
001FFFFFC0
003FFFFFE0
007FFFFFF0
00FFC01FF8
01FF0007F8
03FC0003FC
07F80001FC
07F00001FC
0FE00000FC
1FE00000FE
1FC00000FE
3F800000FE
3F800000FE
3F80000000
7F00000000
7F00000000
7F00000000
7E00000000
FE00000000
FE00000000
FE00000000
FE00000000
FE00000000
FE00000000
FE000003F8
FE000003F0
FE000007F0
7F000007E0
7F00000FE0
7F80001FC0
3F80003FC0
3FC0007F80
1FF001FF00
1FFC07FE00
0FFFFFFC00
07FFFFF800
03FFFFF000
01FFFFC000
003FFE0000
0002800000
ENDCHAR
STARTCHAR 010C
ENCODING 268
SWIDTH 707 0
DWIDTH 55 0
BBX 50 72 8 -1
BITMAP
00001FC003F800
00000FE007F000
000007E00FE000
000007F01F8000
000003F83F0000
000001FCFE0000
000000FDFC0000
000000FFF80000
0000007FF00000
0000003FE00000
0000001FC00000
00000000000000
00000000000000
00000000000000
00000000000000
00000007000000
000003FFFC0000
00000FFFFF0000
00003FFFFFC000
0000FFFFFFE000
0003FFFFFFF000
0007FFFBFFF800
000FFE001FFC00
001FF80007FE00
003FE00001FF00
007FC00000FF00
00FF0000007F00
01FE0000007F80
01FC0000003F80
03FC0000003F80
07F80000001FC0
07F00000001FC0
0FF00000001FC0
0FE00000001FC0
1FE00000000FC0
1FC00000000000
1FC00000000000
3F800000000000
3F800000000000
3F800000000000
7F000000000000
7F000000000000
7F000000000000
7F000000000000
7F000000000000
7F000000000000
FF000000000000
FE000000000000
FE000000000000
FE000000000000
FE000000000000
FE000000000000
FF000000000000
FF000000000000
7F00000001FC00
7F00000001FC00
7F00000003F800
7F80000007F800
3F80000007F000
3FC000000FE000
3FC000001FE000
1FE000007FC000
1FF00000FF8000
0FFC0003FF0000
07FF000FFE0000
07FFFFFFFC0000
03FFFFFFF00000
01FFFFFFE00000
007FFFFF800000
001FFFFE000000
0007FFF0000000
00002A00000000
ENDCHAR
STARTCHAR 010D
ENCODING 269
SWIDTH 552 0
DWIDTH 43 0
BBX 39 58 6 -1
BITMAP
0007F001FE
0003F803F8
0001FC07F0
0000FE0FE0
00007E1FC0
00007F3F80
00003FFF00
00001FFE00
00000FFC00
00000FF800
000007E000
0000000000
0000000000
0000000000
0000000000
00003FF000
0001FFFE00
0007FFFF80
001FFFFFC0
003FFFFFE0
007FFFFFF0
00FFC01FF8
01FF0007F8
03FC0003FC
07F80001FC
07F00001FC
0FE00000FC
1FE00000FE
1FC00000FE
3F800000FE
3F800000FE
3F80000000
7F00000000
7F00000000
7F00000000
7E00000000
FE00000000
FE00000000
FE00000000
FE00000000
FE00000000
FE00000000
FE000003F8
FE000003F0
FE000007F0
7F000007E0
7F00000FE0
7F80001FC0
3F80003FC0
3FC0007F80
1FF001FF00
1FFC07FE00
0FFFFFFC00
07FFFFF800
03FFFFF000
01FFFFC000
003FFE0000
0002800000
ENDCHAR
STARTCHAR 010E
ENCODING 270
SWIDTH 681 0
DWIDTH 53 0
BBX 49 71 6 0
BITMAP
00001FC003F000
00000FC007E000
000007E00FC000
000007F03F8000
000003F87F0000
000001F8FE0000
000001FDFC0000
000000FFF80000
0000007FF00000
0000003FE00000
0000003FC00000
00000000000000
00000000000000
00000000000000
00000000000000
00000000000000
00000000000000
007FFFFFF00000
007FFFFFFE0000
007FFFFFFF8000
00FFFFFFFFC000
00FFFFFFFFE000
00FFFFFFFFF000
00FC00007FF800
00FC00001FFC00
00FC000007FE00
01FC000003FE00
01FC000001FF00
01FC000000FF00
01F8000000FF00
01F80000007F80
01F80000007F80
03F80000007F80
03F80000003F80
03F80000003F80
03F00000003F80
03F00000003F80
03F00000003F80
07F00000003F80
07F00000003F80
07F00000003F80
07E00000003F80
07E00000003F80
0FE00000003F80
0FE00000003F80
0FE00000007F00
0FE00000007F00
0FC00000007F00
0FC00000007F00
1FC0000000FE00
1FC0000000FE00
1FC0000001FE00
1F80000001FC00
1F80000003FC00
1F80000003F800
3F80000007F800
3F8000000FF000
3F8000000FF000
3F0000001FE000
3F0000003FC000
3F000000FF8000
7F000001FF8000
7F000007FF0000
7F00001FFE0000
7E0001FFFC0000
7FFFFFFFF00000
7FFFFFFFE00000
FFFFFFFF800000
FFFFFFFE000000
FFFFFFF8000000
FFFFFF80000000
ENDCHAR
STARTCHAR 010F
ENCODING 271
SWIDTH 732 0
DWIDTH 57 0
BBX 59 62 6 -1
BITMAP
0000000000000F80
0000000000001FC0
0000000000003FE0
0000000001F87FE0
0000000003F87FE0
0000000003F87FE0
0000000003F87FE0
0000000003F87FE0
0000000003F80FE0
0000000003F003E0
0000000007F003C0
0000000007F003C0
0000000007F003C0
0000000007F00380
0000000007F00780
0000000007E00F00
000000000FE01E00
000000000FE07C00
000000000FE0F800
00007FC00FE0E000
0003FFF80FE00000
000FFFFC0FC00000
001FFFFE1FC00000
007FFFFF1FC00000
00FFFFFF9FC00000
01FFC01F9FC00000
01FF0007DFC00000
03FE0003DF800000
07F80003FF800000
0FF00001FF800000
0FF00000FF800000
1FE00000FF800000
1FC00000FF000000
3FC00000FF000000
3F800000FF000000
3F8000007F000000
7F0000007F000000
7F0000007F000000
7F000000FE000000
7F000000FE000000
FE000000FE000000
FE000000FE000000
FE000000FE000000
FE000001FE000000
FE000001FC000000
FE000001FC000000
FE000003FC000000
FE000003FC000000
FF000007FC000000
FF000007FC000000
7F00000FF8000000
7F80001FF8000000
7F80003FF8000000
3FC0007BF8000000
3FF001F3F8000000
1FFC0FF3F8000000
1FFFFFE3F0000000
0FFFFF87F0000000
07FFFF07F0000000
03FFFC07F0000000
00FFF007F0000000
0003000000000000
ENDCHAR
STARTCHAR 0110
ENCODING 272
SWIDTH 707 0
DWIDTH 55 0
BBX 49 54 8 0
BITMAP
007FFFFFE00000
007FFFFFFC0000
007FFFFFFF0000
00FFFFFFFFC000
00FFFFFFFFE000
00FFFFFFFFF000
00FE0000FFF800
00FC00001FFC00
00FC000007FC00
01FC000003FE00
01FC000001FF00
01FC000000FF00
01FC0000007F00
01F80000007F80
01F80000007F80
03F80000003F80
03F80000003F80
03F80000003F80
03F80000003F80
03F00000003F80
03F00000003F80
07F00000003F80
07F00000003F80
07F00000003F80
7FFFFC00003F80
FFFFFC00003F80
FFFFFC00003F80
FFFFFC00003F80
FFFFF800003F80
0FE00000007F00
0FE00000007F00
0FC00000007F00
0FC00000007F00
1FC0000000FE00
1FC0000000FE00
1FC0000001FC00
1F80000001FC00
1F80000003F800
1F80000007F800
3F8000000FF000
3F8000000FF000
3F8000003FE000
3F0000007FC000
3F000000FF8000
3F000001FF8000
7F000007FF0000
7F00003FFC0000
7F0003FFF80000
7FFFFFFFF00000
7FFFFFFFC00000
7FFFFFFF800000
FFFFFFFC000000
FFFFFFF0000000
FFFFFF00000000
ENDCHAR
STARTCHAR 0111
ENCODING 273
SWIDTH 655 0
DWIDTH 51 0
BBX 51 59 6 -1
BITMAP
0000000001F800
0000000003F800
0000000003F800
0000000003F800
0000000003F800
0000000003F800
0000003FFFFFE0
0000003FFFFFE0
0000003FFFFFC0
0000003FFFFFC0
0000003FFFFFC0
0000000007F000
0000000007E000
000000000FE000
000000000FE000
000000000FE000
00007FC00FE000
0003FFF80FE000
000FFFFC0FC000
001FFFFE1FC000
007FFFFF1FC000
00FFFFFF9FC000
01FFC01F9FC000
01FF0007DFC000
03FE0003DF8000
07F80003FF8000
0FF00001FF8000
0FF00000FF8000
1FE00000FF8000
1FC00000FF0000
3FC00000FF0000
3F800000FF0000
3F8000007F0000
7F0000007F0000
7F0000007F0000
7F000000FE0000
7F000000FE0000
FE000000FE0000
FE000000FE0000
FE000000FE0000
FE000001FE0000
FE000001FC0000
FE000001FC0000
FE000003FC0000
FE000003FC0000
FF000007FC0000
FF000007FC0000
7F00000FF80000
7F80001FF80000
7F80003FF80000
3FC0007BF80000
3FF001F3F80000
1FFC0FF3F80000
1FFFFFE3F00000
0FFFFF87F00000
07FFFF07F00000
03FFFC07F00000
00FFF007F00000
00030000000000
ENDCHAR
STARTCHAR 0112
ENCODING 274
SWIDTH 565 0
DWIDTH 44 0
BBX 42 66 6 0
BITMAP
0000FFFFFE00
0000FFFFFE00
0000FFFFFE00
0001FFFFFE00
000000000000
000000000000
000000000000
000000000000
000000000000
000000000000
000000000000
000000000000
007FFFFFFFC0
007FFFFFFFC0
007FFFFFFFC0
00FFFFFFFFC0
00FFFFFFFFC0
00FFFFFFFFC0
00FE00000000
00FE00000000
00FC00000000
01FC00000000
01FC00000000
01FC00000000
01FC00000000
01FC00000000
01F800000000
03F800000000
03F800000000
03F800000000
03F800000000
03F800000000
03F000000000
07F000000000
07F000000000
07F000000000
07FFFFFFE000
07FFFFFFE000
0FFFFFFFE000
0FFFFFFFE000
0FFFFFFFC000
0FE000000000
0FE000000000
0FC000000000
1FC000000000
1FC000000000
1FC000000000
1FC000000000
1FC000000000
1F8000000000
3F8000000000
3F8000000000
3F8000000000
3F8000000000
3F8000000000
3F0000000000
7F0000000000
7F0000000000
7F0000000000
7F0000000000
7FFFFFFFC000
7FFFFFFFC000
FFFFFFFFC000
FFFFFFFFC000
FFFFFFFFC000
FFFFFFFF8000
ENDCHAR
STARTCHAR 0113
ENCODING 275
SWIDTH 552 0
DWIDTH 43 0
BBX 38 52 6 0
BITMAP
0003FFFFFC
0003FFFFFC
0003FFFFF8
0000000000
0000000000
0000000000
0000000000
0000000000
0000000000
0000000000
00007FFE00
0001FFFF80
000FFFFFE0
001FFFFFF0
003FFFFFF0
00FFE00FF8
01FF0003FC
03FC0001FC
03F80001FC
07F00000FC
0FE00000FC
0FE00000FC
1FC00000FC
1F800000FC
3F800001FC
3F800003F8
7F000007F8
7F00001FF0
7FFFFFFFE0
7FFFFFFFC0
7FFFFFFF80
FFFFFFFE00
FFFFFFE000
FE00000000
FE00000000
FE00000000
FE00000000
FE00000000
7E00000000
7E000007F0
7F000007F0
7F00000FE0
3F80001FC0
3FC0003FC0
3FE0007F80
1FF001FF00
0FFF1FFE00
07FFFFFC00
03FFFFF800
01FFFFE000
00FFFF8000
001FFE0000
ENDCHAR
STARTCHAR 0116
ENCODING 278
SWIDTH 565 0
DWIDTH 44 0
BBX 42 71 6 0
BITMAP
0000001C0000
0000007E0000
000000FF0000
000000FF0000
000001FF0000
000001FF0000
000001FE0000
000000FC0000
000000780000
000000000000
000000000000
000000000000
000000000000
000000000000
000000000000
000000000000
000000000000
007FFFFFFFC0
007FFFFFFFC0
007FFFFFFFC0
00FFFFFFFFC0
00FFFFFFFFC0
00FFFFFFFFC0
00FE00000000
00FE00000000
00FC00000000
01FC00000000
01FC00000000
01FC00000000
01FC00000000
01FC00000000
01F800000000
03F800000000
03F800000000
03F800000000
03F800000000
03F800000000
03F000000000
07F000000000
07F000000000
07F000000000
07FFFFFFE000
07FFFFFFE000
0FFFFFFFE000
0FFFFFFFE000
0FFFFFFFC000
0FE000000000
0FE000000000
0FC000000000
1FC000000000
1FC000000000
1FC000000000
1FC000000000
1FC000000000
1F8000000000
3F8000000000
3F8000000000
3F8000000000
3F8000000000
3F8000000000
3F0000000000
7F0000000000
7F0000000000
7F0000000000
7F0000000000
7FFFFFFFC000
7FFFFFFFC000
FFFFFFFFC000
FFFFFFFFC000
FFFFFFFFC000
FFFFFFFF8000
ENDCHAR
STARTCHAR 0117
ENCODING 279
SWIDTH 552 0
DWIDTH 43 0
BBX 38 57 6 0
BITMAP
000000F800
000001FC00
000003FE00
000003FE00
000003FC00
000003FC00
000003F800
000001F000
0000000000
0000000000
0000000000
0000000000
0000000000
0000000000
0000000000
00007FFE00
0001FFFF80
000FFFFFE0
001FFFFFF0
003FFFFFF0
00FFE00FF8
01FF0003FC
03FC0001FC
03F80001FC
07F00000FC
0FE00000FC
0FE00000FC
1FC00000FC
1F800000FC
3F800001FC
3F800003F8
7F000007F8
7F00001FF0
7FFFFFFFE0
7FFFFFFFC0
7FFFFFFF80
FFFFFFFE00
FFFFFFE000
FE00000000
FE00000000
FE00000000
FE00000000
FE00000000
7E00000000
7E000007F0
7F000007F0
7F00000FE0
3F80001FC0
3FC0003FC0
3FE0007F80
1FF001FF00
0FFF1FFE00
07FFFFFC00
03FFFFF800
01FFFFE000
00FFFF8000
001FFE0000
ENDCHAR
STARTCHAR 0118
ENCODING 280
SWIDTH 565 0
DWIDTH 44 0
BBX 42 67 6 -13
BITMAP
007FFFFFFFC0
007FFFFFFFC0
007FFFFFFFC0
00FFFFFFFFC0
00FFFFFFFFC0
00FFFFFFFFC0
00FE00000000
00FE00000000
00FC00000000
01FC00000000
01FC00000000
01FC00000000
01FC00000000
01FC00000000
01F800000000
03F800000000
03F800000000
03F800000000
03F800000000
03F800000000
03F000000000
07F000000000
07F000000000
07F000000000
07FFFFFFE000
07FFFFFFE000
0FFFFFFFE000
0FFFFFFFE000
0FFFFFFFC000
0FE000000000
0FE000000000
0FC000000000
1FC000000000
1FC000000000
1FC000000000
1FC000000000
1FC000000000
1F8000000000
3F8000000000
3F8000000000
3F8000000000
3F8000000000
3F8000000000
3F0000000000
7F0000000000
7F0000000000
7F0000000000
7F0000000000
7FFFFFFFC000
7FFFFFFFC000
FFFFFFFFC000
FFFFFFFFC000
FFFFFFFFC000
FFFFFFFF8000
0000003F0000
0000007E0000
0000007C0000
000000F80000
000000F00000
000001F00000
000001F00000
000001F80000
000001FE6000
000000FFE000
000000FFC000
0000003FC000
000000060000
ENDCHAR
STARTCHAR 0119
ENCODING 281
SWIDTH 552 0
DWIDTH 43 0
BBX 38 55 6 -13
BITMAP
00007FFE00
0001FFFF80
000FFFFFE0
001FFFFFF0
003FFFFFF0
00FFE00FF8
01FF0003FC
03FC0001FC
03F80001FC
07F00000FC
0FE00000FC
0FE00000FC
1FC00000FC
1F800000FC
3F800001FC
3F800003F8
7F000007F8
7F00001FF0
7FFFFFFFE0
7FFFFFFFC0
7FFFFFFF80
FFFFFFFE00
FFFFFFE000
FE00000000
FE00000000
FE00000000
FE00000000
FE00000000
7E00000000
7E000007F0
7F000007F0
7F00000FE0
3F80001FC0
3FC0003FC0
3FE0007F80
1FF001FF00
0FFF1FFE00
07FFFFFC00
03FFFFF800
01FFFFE000
007FFF8000
001FFC0000
0000FE0000
0001F80000
0003F00000
0003E00000
0007C00000
0007C00000
0007C00000
0007C00000
0007E00000
0007FF0000
0003FF0000
0001FF0000
00007E0000
ENDCHAR
STARTCHAR 011A
ENCODING 282
SWIDTH 565 0
DWIDTH 44 0
BBX 42 71 6 0
BITMAP
0000FC003F80
00007E007F00
00007F00FE00
00003F81FC00
00001F83F800
00001FC7F000
00000FEFE000
000007FFC000
000003FF8000
000003FF0000
000001FE0000
000000000000
000000000000
000000000000
000000000000
000000000000
000000000000
007FFFFFFFC0
007FFFFFFFC0
007FFFFFFFC0
00FFFFFFFFC0
00FFFFFFFFC0
00FFFFFFFFC0
00FE00000000
00FE00000000
00FC00000000
01FC00000000
01FC00000000
01FC00000000
01FC00000000
01FC00000000
01F800000000
03F800000000
03F800000000
03F800000000
03F800000000
03F800000000
03F000000000
07F000000000
07F000000000
07F000000000
07FFFFFFE000
07FFFFFFE000
0FFFFFFFE000
0FFFFFFFE000
0FFFFFFFC000
0FE000000000
0FE000000000
0FC000000000
1FC000000000
1FC000000000
1FC000000000
1FC000000000
1FC000000000
1F8000000000
3F8000000000
3F8000000000
3F8000000000
3F8000000000
3F8000000000
3F0000000000
7F0000000000
7F0000000000
7F0000000000
7F0000000000
7FFFFFFFC000
7FFFFFFFC000
FFFFFFFFC000
FFFFFFFFC000
FFFFFFFFC000
FFFFFFFF8000
ENDCHAR
STARTCHAR 011B
ENCODING 283
SWIDTH 552 0
DWIDTH 43 0
BBX 40 57 6 0
BITMAP
0003F800FF
0001FC01FC
0000FE03F8
00007E07F0
00003F0FE0
00003F9FC0
00001FFF80
00000FFF00
00000FFE00
000007F800
000003F000
0000000000
0000000000
0000000000
0000000000
00007FFE00
0001FFFF80
000FFFFFE0
001FFFFFF0
003FFFFFF0
00FFE00FF8
01FF0003FC
03FC0001FC
03F80001FC
07F00000FC
0FE00000FC
0FE00000FC
1FC00000FC
1F800000FC
3F800001FC
3F800003F8
7F000007F8
7F00001FF0
7FFFFFFFE0
7FFFFFFFC0
7FFFFFFF80
FFFFFFFE00
FFFFFFE000
FE00000000
FE00000000
FE00000000
FE00000000
FE00000000
7E00000000
7E000007F0
7F000007F0
7F00000FE0
3F80001FC0
3FC0003FC0
3FE0007F80
1FF001FF00
0FFF1FFE00
07FFFFFC00
03FFFFF800
01FFFFE000
00FFFF8000
001FFE0000
ENDCHAR
STARTCHAR 011E
ENCODING 286
SWIDTH 707 0
DWIDTH 55 0
BBX 49 70 8 -1
BITMAP
00001F8001F800
00000FC003F000
00000FC007E000
000007F01FC000
000007FFFF8000
000003FFFF0000
000000FFFC0000
0000003FF00000
00000000000000
00000000000000
00000000000000
00000000000000
00000000000000
0000000E000000
000003FFF80000
00001FFFFF0000
00007FFFFFC000
0000FFFFFFE000
0003FFFFFFF000
0007FFFFFFF800
000FFE001FFC00
001FF80007FC00
003FE00003FE00
007F800001FE00
00FF000000FF00
01FE0000007F00
01FC0000007F00
03F80000003F80
07F80000003F80
07F00000003F80
0FE00000003F80
0FE00000000000
1FC00000000000
1FC00000000000
1F800000000000
3F800000000000
3F800000000000
3F800000000000
7F000000000000
7F000000000000
7F000000000000
7F00003FFFFF00
7E00003FFFFE00
FE00003FFFFE00
FE00003FFFFE00
FE00007FFFFE00
FE00000000FE00
FE00000000FE00
FE00000000FC00
FE00000000FC00
FE00000001FC00
FE00000001FC00
7E00000001FC00
7F00000003F800
7F00000003F800
7F00000007F800
7F8000000FF800
3F8000000FF800
3FC000001FF800
1FE000003FF000
1FF00000FDF000
0FF80001F9F000
0FFE0007F1F000
07FFC07FE3F000
03FFFFFFC3F000
01FFFFFF83E000
00FFFFFF03E000
003FFFFC03E000
000FFFF003E000
00005C00000000
ENDCHAR
STARTCHAR 011F
ENCODING 287
SWIDTH 604 0
DWIDTH 47 0
BBX 42 71 6 -16
BITMAP
0007E0007E00
0003F000FC00
0003F803F800
0001FFBFF000
0000FFFFE000
00007FFF8000
00001FFE0000
000003E00000
000000000000
000000000000
000000000000
000000000000
000000000000
0000FFC00000
0003FFF00FC0
000FFFFC0FC0
003FFFFE1FC0
007FFFFF1FC0
00FFFFFF1FC0
01FFC01F9FC0
03FF00079F80
07FC0003DF80
07F80001FF80
0FF00001FF80
0FE00000FF80
1FE00000FF80
1FC00000FF00
3FC00000FF00
3F8000007F00
3F8000007F00
7F0000007F00
7F0000007F00
7F000000FE00
7F000000FE00
FF000000FE00
FE000000FE00
FE000000FE00
FE000001FE00
FE000001FC00
FF000003FC00
FF000003FC00
FF000007FC00
7F000007FC00
7F80000FFC00
7F80001FF800
7FC0003FF800
3FE000FBF800
3FF801F3F800
1FFFBFF3F800
1FFFFFE3F800
0FFFFF83F000
07FFFF07F000
01FFFC07F000
007FF007F000
00000007F000
00000007E000
0000000FE000
0000000FE000
0000001FC000
0000001FC000
0000003F8000
0000007F8000
000000FF0000
000001FE0000
000007FE0000
007FFFFC0000
007FFFF00000
00FFFFE00000
00FFFFC00000
00FFFF000000
007FF8000000
ENDCHAR
STARTCHAR 0120
ENCODING 288
SWIDTH 707 0
DWIDTH 55 0
BBX 49 72 8 -1
BITMAP
00000001C00000
00000007E00000
0000000FF00000
0000000FF00000
0000001FF00000
0000001FF00000
0000001FE00000
0000000FC00000
00000007800000
00000000000000
00000000000000
00000000000000
00000000000000
00000000000000
00000000000000
0000000E000000
000003FFF80000
00001FFFFF0000
00007FFFFFC000
0000FFFFFFE000
0003FFFFFFF000
0007FFFFFFF800
000FFE001FFC00
001FF80007FC00
003FE00003FE00
007F800001FE00
00FF000000FF00
01FE0000007F00
01FC0000007F00
03F80000003F80
07F80000003F80
07F00000003F80
0FE00000003F80
0FE00000000000
1FC00000000000
1FC00000000000
1F800000000000
3F800000000000
3F800000000000
3F800000000000
7F000000000000
7F000000000000
7F000000000000
7F00003FFFFF00
7E00003FFFFE00
FE00003FFFFE00
FE00003FFFFE00
FE00007FFFFE00
FE00000000FE00
FE00000000FE00
FE00000000FC00
FE00000000FC00
FE00000001FC00
FE00000001FC00
7E00000001FC00
7F00000003F800
7F00000003F800
7F00000007F800
7F8000000FF800
3F8000000FF800
3FC000001FF800
1FE000003FF000
1FF00000FDF000
0FF80001F9F000
0FFE0007F1F000
07FFC07FE3F000
03FFFFFFC3F000
01FFFFFF83E000
00FFFFFF03E000
003FFFFC03E000
000FFFF003E000
00005C00000000
ENDCHAR
STARTCHAR 0121
ENCODING 289
SWIDTH 604 0
DWIDTH 47 0
BBX 42 73 6 -16
BITMAP
000000F80000
000001FC0000
000003FC0000
000007FC0000
000007FC0000
000007FC0000
000003F80000
000003F00000
000000000000
000000000000
000000000000
000000000000
000000000000
000000000000
000000000000
0000FFC00000
0003FFF00FC0
000FFFFC0FC0
003FFFFE1FC0
007FFFFF1FC0
00FFFFFF1FC0
01FFC01F9FC0
03FF00079F80
07FC0003DF80
07F80001FF80
0FF00001FF80
0FE00000FF80
1FE00000FF80
1FC00000FF00
3FC00000FF00
3F8000007F00
3F8000007F00
7F0000007F00
7F0000007F00
7F000000FE00
7F000000FE00
FF000000FE00
FE000000FE00
FE000000FE00
FE000001FE00
FE000001FC00
FF000003FC00
FF000003FC00
FF000007FC00
7F000007FC00
7F80000FFC00
7F80001FF800
7FC0003FF800
3FE000FBF800
3FF801F3F800
1FFFBFF3F800
1FFFFFE3F800
0FFFFF83F000
07FFFF07F000
01FFFC07F000
007FF007F000
00000007F000
00000007E000
0000000FE000
0000000FE000
0000001FC000
0000001FC000
0000003F8000
0000007F8000
000000FF0000
000001FE0000
000007FE0000
007FFFFC0000
007FFFF00000
00FFFFE00000
00FFFFC00000
00FFFF000000
007FF8000000
ENDCHAR
STARTCHAR 0126
ENCODING 294
SWIDTH 681 0
DWIDTH 53 0
BBX 54 54 6 0
BITMAP
007F0000000FE0
007F0000000FE0
007F0000000FC0
007F0000001FC0
007F0000001FC0
007E0000001FC0
00FE0000001FC0
00FE0000001F80
00FE0000001F80
1FFFFFFFFFFFFC
1FFFFFFFFFFFF8
1FFFFFFFFFFFF8
1FFFFFFFFFFFF8
1FFFFFFFFFFFF8
01FC0000003F00
01FC0000007F00
01FC0000007F00
01F80000007F00
03F80000007F00
03F80000007E00
03F80000007E00
03F8000000FE00
03F8000000FE00
03F0000000FE00
07FFFFFFFFFE00
07FFFFFFFFFC00
07FFFFFFFFFC00
07FFFFFFFFFC00
07FFFFFFFFFC00
0FE0000001FC00
0FE0000001FC00
0FE0000001F800
0FE0000003F800
0FE0000003F800
0FC0000003F800
1FC0000003F800
1FC0000003F800
1FC0000003F000
1FC0000007F000
1FC0000007F000
1F80000007F000
3F80000007F000
3F80000007F000
3F80000007E000
3F8000000FE000
3F8000000FE000
3F0000000FE000
7F0000000FE000
7F0000000FE000
7F0000000FC000
7F0000001FC000
7F0000001FC000
7E0000001FC000
FE0000001FC000
ENDCHAR
STARTCHAR 0127
ENCODING 295
SWIDTH 604 0
DWIDTH 47 0
BBX 41 58 7 0
BITMAP
007F00000000
007F00000000
007F00000000
007E00000000
007E00000000
00FE00000000
3FFFFFE00000
3FFFFFE00000
3FFFFFC00000
3FFFFFC00000
3FFFFFC00000
01FC00000000
01FC00000000
01FC00000000
01FC00000000
01F800000000
01F800FFC000
03F807FFF000
03F81FFFF800
03F83FFFFC00
03F8FFFFFE00
03F1FFFFFE00
03F3F807FF00
07F3C001FF00
07F78000FF00
07FF00007F80
07FC00007F80
07FC00007F80
0FF800003F80
0FF000003F80
0FF000003F80
0FE000003F00
0FE000003F00
0FE000007F00
1FC000007F00
1FC000007F00
1FC000007F00
1FC000007E00
1FC000007E00
1F800000FE00
3F800000FE00
3F800000FE00
3F800000FE00
3F800000FC00
3F800000FC00
3F000001FC00
7F000001FC00
7F000001FC00
7F000001FC00
7F000001F800
7F000001F800
7E000003F800
FE000003F800
FE000003F800
FE000003F800
FE000003F000
FC000003F000
FC000007F000
ENDCHAR
STARTCHAR 0128
ENCODING 296
SWIDTH 231 0
DWIDTH 18 0
BBX 28 70 6 0
BITMAP
01FC01F0
07FF01E0
0FFFC7E0
1FFFFFC0
1F9FFFC0
3E03FF80
3C01FE00
00000000
00000000
00000000
00000000
00000000
00000000
00000000
00000000
00000000
007F0000
007F0000
007F0000
007E0000
00FE0000
00FE0000
00FE0000
00FE0000
00FE0000
00FC0000
01FC0000
01FC0000
01FC0000
01FC0000
01FC0000
01F80000
03F80000
03F80000
03F80000
03F80000
03F80000
03F00000
07F00000
07F00000
07F00000
07F00000
07F00000
07E00000
0FE00000
0FE00000
0FE00000
0FE00000
0FE00000
0FC00000
1FC00000
1FC00000
1FC00000
1FC00000
1F800000
1F800000
3F800000
3F800000
3F800000
3F800000
3F000000
7F000000
7F000000
7F000000
7F000000
7F000000
7E000000
FE000000
FE000000
FE000000
ENDCHAR
STARTCHAR 0129
ENCODING 297
SWIDTH 244 0
DWIDTH 19 0
BBX 26 57 6 0
BITMAP
03E003C0
0FF807C0
1FFE0F80
3FFFFF80
7FFFFF00
FC1FFE00
F80FFC00
F001E000
00000000
00000000
00000000
00000000
00000000
00000000
00000000
00000000
01FC0000
01FC0000
01FC0000
01F80000
01F80000
03F80000
03F80000
03F80000
03F80000
03F00000
03F00000
07F00000
07F00000
07F00000
07F00000
07E00000
07E00000
0FE00000
0FE00000
0FE00000
0FE00000
0FC00000
0FC00000
1FC00000
1FC00000
1FC00000
1FC00000
1F800000
3F800000
3F800000
3F800000
3F800000
3F800000
3F000000
7F000000
7F000000
7F000000
7F000000
7F000000
7E000000
FE000000
ENDCHAR
STARTCHAR 012A
ENCODING 298
SWIDTH 231 0
DWIDTH 18 0
BBX 26 66 6 0
BITMAP
1FFFFFC0
1FFFFFC0
1FFFFFC0
3FFFFFC0
00000000
00000000
00000000
00000000
00000000
00000000
00000000
00000000
007F0000
007F0000
007F0000
007E0000
00FE0000
00FE0000
00FE0000
00FE0000
00FE0000
00FC0000
01FC0000
01FC0000
01FC0000
01FC0000
01FC0000
01F80000
03F80000
03F80000
03F80000
03F80000
03F80000
03F00000
07F00000
07F00000
07F00000
07F00000
07F00000
07E00000
0FE00000
0FE00000
0FE00000
0FE00000
0FE00000
0FC00000
1FC00000
1FC00000
1FC00000
1FC00000
1F800000
1F800000
3F800000
3F800000
3F800000
3F800000
3F000000
7F000000
7F000000
7F000000
7F000000
7F000000
7E000000
FE000000
FE000000
FE000000
ENDCHAR
STARTCHAR 012B
ENCODING 299
SWIDTH 244 0
DWIDTH 19 0
BBX 24 52 6 0
BITMAP
7FFFFF
7FFFFF
7FFFFF
000000
000000
000000
000000
000000
000000
000000
000000
01FC00
01FC00
01FC00
01F800
01F800
03F800
03F800
03F800
03F800
03F000
03F000
07F000
07F000
07F000
07F000
07E000
07E000
0FE000
0FE000
0FE000
0FE000
0FC000
0FC000
1FC000
1FC000
1FC000
1FC000
1F8000
3F8000
3F8000
3F8000
3F8000
3F8000
3F0000
7F0000
7F0000
7F0000
7F0000
7F0000
7E0000
FE0000
ENDCHAR
STARTCHAR 012E
ENCODING 302
SWIDTH 231 0
DWIDTH 18 0
BBX 19 67 3 -13
BITMAP
000FE0
000FE0
000FE0
000FC0
001FC0
001FC0
001FC0
001FC0
001FC0
001F80
003F80
003F80
003F80
003F80
003F80
003F00
007F00
007F00
007F00
007F00
007F00
007E00
00FE00
00FE00
00FE00
00FE00
00FE00
00FC00
01FC00
01FC00
01FC00
01FC00
01FC00
01F800
03F800
03F800
03F800
03F800
03F000
03F000
07F000
07F000
07F000
07F000
07E000
0FE000
0FE000
0FE000
0FE000
0FE000
0FC000
1FC000
1FC000
1FC000
1F8000
3E0000
7C0000
780000
F80000
F80000
F80000
F80000
FE6000
FFE000
7FE000
3FE000
030000
ENDCHAR
STARTCHAR 012F
ENCODING 303
SWIDTH 244 0
DWIDTH 19 0
BBX 20 70 3 -13
BITMAP
0003E0
0007F0
000FF0
001FF0
001FF0
001FF0
000FE0
000FC0
000000
000000
000000
000000
000000
000000
000000
000000
003F80
003F80
003F80
003F00
003F00
007F00
007F00
007F00
007F00
007E00
007E00
00FE00
00FE00
00FE00
00FE00
00FC00
00FC00
01FC00
01FC00
01FC00
01FC00
01F800
01F800
03F800
03F800
03F800
03F800
03F000
07F000
07F000
07F000
07F000
07F000
07E000
0FE000
0FE000
0FE000
0FE000
0FE000
0FC000
1FC000
1F8000
3F0000
7C0000
7C0000
F80000
F80000
F80000
F80000
FE3000
FFE000
7FE000
3FE000
030000
ENDCHAR
STARTCHAR 0130
ENCODING 304
SWIDTH 231 0
DWIDTH 18 0
BBX 19 71 6 0
BITMAP
000380
000FC0
001FE0
001FE0
003FE0
003FE0
003FC0
001F80
000F00
000000
000000
000000
000000
000000
000000
000000
000000
007F00
007F00
007F00
007E00
00FE00
00FE00
00FE00
00FE00
00FE00
00FC00
01FC00
01FC00
01FC00
01FC00
01FC00
01F800
03F800
03F800
03F800
03F800
03F800
03F000
07F000
07F000
07F000
07F000
07F000
07E000
0FE000
0FE000
0FE000
0FE000
0FE000
0FC000
1FC000
1FC000
1FC000
1FC000
1F8000
1F8000
3F8000
3F8000
3F8000
3F8000
3F0000
7F0000
7F0000
7F0000
7F0000
7F0000
7E0000
FE0000
FE0000
FE0000
ENDCHAR
STARTCHAR 0131
ENCODING 305
SWIDTH 244 0
DWIDTH 19 0
BBX 14 41 6 0
BITMAP
01FC
01FC
01FC
01F8
01F8
03F8
03F8
03F8
03F8
03F0
03F0
07F0
07F0
07F0
07F0
07E0
07E0
0FE0
0FE0
0FE0
0FE0
0FC0
0FC0
1FC0
1FC0
1FC0
1FC0
1F80
3F80
3F80
3F80
3F80
3F80
3F00
7F00
7F00
7F00
7F00
7F00
7E00
FE00
ENDCHAR
STARTCHAR 0139
ENCODING 313
SWIDTH 527 0
DWIDTH 41 0
BBX 33 74 6 0
BITMAP
000007F000
00000FE000
00001FC000
00003F8000
00003F0000
00007E0000
0000FE0000
0000FC0000
0001F80000
0003F00000
0007E00000
0007C00000
000FC00000
001F800000
0000000000
0000000000
0000000000
0000000000
0000000000
0000000000
007F000000
007F000000
007E000000
00FE000000
00FE000000
00FE000000
00FE000000
00FE000000
00FC000000
01FC000000
01FC000000
01FC000000
01FC000000
01F8000000
01F8000000
03F8000000
03F8000000
03F8000000
03F8000000
03F0000000
03F0000000
07F0000000
07F0000000
07F0000000
07F0000000
07E0000000
0FE0000000
0FE0000000
0FE0000000
0FE0000000
0FE0000000
0FC0000000
1FC0000000
1FC0000000
1FC0000000
1FC0000000
1FC0000000
1F80000000
3F80000000
3F80000000
3F80000000
3F80000000
3F00000000
3F00000000
7F00000000
7F00000000
7F00000000
7F00000000
7FFFFFFF80
7FFFFFFF80
FFFFFFFF80
FFFFFFFF00
FFFFFFFF00
FFFFFFFF00
ENDCHAR
STARTCHAR 013A
ENCODING 314
SWIDTH 308 0
DWIDTH 24 0
BBX 28 78 7 0
BITMAP
000007F0
00000FE0
00001FC0
00001F80
00003F00
00007F00
0000FE00
0000FC00
0001F800
0003F000
0003E000
0007E000
000FC000
001F8000
00000000
00000000
00000000
00000000
00000000
00000000
007F0000
007E0000
007E0000
00FE0000
00FE0000
00FE0000
00FE0000
00FC0000
01FC0000
01FC0000
01FC0000
01FC0000
01FC0000
01F80000
03F80000
03F80000
03F80000
03F80000
03F80000
03F00000
07F00000
07F00000
07F00000
07F00000
07F00000
07E00000
0FE00000
0FE00000
0FE00000
0FE00000
0FC00000
0FC00000
1FC00000
1FC00000
1FC00000
1FC00000
1F800000
1F800000
3F800000
3F800000
3F800000
3F800000
3F000000
7F000000
7F000000
7F000000
7F000000
7F000000
7E000000
FE000000
FE000000
FF000000
FF000000
7FFE0000
7FFE0000
7FFE0000
3FFE0000
0FFC0000
ENDCHAR
STARTCHAR 013D
ENCODING 317
SWIDTH 527 0
DWIDTH 41 0
BBX 33 71 6 0
BITMAP
3F8007F000
1FC00FE000
0FE01FC000
07E03F8000
07F07F0000
03F8FE0000
01F9FC0000
00FFF00000
00FFE00000
007FC00000
003F800000
0000000000
0000000000
0000000000
0000000000
0000000000
0000000000
007F000000
007F000000
007E000000
00FE000000
00FE000000
00FE000000
00FE000000
00FE000000
00FC000000
01FC000000
01FC000000
01FC000000
01FC000000
01F8000000
01F8000000
03F8000000
03F8000000
03F8000000
03F8000000
03F0000000
03F0000000
07F0000000
07F0000000
07F0000000
07F0000000
07E0000000
0FE0000000
0FE0000000
0FE0000000
0FE0000000
0FE0000000
0FC0000000
1FC0000000
1FC0000000
1FC0000000
1FC0000000
1FC0000000
1F80000000
3F80000000
3F80000000
3F80000000
3F80000000
3F00000000
3F00000000
7F00000000
7F00000000
7F00000000
7F00000000
7FFFFFFF80
7FFFFFFF80
FFFFFFFF80
FFFFFFFF00
FFFFFFFF00
FFFFFFFF00
ENDCHAR
STARTCHAR 013E
ENCODING 318
SWIDTH 347 0
DWIDTH 27 0
BBX 20 61 7 0
BITMAP
0007C0
001FE0
001FF0
007FF0
007FF0
007FF0
00FFF0
00FFF0
00FFF0
00FFE0
00FDE0
01FDE0
01FDC0
01FDC0
01FF80
01FF80
01FF00
03FE00
03FC00
03F800
03F800
03F800
03F000
07F000
07F000
07F000
07F000
07F000
07E000
0FE000
0FE000
0FE000
0FE000
0FC000
0FC000
1FC000
1FC000
1FC000
1FC000
1F8000
1F8000
3F8000
3F8000
3F8000
3F8000
3F0000
7F0000
7F0000
7F0000
7F0000
7F0000
7E0000
FE0000
FE0000
FF0000
FF0000
7FFE00
7FFE00
7FFE00
3FFE00
0FFC00
ENDCHAR
STARTCHAR 0143
ENCODING 323
SWIDTH 707 0
DWIDTH 55 0
BBX 53 74 6 0
BITMAP
0000000001FC00
0000000003F800
0000000003F000
0000000007F000
000000000FE000
000000000FC000
000000001F8000
000000003F0000
000000007E0000
000000007E0000
00000000FC0000
00000001F80000
00000003F00000
00000003E00000
00000000000000
00000000000000
00000000000000
00000000000000
00000000000000
00000000000000
007F80000003F8
007FC0000003F0
007FC0000003F0
00FFE0000007F0
00FFE0000007F0
00FFF0000007F0
00FFF0000007F0
00FFF8000007E0
00FFF8000007E0
01FFFC00000FE0
01FFFC00000FE0
01FFFE00000FE0
01FDFE00000FE0
01F9FF00000FC0
01F8FF00000FC0
03F8FF80001FC0
03F87F80001FC0
03F87FC0001FC0
03F83FC0001FC0
03F03FE0001F80
03F01FE0003F80
07F01FF0003F80
07F00FF0003F80
07F00FF8003F80
07F007F8003F80
07E007FC003F00
0FE003FC007F00
0FE003FE007F00
0FE001FE007F00
0FE001FF007F00
0FC000FF007E00
0FC0007F007E00
1FC0007F80FE00
1FC0003F80FE00
1FC0003FC0FE00
1FC0001FC0FE00
1F80001FE0FC00
1F80000FE0FC00
3F80000FF1FC00
3F800007F1FC00
3F800007F9FC00
3F800003F9FC00
3F000003FDF800
3F000001FFF800
7F000001FFF800
7F000000FFF800
7F000000FFF800
7F0000007FF800
7E0000007FF000
7E0000003FF000
FE0000003FF000
FE0000001FF000
FE0000001FF000
FE0000000FF000
ENDCHAR
STARTCHAR 0144
ENCODING 324
SWIDTH 604 0
DWIDTH 47 0
BBX 41 60 6 0
BITMAP
000000007F00
00000000FE00
00000001FC00
00000003F800
00000003F000
00000007E000
0000000FE000
0000000FC000
0000001F8000
0000003F0000
0000007E0000
0000007C0000
000000F80000
000000000000
000000000000
000000000000
000000000000
000000000000
000001FF8000
01F807FFE000
01F81FFFF000
03F87FFFF800
03F8FFFFFC00
03F9FFFFFE00
03FBF00FFE00
03F7C003FF00
03FF0000FF00
07FE0000FF00
07FC00007F80
07F800007F80
07F800003F80
07F000003F80
07F000003F80
0FE000003F80
0FE000003F80
0FE000003F00
0FE000003F00
0FC000007F00
1FC000007F00
1FC000007F00
1FC000007F00
1FC000007E00
1FC000007E00
1F800000FE00
3F800000FE00
3F800000FE00
3F800000FE00
3F800000FC00
3F000000FC00
3F000001FC00
7F000001FC00
7F000001FC00
7F000001FC00
7F000001F800
7E000001F800
7E000003F800
FE000003F800
FE000003F800
FE000003F800
FE000003F000
ENDCHAR
STARTCHAR 0147
ENCODING 327
SWIDTH 707 0
DWIDTH 55 0
BBX 53 71 6 0
BITMAP
000007F000FC00
000003F001F800
000003F803F000
000001FC0FE000
000000FE1FC000
0000007E3F8000
0000007F7F0000
0000003FFE0000
0000001FFC0000
0000000FF80000
0000000FF00000
00000000000000
00000000000000
00000000000000
00000000000000
00000000000000
00000000000000
007F80000003F8
007FC0000003F0
007FC0000003F0
00FFE0000007F0
00FFE0000007F0
00FFF0000007F0
00FFF0000007F0
00FFF8000007E0
00FFF8000007E0
01FFFC00000FE0
01FFFC00000FE0
01FFFE00000FE0
01FDFE00000FE0
01F9FF00000FC0
01F8FF00000FC0
03F8FF80001FC0
03F87F80001FC0
03F87FC0001FC0
03F83FC0001FC0
03F03FE0001F80
03F01FE0003F80
07F01FF0003F80
07F00FF0003F80
07F00FF8003F80
07F007F8003F80
07E007FC003F00
0FE003FC007F00
0FE003FE007F00
0FE001FE007F00
0FE001FF007F00
0FC000FF007E00
0FC0007F007E00
1FC0007F80FE00
1FC0003F80FE00
1FC0003FC0FE00
1FC0001FC0FE00
1F80001FE0FC00
1F80000FE0FC00
3F80000FF1FC00
3F800007F1FC00
3F800007F9FC00
3F800003F9FC00
3F000003FDF800
3F000001FFF800
7F000001FFF800
7F000000FFF800
7F000000FFF800
7F0000007FF800
7E0000007FF000
7E0000003FF000
FE0000003FF000
FE0000001FF000
FE0000001FF000
FE0000000FF000
ENDCHAR
STARTCHAR 0148
ENCODING 328
SWIDTH 604 0
DWIDTH 47 0
BBX 41 57 6 0
BITMAP
0001FC007F00
0000FE00FE00
00007E01FC00
00007F03F800
00003F87E000
00001FCFC000
00000FFF8000
00000FFF0000
000007FE0000
000003FC0000
000001F80000
000000000000
000000000000
000000000000
000000000000
000001FF8000
01F807FFE000
01F81FFFF000
03F87FFFF800
03F8FFFFFC00
03F9FFFFFE00
03FBF00FFE00
03F7C003FF00
03FF0000FF00
07FE0000FF00
07FC00007F80
07F800007F80
07F800003F80
07F000003F80
07F000003F80
0FE000003F80
0FE000003F80
0FE000003F00
0FE000003F00
0FC000007F00
1FC000007F00
1FC000007F00
1FC000007F00
1FC000007E00
1FC000007E00
1F800000FE00
3F800000FE00
3F800000FE00
3F800000FE00
3F800000FC00
3F000000FC00
3F000001FC00
7F000001FC00
7F000001FC00
7F000001FC00
7F000001F800
7E000001F800
7E000003F800
FE000003F800
FE000003F800
FE000003F800
FE000003F000
ENDCHAR
STARTCHAR 014C
ENCODING 332
SWIDTH 732 0
DWIDTH 57 0
BBX 50 67 8 -1
BITMAP
00000FFFFFE000
00000FFFFFE000
00000FFFFFE000
00000FFFFFE000
00000000000000
00000000000000
00000000000000
00000000000000
00000000000000
00000000000000
00000006000000
000003FFFC0000
00001FFFFF0000
00007FFFFFC000
0000FFFFFFE000
0003FFFFFFF000
0007FFFFFFF800
000FFE001FFC00
001FF80007FE00
003FE00003FE00
007FC00001FF00
00FF000000FF00
01FE0000007F80
03FC0000007F80
03FC0000003F80
07F80000003FC0
07F00000003FC0
0FF00000001FC0
0FE00000001FC0
1FE00000001FC0
1FC00000001FC0
3FC00000001FC0
3F800000001FC0
3F800000001FC0
7F800000001FC0
7F000000001FC0
7F000000001FC0
7F000000001FC0
7F000000001FC0
FF000000001FC0
FE000000003F80
FE000000003F80
FE000000003F80
FE000000003F80
FE000000007F00
FE000000007F00
FE00000000FF00
FE00000000FE00
FF00000001FE00
FF00000001FC00
7F00000003FC00
7F00000007F800
7F80000007F800
7F8000000FF000
3FC000001FE000
3FE000003FE000
3FE000007FC000
1FF80001FF8000
0FFC0007FF0000
0FFF001FFE0000
07FFFFFFFC0000
03FFFFFFF00000
01FFFFFFE00000
007FFFFF800000
003FFFFE000000
0007FFF0000000
00000800000000
ENDCHAR
STARTCHAR 014D
ENCODING 333
SWIDTH 578 0
DWIDTH 45 0
BBX 39 53 6 -1
BITMAP
0007FFFFF8
0007FFFFF0
0007FFFFF0
0000000000
0000000000
0000000000
0000000000
0000000000
0000000000
0000000000
00003FF000
0001FFFE00
0007FFFF80
000FFFFFC0
003FFFFFE0
007FFFFFF0
00FFC01FF8
01FF0007F8
03FC0003FC
07F80003FC
07F00001FC
0FE00000FE
1FE00000FE
1FC00000FE
3F800000FE
3F800000FE
3F0000007E
7F0000007E
7F0000007E
7E000000FE
7E000000FE
FE000000FE
FE000000FE
FE000000FC
FE000001FC
FE000001FC
FE000001FC
FE000003F8
FE000003F8
FE000007F0
7F00000FF0
7F00000FE0
7F80001FC0
3F80003FC0
3FC000FF80
3FF001FF00
1FFC0FFE00
0FFFFFFC00
07FFFFF800
03FFFFE000
01FFFF8000
007FFE0000
0001C00000
ENDCHAR
STARTCHAR 0152
ENCODING 338
SWIDTH 951 0
DWIDTH 74 0
BBX 72 54 7 0
BITMAP
000001FFFFFFFFFFFF
00000FFFFFFFFFFFFF
00003FFFFFFFFFFFFF
0000FFFFFFFFFFFFFF
0003FFFFFFFFFFFFFF
0007FFFFFFFFFFFFFE
000FFF0003F0000000
001FF80007F0000000
003FE00007F0000000
007FC00007F0000000
00FF800007F0000000
01FE000007E0000000
03FE000007E0000000
03FC00000FE0000000
07F800000FE0000000
07F000000FE0000000
0FF000000FE0000000
0FE000000FC0000000
1FE000001FC0000000
1FC000001FC0000000
3FC000001FC0000000
3F8000001FC0000000
3F8000001FC0000000
3F8000001F80000000
7F0000003FFFFFFF80
7F0000003FFFFFFF80
7F0000003FFFFFFF00
7F0000003FFFFFFF00
7F0000003FFFFFFF00
7F0000003F00000000
7F0000007F00000000
FF0000007F00000000
FF0000007F00000000
FF0000007F00000000
FF0000007F00000000
7F0000007E00000000
7F000000FE00000000
7F000000FE00000000
7F800000FE00000000
7F800000FE00000000
7F800000FE00000000
3FC00000FC00000000
3FC00001FC00000000
3FE00001FC00000000
1FF00001FC00000000
0FFC0001FC00000000
0FFE0001F800000000
07FFC001F800000000
03FFFFFFFFFFFFFF00
01FFFFFFFFFFFFFF00
00FFFFFFFFFFFFFF00
003FFFFFFFFFFFFE00
000FFFFFFFFFFFFE00
0000FFFFFFFFFFFE00
ENDCHAR
STARTCHAR 0153
ENCODING 339
SWIDTH 977 0
DWIDTH 76 0
BBX 70 43 7 -1
BITMAP
00003FE000003FF000
0001FFFC0001FFFE00
0007FFFF0007FFFF00
000FFFFF800FFFFFC0
003FFFFFC01FFFFFE0
007FFFFFE07FE07FE0
00FFC03FF0FF000FF0
01FF000FF0FE0007F0
03FC0007F9F80003F8
07F80003FBF00001F8
07F00001FFE00001F8
0FE00001FFE00001FC
1FE00001FFC00001FC
1FC00000FF800000FC
3F800000FF800000FC
3F800000FF000000FC
3F000000FF000000FC
7F000000FF000000FC
7F000000FFFFFFFFFC
7E000000FFFFFFFFFC
7E000000FFFFFFFFFC
FE000000FFFFFFFFF8
FE000000FFFFFFFFF8
FE000001FE00000000
FE000001FE00000000
FE000001FE00000000
FE000003FE00000000
FE000003FE00000000
FE000007FE00000000
FE000007FE000007F0
7F00000FFE00000FE0
7F00001FFF00000FC0
7F00003FBF00001FC0
7F80007FBF80003F80
3FC000FF1FC000FF00
3FE003FE1FE001FE00
1FFC0FFC0FFC0FFC00
0FFFFFF80FFFFFF800
07FFFFF007FFFFF000
03FFFFC003FFFFE000
01FFFF8000FFFF8000
007FFC00003FFC0000
0003C0000001000000
ENDCHAR
STARTCHAR 0154
ENCODING 340
SWIDTH 604 0
DWIDTH 47 0
BBX 44 74 6 0
BITMAP
000000003F80
000000007F00
00000000FE00
00000001FC00
00000001F800
00000003F000
00000007F000
00000007E000
0000000FC000
0000001F8000
0000003F0000
0000003E0000
0000007E0000
000000FC0000
000000000000
000000000000
000000000000
000000000000
000000000000
000000000000
007FFFFFE000
007FFFFFF800
007FFFFFFE00
00FFFFFFFF00
00FFFFFFFF80
00FFFFFFFFC0
00FE0000FFC0
00FC00003FE0
00FC00001FE0
01FC00000FF0
01FC000007F0
01FC000007F0
01FC000007F0
01F8000007F0
01F8000007F0
03F8000007F0
03F8000007F0
03F8000007E0
03F800000FE0
03F000000FE0
03F000000FC0
07F000001FC0
07F000003F80
07F000007F80
07F00001FF00
07E00007FE00
0FE001FFFC00
0FFFFFFFF800
0FFFFFFFF000
0FFFFFFFC000
0FFFFFFF0000
0FFFFFF80000
1FC00FE00000
1FC007F00000
1FC007F00000
1FC003F80000
1F8003F80000
1F8003FC0000
3F8001FC0000
3F8001FE0000
3F8000FE0000
3F8000FF0000
3F00007F0000
3F00007F8000
7F00003F8000
7F00003FC000
7F00001FC000
7F00001FE000
7E00000FE000
7E00000FE000
FE000007F000
FE000007F000
FE000003F800
FE000003F800
ENDCHAR
STARTCHAR 0155
ENCODING 341
SWIDTH 347 0
DWIDTH 27 0
BBX 30 60 6 0
BITMAP
000001FC
000003F8
000007F0
000007E0
00000FC0
00001FC0
00003F80
00003F00
00007E00
0000FC00
0000F800
0001F000
0003F000
00000000
00000000
00000000
00000000
00000000
00000000
03F80FE0
03F83FE0
03F8FFE0
03F9FFE0
03F3FFE0
03F7FFC0
07F7F1C0
07FF0000
07FE0000
07FC0000
07F80000
07F00000
0FF00000
0FE00000
0FE00000
0FE00000
0FC00000
0FC00000
1FC00000
1FC00000
1FC00000
1FC00000
1F800000
3F800000
3F800000
3F800000
3F800000
3F800000
3F000000
7F000000
7F000000
7F000000
7F000000
7F000000
7E000000
FE000000
FE000000
FE000000
FE000000
FC000000
FC000000
ENDCHAR
STARTCHAR 0158
ENCODING 344
SWIDTH 604 0
DWIDTH 47 0
BBX 44 71 6 0
BITMAP
0001FC003F80
0000FE007F00
00007E00FE00
00003F01FC00
00003F83F800
00001FC7E000
00000FCFC000
000007FF8000
000007FF0000
000003FE0000
000001FC0000
000000000000
000000000000
000000000000
000000000000
000000000000
000000000000
007FFFFFE000
007FFFFFF800
007FFFFFFE00
00FFFFFFFF00
00FFFFFFFF80
00FFFFFFFFC0
00FE0000FFC0
00FC00003FE0
00FC00001FE0
01FC00000FF0
01FC000007F0
01FC000007F0
01FC000007F0
01F8000007F0
01F8000007F0
03F8000007F0
03F8000007F0
03F8000007E0
03F800000FE0
03F000000FE0
03F000000FC0
07F000001FC0
07F000003F80
07F000007F80
07F00001FF00
07E00007FE00
0FE001FFFC00
0FFFFFFFF800
0FFFFFFFF000
0FFFFFFFC000
0FFFFFFF0000
0FFFFFF80000
1FC00FE00000
1FC007F00000
1FC007F00000
1FC003F80000
1F8003F80000
1F8003FC0000
3F8001FC0000
3F8001FE0000
3F8000FE0000
3F8000FF0000
3F00007F0000
3F00007F8000
7F00003F8000
7F00003FC000
7F00001FC000
7F00001FE000
7E00000FE000
7E00000FE000
FE000007F000
FE000007F000
FE000003F800
FE000003F800
ENDCHAR
STARTCHAR 0159
ENCODING 345
SWIDTH 347 0
DWIDTH 27 0
BBX 30 57 6 0
BITMAP
07F001FC
03F803F8
01FC07F0
00FC0FE0
00FE1FC0
007F3F80
003FFE00
001FFC00
001FF800
000FF000
0007E000
00000000
00000000
00000000
00000000
00000000
03F80FE0
03F83FE0
03F8FFE0
03F9FFE0
03F3FFE0
03F7FFC0
07F7F1C0
07FF0000
07FE0000
07FC0000
07F80000
07F00000
0FF00000
0FE00000
0FE00000
0FE00000
0FC00000
0FC00000
1FC00000
1FC00000
1FC00000
1FC00000
1F800000
3F800000
3F800000
3F800000
3F800000
3F800000
3F000000
7F000000
7F000000
7F000000
7F000000
7F000000
7E000000
FE000000
FE000000
FE000000
FE000000
FC000000
FC000000
ENDCHAR
STARTCHAR 015A
ENCODING 346
SWIDTH 591 0
DWIDTH 46 0
BBX 43 75 6 -1
BITMAP
000000000FE0
000000001FC0
000000001F80
000000003F80
000000007F00
00000000FE00
00000000FC00
00000001F800
00000003F000
00000003F000
00000007E000
0000000FC000
0000001F8000
0000001F0000
000000000000
000000000000
000000000000
000000000000
000000F80000
00001FFFC000
00007FFFF000
0001FFFFF800
0007FFFFFE00
000FFFFFFF00
001FFF0FFF00
003FF001FF80
007FC0007FC0
007F80003FC0
00FF00003FC0
00FE00001FE0
01FC00001FE0
01FC00001FE0
03F800001FE0
03F800000FE0
03F800000FE0
03F800000000
03F800000000
03F800000000
03FC00000000
03FC00000000
01FF00000000
01FF80000000
00FFF8000000
00FFFFC00000
007FFFFC0000
001FFFFF0000
000FFFFFC000
0001FFFFF000
00001FFFF800
000000FFFC00
0000000FFC00
00000003FE00
00000001FE00
00000000FE00
00000000FF00
00000000FF00
FF000000FF00
FF000000FF00
FF000000FE00
FF000000FE00
7F000000FE00
7F800001FE00
7F800001FC00
7F800003FC00
7FC00007F800
3FE0000FF800
3FF0001FF000
1FF800FFE000
0FFFFFFFC000
0FFFFFFF8000
07FFFFFF0000
01FFFFFC0000
00FFFFF00000
003FFF800000
0001F8000000
ENDCHAR
STARTCHAR 015B
ENCODING 347
SWIDTH 488 0
DWIDTH 38 0
BBX 36 62 6 -1
BITMAP
00000007F0
0000000FE0
0000001FC0
0000001F80
0000003F80
0000007F00
0000007E00
000000FC00
000001F800
000003F000
000003E000
000007E000
00000FC000
00000F8000
0000000000
0000000000
0000000000
0000000000
0000000000
0001FF8000
000FFFF000
003FFFFC00
007FFFFE00
00FFFFFF00
01FF03FF00
03FC00FF80
07F8007F80
07E0003F80
0FE0003FC0
0FC0001FC0
0FC0001FC0
0FC0001FC0
0FC0000000
0FC0000000
0FE0000000
0FF0000000
0FFC000000
07FFF00000
03FFFF0000
01FFFFE000
007FFFF000
001FFFF800
0000FFFC00
000007FE00
000001FE00
000000FE00
0000007E00
0000007E00
FC00007E00
FE00007E00
FE0000FE00
FE0000FE00
FF0001FC00
FF0003FC00
7F8007F800
7FE01FF000
3FFFFFE000
1FFFFFC000
0FFFFF8000
07FFFE0000
01FFF00000
0005000000
ENDCHAR
STARTCHAR 015E
ENCODING 350
SWIDTH 591 0
DWIDTH 46 0
BBX 43 75 6 -19
BITMAP
000000F80000
00001FFFC000
00007FFFF000
0001FFFFF800
0007FFFFFE00
000FFFFFFF00
001FFF0FFF00
003FF001FF80
007FC0007FC0
007F80003FC0
00FF00003FC0
00FE00001FE0
01FC00001FE0
01FC00001FE0
03F800001FE0
03F800000FE0
03F800000FE0
03F800000000
03F800000000
03F800000000
03FC00000000
03FC00000000
01FF00000000
01FF80000000
00FFF8000000
00FFFFC00000
007FFFFC0000
001FFFFF0000
000FFFFFC000
0001FFFFF000
00001FFFF800
000000FFFC00
0000000FFC00
00000003FE00
00000001FE00
00000000FE00
00000000FF00
00000000FF00
FF000000FF00
FF000000FF00
FF000000FE00
FF000000FE00
7F000000FE00
7F800001FE00
7F800001FC00
7F800003FC00
7FC00007F800
3FE0000FF800
3FF0001FF000
1FF800FFE000
0FFFFFFFC000
0FFFFFFF8000
07FFFFFF0000
01FFFFFC0000
00FFFFF00000
003FFF800000
0001F0000000
0001E0000000
0003C0000000
0003C0000000
000780000000
0007FE000000
000FFF000000
000FFF800000
000007C00000
000003C00000
000003C00000
000003C00000
000007800000
000007800000
00000F000000
001FFF000000
001FFE000000
001FFC000000
001FF0000000
ENDCHAR
STARTCHAR 015F
ENCODING 351
SWIDTH 488 0
DWIDTH 38 0
BBX 34 61 6 -19
BITMAP
0001FF8000
000FFFF000
003FFFFC00
007FFFFE00
00FFFFFF00
01FF03FF00
03FC00FF80
07F8007F80
07E0003F80
0FE0003FC0
0FC0001FC0
0FC0001FC0
0FC0001FC0
0FC0000000
0FC0000000
0FE0000000
0FF0000000
0FFC000000
07FFF00000
03FFFF0000
01FFFFE000
007FFFF000
001FFFF800
0000FFFC00
000007FE00
000001FE00
000000FE00
0000007E00
0000007E00
FC00007E00
FE00007E00
FE0000FE00
FE0000FE00
FF0001FC00
FF0003FC00
7F8007F800
7FE01FF000
3FFFFFE000
1FFFFFC000
0FFFFF8000
07FFFE0000
01FFF00000
000F000000
000F000000
001E000000
001E000000
003F800000
003FF00000
007FF80000
007FFC0000
00003C0000
00001E0000
00001E0000
00001C0000
00003C0000
00003C0000
0000F80000
00FFF80000
00FFF00000
00FFC00000
00FF000000
ENDCHAR
STARTCHAR 0160
ENCODING 352
SWIDTH 591 0
DWIDTH 46 0
BBX 43 72 6 -1
BITMAP
00003F8007E0
00001F800FC0
00001FC03F80
00000FE07F00
000007E0FE00
000003F1FC00
000003FBF800
000001FFF000
000000FFE000
000000FFC000
0000007F8000
000000000000
000000000000
000000000000
000000000000
000000F80000
00001FFFC000
00007FFFF000
0001FFFFF800
0007FFFFFE00
000FFFFFFF00
001FFF0FFF00
003FF001FF80
007FC0007FC0
007F80003FC0
00FF00003FC0
00FE00001FE0
01FC00001FE0
01FC00001FE0
03F800001FE0
03F800000FE0
03F800000FE0
03F800000000
03F800000000
03F800000000
03FC00000000
03FC00000000
01FF00000000
01FF80000000
00FFF8000000
00FFFFC00000
007FFFFC0000
001FFFFF0000
000FFFFFC000
0001FFFFF000
00001FFFF800
000000FFFC00
0000000FFC00
00000003FE00
00000001FE00
00000000FE00
00000000FF00
00000000FF00
FF000000FF00
FF000000FF00
FF000000FE00
FF000000FE00
7F000000FE00
7F800001FE00
7F800001FC00
7F800003FC00
7FC00007F800
3FE0000FF800
3FF0001FF000
1FF800FFE000
0FFFFFFFC000
0FFFFFFF8000
07FFFFFF0000
01FFFFFC0000
00FFFFF00000
003FFF800000
0001F8000000
ENDCHAR
STARTCHAR 0161
ENCODING 353
SWIDTH 488 0
DWIDTH 38 0
BBX 36 59 6 -1
BITMAP
001F8007F0
000FC00FE0
000FE01FC0
0007F03F80
0003F07F00
0003F8FE00
0001FDFC00
0000FFF800
00007FF000
00007FC000
00003F8000
0000000000
0000000000
0000000000
0000000000
0000000000
0001FF8000
000FFFF000
003FFFFC00
007FFFFE00
00FFFFFF00
01FF03FF00
03FC00FF80
07F8007F80
07E0003F80
0FE0003FC0
0FC0001FC0
0FC0001FC0
0FC0001FC0
0FC0000000
0FC0000000
0FE0000000
0FF0000000
0FFC000000
07FFF00000
03FFFF0000
01FFFFE000
007FFFF000
001FFFF800
0000FFFC00
000007FE00
000001FE00
000000FE00
0000007E00
0000007E00
FC00007E00
FE00007E00
FE0000FE00
FE0000FE00
FF0001FC00
FF0003FC00
7F8007F800
7FE01FF000
3FFFFFE000
1FFFFFC000
0FFFFF8000
07FFFE0000
01FFF00000
0005000000
ENDCHAR
STARTCHAR 0162
ENCODING 354
SWIDTH 578 0
DWIDTH 45 0
BBX 39 73 12 -19
BITMAP
7FFFFFFFFE
FFFFFFFFFE
FFFFFFFFFE
FFFFFFFFFE
FFFFFFFFFE
FFFFFFFFFE
0000FC0000
0001FC0000
0001FC0000
0001FC0000
0001FC0000
0001F80000
0001F80000
0003F80000
0003F80000
0003F80000
0003F80000
0003F00000
0003F00000
0007F00000
0007F00000
0007F00000
0007F00000
0007E00000
0007E00000
000FE00000
000FE00000
000FE00000
000FE00000
000FC00000
000FC00000
001FC00000
001FC00000
001FC00000
001FC00000
001F800000
003F800000
003F800000
003F800000
003F800000
003F800000
003F000000
007F000000
007F000000
007F000000
007F000000
007F000000
007E000000
00FE000000
00FE000000
00FE000000
00FE000000
00FC000000
00FC000000
00F0000000
01F0000000
01E0000000
01E0000000
03F0000000
03FF000000
07FF800000
07FFC00000
0007C00000
0003C00000
0001C00000
0001C00000
0003C00000
0007C00000
000F800000
0FFF000000
0FFF000000
0FFC000000
1FF0000000
ENDCHAR
STARTCHAR 0163
ENCODING 355
SWIDTH 398 0
DWIDTH 31 0
BBX 24 73 9 -19
BITMAP
003F80
003F80
003F80
003F00
003F00
007F00
007F00
007F00
007F00
007E00
00FE00
00FE00
00FE00
FFFFFF
FFFFFF
FFFFFF
FFFFFF
FFFFFF
01FC00
01FC00
01FC00
01F800
03F800
03F800
03F800
03F800
03F800
03F000
07F000
07F000
07F000
07F000
07E000
07E000
0FE000
0FE000
0FE000
0FE000
0FC000
0FC000
1FC000
1FC000
1FC000
1FC000
1FC000
3F8000
3F8000
3FC000
3FC000
3FFFC0
1FFFC0
1FFFC0
0FFFC0
03FFC0
01E000
03C000
03C000
078000
07F000
0FFE00
0FFF00
1FFF80
000780
000780
000380
000780
000780
000F80
001F00
1FFE00
1FFC00
3FF800
3FE000
ENDCHAR
STARTCHAR 0164
ENCODING 356
SWIDTH 578 0
DWIDTH 45 0
BBX 39 71 12 0
BITMAP
003F8007F0
001FC00FE0
000FC01F80
000FE03F00
0007F07E00
0003F1FC00
0001FBF800
0001FFF000
0000FFE000
00007FC000
00007F8000
0000000000
0000000000
0000000000
0000000000
0000000000
0000000000
7FFFFFFFFE
FFFFFFFFFE
FFFFFFFFFE
FFFFFFFFFE
FFFFFFFFFE
FFFFFFFFFE
0000FC0000
0001FC0000
0001FC0000
0001FC0000
0001FC0000
0001F80000
0001F80000
0003F80000
0003F80000
0003F80000
0003F80000
0003F00000
0003F00000
0007F00000
0007F00000
0007F00000
0007F00000
0007E00000
0007E00000
000FE00000
000FE00000
000FE00000
000FE00000
000FC00000
000FC00000
001FC00000
001FC00000
001FC00000
001FC00000
001F800000
003F800000
003F800000
003F800000
003F800000
003F800000
003F000000
007F000000
007F000000
007F000000
007F000000
007F000000
007E000000
00FE000000
00FE000000
00FE000000
00FE000000
00FC000000
00FC000000
ENDCHAR
STARTCHAR 0165
ENCODING 357
SWIDTH 488 0
DWIDTH 38 0
BBX 29 61 9 0
BITMAP
000003E0
00000FF0
00000FF8
00001FF8
00001FF8
00001FF8
00001FF8
003F9FF8
003F83F8
003F80F0
003F00F0
003F00F0
007F00E0
007F01E0
007F01C0
007F03C0
007E0780
00FE1F00
00FE3C00
00FE3800
FFFFFF00
FFFFFF00
FFFFFF00
FFFFFF00
FFFFFF00
01FC0000
01FC0000
01FC0000
01F80000
03F80000
03F80000
03F80000
03F80000
03F80000
03F00000
07F00000
07F00000
07F00000
07F00000
07E00000
07E00000
0FE00000
0FE00000
0FE00000
0FE00000
0FC00000
0FC00000
1FC00000
1FC00000
1FC00000
1FC00000
1FC00000
1F800000
3F800000
3FC00000
3FC00000
3FFFC000
1FFFC000
1FFFC000
0FFFC000
03FFC000
ENDCHAR
STARTCHAR 0166
ENCODING 358
SWIDTH 578 0
DWIDTH 45 0
BBX 40 54 11 0
BITMAP
3FFFFFFFFF
7FFFFFFFFF
7FFFFFFFFF
7FFFFFFFFF
7FFFFFFFFF
7FFFFFFFFF
00007E0000
0000FE0000
0000FE0000
0000FE0000
0000FE0000
0000FC0000
0000FC0000
0001FC0000
0001FC0000
0001FC0000
0001FC0000
0001F80000
0001F80000
0003F80000
0003F80000
0003F80000
7FFFFFFFC0
7FFFFFFF80
7FFFFFFF80
FFFFFFFF80
0007F00000
0007F00000
0007F00000
0007E00000
000FE00000
000FE00000
000FE00000
000FE00000
000FE00000
000FC00000
001FC00000
001FC00000
001FC00000
001FC00000
001FC00000
001F800000
003F800000
003F800000
003F800000
003F800000
003F800000
003F000000
007F000000
007F000000
007F000000
007F000000
007E000000
007E000000
ENDCHAR
STARTCHAR 0167
ENCODING 359
SWIDTH 385 0
DWIDTH 30 0
BBX 27 54 6 0
BITMAP
0007F000
0007F000
0007F000
0007E000
0007E000
000FE000
000FE000
000FE000
000FE000
000FC000
000FC000
001FC000
001FC000
1FFFFFE0
1FFFFFE0
1FFFFFE0
1FFFFFE0
1FFFFFE0
003F8000
003F8000
003F8000
003F0000
007F0000
007F0000
007F0000
007F0000
007F0000
007E0000
00FE0000
7FFFFF80
7FFFFF80
FFFFFF00
FFFFFF00
00FC0000
01FC0000
01FC0000
01FC0000
01FC0000
01F80000
01F80000
03F80000
03F80000
03F80000
03F80000
03F80000
03F00000
03F00000
03F80000
03FC0000
03FFF800
03FFF800
01FFF800
01FFF800
007FF800
ENDCHAR
STARTCHAR 0168
ENCODING 360
SWIDTH 681 0
DWIDTH 53 0
BBX 48 71 9 -1
BITMAP
000007F003C0
00001FFC07C0
00003FFF9F80
00003FFFFF00
00007E7FFF00
0000F80FFE00
0000F803F800
000000000000
000000000000
000000000000
000000000000
000000000000
000000000000
000000000000
000000000000
000000000000
07F00000003F
07F00000007F
07F00000007F
07E00000007F
07E00000007F
0FE00000007E
0FE00000007E
0FE0000000FE
0FC0000000FE
0FC0000000FE
0FC0000000FE
1FC0000000FC
1FC0000000FC
1FC0000001FC
1F80000001FC
1F80000001FC
3F80000001FC
3F80000001F8
3F80000001F8
3F80000003F8
3F00000003F8
3F00000003F8
7F00000003F8
7F00000003F0
7F00000007F0
7F00000007F0
7E00000007F0
7E00000007F0
FE00000007E0
FE00000007E0
FE0000000FE0
FE0000000FE0
FC0000000FE0
FC0000000FC0
FC0000001FC0
FC0000001FC0
FC0000001FC0
FC0000003F80
FC0000003F80
FE0000007F00
FE0000007F00
FE000000FF00
FF000001FE00
FF000001FC00
7F800003FC00
7FC0000FF800
3FE0001FF000
3FF800FFE000
1FFFFFFFC000
0FFFFFFF8000
07FFFFFF0000
03FFFFFC0000
01FFFFF00000
003FFFC00000
0001F0000000
ENDCHAR
STARTCHAR 0169
ENCODING 361
SWIDTH 591 0
DWIDTH 46 0
BBX 40 58 8 -1
BITMAP
00007800F0
0003FF01F0
0007FFC3F0
000FFFFFE0
000FFFFFC0
001F07FF80
001E01FF00
003E003C00
0000000000
0000000000
0000000000
0000000000
0000000000
0000000000
0000000000
0000000000
0FE000007F
0FE000007F
0FE000007F
0FE000007F
0FE000007F
0FC000007E
1FC00000FE
1FC00000FE
1FC00000FE
1FC00000FE
1FC00000FE
1F800000FC
3F800001FC
3F800001FC
3F800001FC
3F800001FC
3F800001FC
3F000001F8
7F000003F8
7F000003F8
7F000003F8
7F000003F8
7E000003F0
7E000007F0
FE000007F0
FE000007F0
FE000007F0
FE00000FF0
FE00000FE0
FE00001FE0
FF00001FE0
FF00003FE0
7F80007FE0
7FC001EFE0
7FE003EFC0
3FFC1FDFC0
3FFFFF9FC0
1FFFFF1FC0
0FFFFC1FC0
07FFF81FC0
03FFE01F80
003E000000
ENDCHAR
STARTCHAR 016A
ENCODING 362
SWIDTH 681 0
DWIDTH 53 0
BBX 48 67 9 -1
BITMAP
00007FFFFF80
00007FFFFF00
00007FFFFF00
00007FFFFF00
000000000000
000000000000
000000000000
000000000000
000000000000
000000000000
000000000000
000000000000
07F00000003F
07F00000007F
07F00000007F
07E00000007F
07E00000007F
0FE00000007E
0FE00000007E
0FE0000000FE
0FC0000000FE
0FC0000000FE
0FC0000000FE
1FC0000000FC
1FC0000000FC
1FC0000001FC
1F80000001FC
1F80000001FC
3F80000001FC
3F80000001F8
3F80000001F8
3F80000003F8
3F00000003F8
3F00000003F8
7F00000003F8
7F00000003F0
7F00000007F0
7F00000007F0
7E00000007F0
7E00000007F0
FE00000007E0
FE00000007E0
FE0000000FE0
FE0000000FE0
FC0000000FE0
FC0000000FC0
FC0000001FC0
FC0000001FC0
FC0000001FC0
FC0000003F80
FC0000003F80
FE0000007F00
FE0000007F00
FE000000FF00
FF000001FE00
FF000001FC00
7F800003FC00
7FC0000FF800
3FE0001FF000
3FF800FFE000
1FFFFFFFC000
0FFFFFFF8000
07FFFFFF0000
03FFFFFC0000
01FFFFF00000
003FFFC00000
0001F0000000
ENDCHAR
STARTCHAR 016B
ENCODING 363
SWIDTH 591 0
DWIDTH 46 0
BBX 40 53 8 -1
BITMAP
001FFFFFE0
001FFFFFE0
001FFFFFC0
0000000000
0000000000
0000000000
0000000000
0000000000
0000000000
0000000000
0000000000
0FE000007F
0FE000007F
0FE000007F
0FE000007F
0FE000007F
0FC000007E
1FC00000FE
1FC00000FE
1FC00000FE
1FC00000FE
1FC00000FE
1F800000FC
3F800001FC
3F800001FC
3F800001FC
3F800001FC
3F800001FC
3F000001F8
7F000003F8
7F000003F8
7F000003F8
7F000003F8
7E000003F0
7E000007F0
FE000007F0
FE000007F0
FE000007F0
FE00000FF0
FE00000FE0
FE00001FE0
FF00001FE0
FF00003FE0
7F80007FE0
7FC001EFE0
7FE003EFC0
3FFC1FDFC0
3FFFFF9FC0
1FFFFF1FC0
0FFFFC1FC0
07FFF81FC0
03FFE01F80
003E000000
ENDCHAR
STARTCHAR 016E
ENCODING 366
SWIDTH 681 0
DWIDTH 53 0
BBX 48 76 9 -1
BITMAP
000000060000
0000003FC000
0000007FE000
000000FFF000
000001E0F000
000001C07000
000001C07000
000003C07000
000003C0F000
000001C0E000
000001E3E000
000001FFC000
000000FF8000
0000003E0000
000000000000
000000000000
000000000000
000000000000
000000000000
000000000000
000000000000
07F00000003F
07F00000007F
07F00000007F
07E00000007F
07E00000007F
0FE00000007E
0FE00000007E
0FE0000000FE
0FC0000000FE
0FC0000000FE
0FC0000000FE
1FC0000000FC
1FC0000000FC
1FC0000001FC
1F80000001FC
1F80000001FC
3F80000001FC
3F80000001F8
3F80000001F8
3F80000003F8
3F00000003F8
3F00000003F8
7F00000003F8
7F00000003F0
7F00000007F0
7F00000007F0
7E00000007F0
7E00000007F0
FE00000007E0
FE00000007E0
FE0000000FE0
FE0000000FE0
FC0000000FE0
FC0000000FC0
FC0000001FC0
FC0000001FC0
FC0000001FC0
FC0000003F80
FC0000003F80
FE0000007F00
FE0000007F00
FE000000FF00
FF000001FE00
FF000001FC00
7F800003FC00
7FC0000FF800
3FE0001FF000
3FF800FFE000
1FFFFFFFC000
0FFFFFFF8000
07FFFFFF0000
03FFFFFC0000
01FFFFF00000
003FFFC00000
0001F0000000
ENDCHAR
STARTCHAR 016F
ENCODING 367
SWIDTH 591 0
DWIDTH 46 0
BBX 40 62 8 -1
BITMAP
000003F000
00000FF800
00001FFC00
00003C3C00
0000381C00
0000701E00
0000701C00
0000701C00
0000703C00
0000787800
00007FF000
00003FE000
00001FC000
0000000000
0000000000
0000000000
0000000000
0000000000
0000000000
0000000000
0FE000007F
0FE000007F
0FE000007F
0FE000007F
0FE000007F
0FC000007E
1FC00000FE
1FC00000FE
1FC00000FE
1FC00000FE
1FC00000FE
1F800000FC
3F800001FC
3F800001FC
3F800001FC
3F800001FC
3F800001FC
3F000001F8
7F000003F8
7F000003F8
7F000003F8
7F000003F8
7E000003F0
7E000007F0
FE000007F0
FE000007F0
FE000007F0
FE00000FF0
FE00000FE0
FE00001FE0
FF00001FE0
FF00003FE0
7F80007FE0
7FC001EFE0
7FE003EFC0
3FFC1FDFC0
3FFFFF9FC0
1FFFFF1FC0
0FFFFC1FC0
07FFF81FC0
03FFE01F80
003E000000
ENDCHAR
STARTCHAR 0172
ENCODING 370
SWIDTH 681 0
DWIDTH 53 0
BBX 48 67 9 -13
BITMAP
07F00000003F
07F00000007F
07F00000007F
07E00000007F
07E00000007F
0FE00000007E
0FE00000007E
0FE0000000FE
0FC0000000FE
0FC0000000FE
0FC0000000FE
1FC0000000FC
1FC0000000FC
1FC0000001FC
1F80000001FC
1F80000001FC
3F80000001FC
3F80000001F8
3F80000001F8
3F80000003F8
3F00000003F8
3F00000003F8
7F00000003F8
7F00000003F0
7F00000007F0
7F00000007F0
7E00000007F0
7E00000007F0
FE00000007E0
FE00000007E0
FE0000000FE0
FE0000000FE0
FC0000000FE0
FC0000000FC0
FC0000001FC0
FC0000001FC0
FC0000001FC0
FC0000003F80
FC0000003F80
FE0000007F00
FE0000007F00
FE000000FF00
FF000001FE00
FF000001FC00
7F800003FC00
7FC0000FF800
3FE0001FF000
3FF800FFE000
1FFFFFFFC000
0FFFFFFF8000
07FFFFFF0000
03FFFFFC0000
01FFFFF00000
003FFFC00000
0003F8000000
0007E0000000
0007C0000000
000F80000000
001F00000000
001F00000000
001F00000000
001F00000000
001F80000000
001FFC000000
001FFC000000
000FFC000000
0003FC000000
ENDCHAR
STARTCHAR 0173
ENCODING 371
SWIDTH 591 0
DWIDTH 46 0
BBX 40 54 8 -13
BITMAP
0FE000007F
0FE000007F
0FE000007F
0FE000007F
0FE000007F
0FC000007E
1FC00000FE
1FC00000FE
1FC00000FE
1FC00000FE
1FC00000FE
1F800000FC
3F800001FC
3F800001FC
3F800001FC
3F800001FC
3F800001FC
3F000001F8
7F000003F8
7F000003F8
7F000003F8
7F000003F8
7E000003F0
7E000007F0
FE000007F0
FE000007F0
FE000007F0
FE00000FF0
FE00000FE0
FE00001FE0
FF00001FE0
FF00003FE0
7F80007FE0
7FC001EFE0
7FE003EFC0
3FFC1FDFC0
3FFFFF9FC0
1FFFFF1FC0
0FFFFC1FC0
07FFF81FC0
03FFE03F80
003E007E00
000000FC00
000001F000
000001F000
000003E000
000003E000
000003E000
000003E000
000003F880
000003FF80
000001FF80
000000FF80
0000000C00
ENDCHAR
STARTCHAR 0174
ENCODING 372
SWIDTH 990 0
DWIDTH 77 0
BBX 74 71 11 0
BITMAP
000000000FE000000000
000000001FF000000000
000000003FF000000000
000000007FF800000000
00000000FFFC00000000
00000001FCFE00000000
00000003F87E00000000
00000007F07F00000000
0000000FC03F80000000
0000001F801F80000000
0000003F000FC0000000
00000040000000000000
00000000000000000000
00000000000000000000
00000000000000000000
00000000000000000000
00000000000000000000
FC0000007F0000001FC0
FC0000007F0000001F80
FC000000FF0000003F80
FC000000FF8000003F80
FE000001FF8000007F00
FE000001FF8000007F00
FE000003FF8000007E00
FE000003FF800000FE00
FE000007FF800000FC00
FE000007FF800001FC00
FE00000FFFC00001FC00
7E00000FFFC00003F800
7E00001FDFC00003F800
7E00001FCFC00003F000
7E00003F8FC00007F000
7F00003F8FC00007E000
7F00007F0FE0000FE000
7F00007F0FE0000FC000
7F0000FE0FE0001FC000
7F0000FE0FE0001FC000
7F0001FC07E0001F8000
3F0001FC07E0003F8000
3F0003F807E0003F0000
3F0003F807F0007F0000
3F0007F007F0007E0000
3F0007F007F000FE0000
3F000FE007F000FE0000
3F800FE003F001FC0000
3F801FC003F001FC0000
3F801FC003F801F80000
3F803F8003F803F80000
1F803F8003F803F00000
1F807F0003F807F00000
1F807F0001F807E00000
1F80FE0001F80FE00000
1F80FE0001F80FE00000
1F81FC0001FC0FC00000
1F81FC0001FC1FC00000
1FC3F80001FC1F800000
1FC3F80001FC3F800000
1FC7F00000FC3F000000
0FC7F00000FC7F000000
0FCFE00000FE7F000000
0FCFE00000FE7E000000
0FDFC00000FEFE000000
0FDFC00000FEFC000000
0FFF800000FFFC000000
0FFF8000007FF8000000
0FFF0000007FF8000000
0FFF0000007FF0000000
0FFE0000007FF0000000
0FFE0000007FF0000000
07FC0000007FE0000000
07FC0000007FE0000000
ENDCHAR
ENDFONT
